<?xml version="1.0" encoding="UTF-8"?>
<svg width="380px" height="212px" viewBox="0 0 380 212" version="1.1" xmlns="http://www.w3.org/2000/svg" xmlns:xlink="http://www.w3.org/1999/xlink">
    <title>Benchmarks</title>
    <defs>
        <polygon id="path-1" points="0 212 380 212 380 0 0 0"></polygon>
    </defs>
    <g id="Benchmarks" stroke="none" stroke-width="1" fill="none" fill-rule="evenodd">
        <g id="Group-91">
            <polygon id="Fill-1" fill="#F3F2F1" points="0 212 380 212 380 0 0 0"></polygon>
            <g id="Group-90">
                <path d="M91.0541556,168.427881 L91.9014706,170.106956 C91.1742111,169.91064 90.5393021,169.812483 89.9967434,169.812483 C88.1139495,169.812483 86.4978173,170.634698 85.1460382,172.27682 C83.7954135,173.921252 82.6144826,176.516081 81.6032456,180.058999 L85.3619073,180.058999 L85.3619073,181.720753 L81.094164,181.720753 L78.7265304,190.721243 C80.4465568,190.559571 81.6748172,190.478735 82.4147749,190.478735 C83.4525626,190.478735 84.6265671,190.603453 85.9367886,190.851735 C87.2481644,191.100016 88.1508896,191.22358 88.6472731,191.22358 C89.8362846,191.22358 91.006826,190.90601 92.1612061,190.270872 L92.1612061,192.140489 C91.1234184,192.660148 89.9875084,192.919977 88.7534761,192.919977 C88.3148116,192.919977 87.3358973,192.795259 85.8190418,192.548132 C84.3021863,192.299851 83.0254419,192.175133 81.9876542,192.175133 C80.395764,192.175133 78.5441383,192.377222 76.4339315,192.781401 L79.4122322,181.720753 L76.4339315,181.720753 L76.4339315,180.058999 L79.8589773,180.058999 C82.0511451,172.097827 85.2176098,168.116085 89.3583712,168.116085 C89.9355613,168.116085 90.5000532,168.220017 91.0541556,168.427881" id="Fill-2" fill="#3C3C3B"></path>
                <path d="M325.945574,116.778532 C327.422026,116.778532 328.694153,116.245015 329.759646,115.177983 C330.826293,114.11095 331.360771,112.839518 331.360771,111.361377 C331.360771,109.884392 330.826293,108.61296 329.759646,107.545927 C328.694153,106.478894 327.422026,105.945378 325.945574,105.945378 C324.469122,105.945378 323.196995,106.482359 322.131502,107.557475 C321.064855,108.631437 320.531531,109.900559 320.531531,111.361377 C320.531531,112.85453 321.060237,114.130581 322.119958,115.189531 C323.178525,116.249634 324.454115,116.778532 325.945574,116.778532 L325.945574,116.778532 Z M325.945574,103.975294 C327.958813,103.975294 329.693846,104.700507 331.147211,106.146313 C332.602884,107.594429 333.328989,109.333553 333.328989,111.361377 C333.328989,113.376499 332.602884,115.112159 331.147211,116.564894 C329.693846,118.021094 327.958813,118.748616 325.945574,118.748616 C323.916174,118.748616 322.178832,118.024558 320.732393,116.577597 C319.284801,115.130636 318.562159,113.391511 318.562159,111.361377 C318.562159,109.333553 319.284801,107.594429 320.732393,106.146313 C322.178832,104.700507 323.916174,103.975294 325.945574,103.975294 L325.945574,103.975294 Z M310.461874,99.29721 C311.93948,99.29721 313.205835,98.7683128 314.265556,97.7082089 C315.325277,96.6492597 315.855137,95.3812923 315.855137,93.9031517 C315.855137,92.4123084 315.325277,91.1362574 314.265556,90.0761534 C313.205835,89.0172043 311.93948,88.4871523 310.461874,88.4871523 C308.985421,88.4871523 307.714449,89.0206687 306.647802,90.0877014 C305.581154,91.1535793 305.047831,92.426166 305.047831,93.9031517 C305.047831,95.3963046 305.576537,96.6688913 306.636258,97.718602 C307.694824,98.7717772 308.970414,99.29721 310.461874,99.29721 L310.461874,99.29721 Z M331.762495,86.6510246 L306.615479,118.703579 L304.309028,118.703579 L329.542622,86.6510246 L331.762495,86.6510246 Z M310.461874,86.5170681 C312.476267,86.5170681 314.205528,87.2422808 315.653121,88.6880871 C317.099559,90.1362029 317.823356,91.8753276 317.823356,93.9031517 C317.823356,95.918273 317.099559,97.6493142 315.653121,99.0962752 C314.205528,100.544391 312.476267,101.267294 310.461874,101.267294 C308.433628,101.267294 306.695131,100.547855 305.248693,99.1066684 C303.802255,97.667791 303.078458,95.9332854 303.078458,93.9031517 C303.078458,91.8753276 303.802255,90.1362029 305.248693,88.6880871 C306.695131,87.2422808 308.433628,86.5170681 310.461874,86.5170681 L310.461874,86.5170681 Z" id="Fill-4" fill="#3C3C3B"></path>
                <path d="M116.659692,111.998941 C116.659692,135.214986 97.8456047,154.035873 74.6379469,154.035873 C51.4291347,154.035873 32.6150476,135.214986 32.6150476,111.998941 C32.6150476,88.7828959 51.4291347,69.9620093 74.6379469,69.9620093 C97.8456047,69.9620093 116.659692,88.7828959 116.659692,111.998941" id="Fill-6" fill="#FFFFFF"></path>
                <path d="M116.659692,111.998941 C116.659692,135.214986 97.8456047,154.035873 74.6379469,154.035873 C51.4291347,154.035873 32.6150476,135.214986 32.6150476,111.998941 C32.6150476,88.7828959 51.4291347,69.9620093 74.6379469,69.9620093 C97.8456047,69.9620093 116.659692,88.7828959 116.659692,111.998941 Z" id="Stroke-8" stroke="#3C3C3B" stroke-width="1.25"></path>
                <g id="Group-13" transform="translate(32.615856, 89.485706)">
                    <path d="M42.0217449,22.3741979 L6.52686516,0 C2.39418435,6.50843765 0,14.2317221 0,22.5127736 C0,41.140809 12.1117561,56.939591 28.8872079,62.4560578 L42.1325654,22.401913" id="Fill-10" fill="#C6C6C5"></path>
                    <path d="M42.0217449,22.3741979 L6.52686516,0 C2.39418435,6.50843765 0,14.2317221 0,22.5127736 C0,41.140809 12.1117561,56.939591 28.8872079,62.4560578 L42.1325654,22.401913" id="Stroke-12" stroke="#3C3C3B" stroke-width="1.25"></path>
                </g>
                <path d="M115.805912,120.470881 C116.365787,117.734011 116.660154,114.901293 116.660154,111.999288 C116.660154,88.7820876 97.8460664,69.961201 74.6372543,69.961201 C59.7088107,69.961201 46.5973613,77.7503089 39.1435289,89.4865139 L74.6095492,111.943857 L115.805912,120.470881 Z" id="Fill-14" fill="#86C4EA"></path>
                <path d="M115.805912,120.470881 C116.365787,117.734011 116.660154,114.901293 116.660154,111.999288 C116.660154,88.7820876 97.8460664,69.961201 74.6372543,69.961201 C59.7088107,69.961201 46.5973613,77.7503089 39.1435289,89.4865139 L74.6095492,111.943857 L115.805912,120.470881 Z" id="Stroke-16" stroke="#3C3C3B" stroke-width="1.25"></path>
                <g id="Group-21" transform="translate(39.213138, 69.961663)">
                    <path d="M35.4244625,0 C20.5410397,0 7.46537619,7.73945158 0,19.4156072 L35.535283,41.9260712 L35.535283,0" id="Fill-18" fill="#F76C06"></path>
                    <path d="M35.4244625,0 C20.5410397,0 7.46537619,7.73945158 0,19.4156072 L35.535283,41.9260712 L35.535283,0" id="Stroke-20" stroke="#3C3C3B" stroke-width="1.25"></path>
                </g>
                <polygon id="Fill-22" fill="#C6C6C5" points="219.602693 184.917809 166.977967 184.917809 172.193456 166.475696 214.387203 166.475696"></polygon>
                <polygon id="Stroke-24" stroke="#3C3C3B" stroke-width="1.25" points="219.602693 184.917809 166.977967 184.917809 172.193456 166.475696 214.387203 166.475696"></polygon>
                <path d="M279.474733,167.158989 L107.258536,167.158989 C105.450776,167.158989 103.985868,165.693552 103.985868,163.885139 L103.985868,60.1127431 C103.985868,58.3043305 105.450776,56.8388927 107.258536,56.8388927 L279.474733,56.8388927 C281.282492,56.8388927 282.7474,58.3043305 282.7474,60.1127431 L282.7474,163.885139 C282.7474,165.693552 281.282492,167.158989 279.474733,167.158989" id="Fill-26" fill="#C6C6C5"></path>
                <path d="M279.474733,167.158989 L107.258536,167.158989 C105.450776,167.158989 103.985868,165.693552 103.985868,163.885139 L103.985868,60.1127431 C103.985868,58.3043305 105.450776,56.8388927 107.258536,56.8388927 L279.474733,56.8388927 C281.282492,56.8388927 282.7474,58.3043305 282.7474,60.1127431 L282.7474,163.885139 C282.7474,165.693552 281.282492,167.158989 279.474733,167.158989 Z" id="Stroke-28" stroke="#3C3C3B" stroke-width="1.25"></path>
                <mask id="mask-2" fill="white">
                    <use xlink:href="#path-1"></use>
                </mask>
                <g id="Clip-31"></g>
                <polygon id="Fill-30" fill="#FFFFFF" mask="url(#mask-2)" points="109.892369 160.897909 276.857291 160.897909 276.857291 62.8798684 109.892369 62.8798684"></polygon>
                <polygon id="Stroke-32" stroke="#3C3C3B" stroke-width="1.25" mask="url(#mask-2)" points="109.892369 160.897909 276.857291 160.897909 276.857291 62.8798684 109.892369 62.8798684"></polygon>
                <polygon id="Fill-33" fill="#1D70B8" mask="url(#mask-2)" points="110.483412 80.4166204 276.231617 80.4166204 276.231617 63.3371681 110.483412 63.3371681"></polygon>
                <polygon id="Fill-34" fill="#ECECEC" mask="url(#mask-2)" points="134.343294 151.40663 252.602611 151.40663 252.602611 88.7011363 134.343294 88.7011363"></polygon>
                <polygon id="Stroke-35" stroke="#3C3C3B" stroke-width="1.25" mask="url(#mask-2)" points="134.343294 151.40663 252.602611 151.40663 252.602611 88.7011363 134.343294 88.7011363"></polygon>
                <polygon id="Fill-36" fill="#F76C06" mask="url(#mask-2)" points="155.12433 122.675042 134.335098 139.689826 134.335098 151.0334 157.792102 151.14426 158.348513 121.785848"></polygon>
                <polygon id="Fill-37" fill="#F76C06" mask="url(#mask-2)" points="202.176863 109.607933 181.555017 131.293872 181.555017 151.506289 205.012021 151.61715 205.567278 111.998364"></polygon>
                <polygon id="Fill-38" fill="#F76C06" mask="url(#mask-2)" points="249.535076 99.4322058 228.899378 115.362635 228.899378 150.894593 252.356381 151.005454 252.911638 101.934652"></polygon>
                <polygon id="Fill-39" fill="#F7BB92" mask="url(#mask-2)" points="209.708616 108.162127 205.484739 110.441697 205.803348 151.006262 229.260352 151.117123 229.052564 113.889922"></polygon>
                <polygon id="Fill-40" fill="#F7BB92" mask="url(#mask-2)" points="161.870989 121.451765 157.645958 120.395126 157.965721 151.283644 181.422725 151.394505 181.214936 130.960366"></polygon>
                <polyline id="Stroke-41" stroke="#3C3C3B" mask="url(#mask-2)" points="134.558009 139.134137 134.343294 151.406168 158.070423 151.145184 158.070423 117.996727"></polyline>
                <line x1="181.694004" y1="129.046405" x2="181.694004" y2="151.144607" id="Stroke-42" stroke="#3C3C3B" stroke-width="1.25" mask="url(#mask-2)"></line>
                <line x1="205.317585" y1="105.786132" x2="205.317585" y2="151.14426" id="Stroke-43" stroke="#3C3C3B" stroke-width="1.25" mask="url(#mask-2)"></line>
                <line x1="228.941166" y1="112.511556" x2="228.941166" y2="151.1453" id="Stroke-44" stroke="#3C3C3B" stroke-width="1.25" mask="url(#mask-2)"></line>
                <polyline id="Stroke-45" stroke="#3C3C3B" stroke-width="1.25" mask="url(#mask-2)" points="134.558009 139.134137 158.236654 120.006075 181.582837 131.126773 205.039841 106.882958 229.496538 114.22285 252.398285 97.3189267"></polyline>
                <polygon id="Stroke-46" stroke="#3C3C3B" mask="url(#mask-2)" points="134.343294 151.40663 252.602611 151.40663 252.602611 88.7011363 134.343294 88.7011363"></polygon>
                <path d="M163.128571,120.673317 C163.128571,123.499106 160.839435,125.789069 158.014667,125.789069 C155.191053,125.789069 152.900763,123.499106 152.900763,120.673317 C152.900763,117.847528 155.191053,115.557564 158.014667,115.557564 C160.839435,115.557564 163.128571,117.847528 163.128571,120.673317" id="Fill-47" fill="#86C4EA" mask="url(#mask-2)"></path>
                <path d="M163.128571,120.673317 C163.128571,123.499106 160.839435,125.789069 158.014667,125.789069 C155.191053,125.789069 152.900763,123.499106 152.900763,120.673317 C152.900763,117.847528 155.191053,115.557564 158.014667,115.557564 C160.839435,115.557564 163.128571,117.847528 163.128571,120.673317 Z" id="Stroke-48" stroke="#3C3C3B" stroke-width="1.25" mask="url(#mask-2)"></path>
                <path d="M139.671798,139.134137 C139.671798,141.959926 137.382662,144.249889 134.557894,144.249889 C131.73428,144.249889 129.44399,141.959926 129.44399,139.134137 C129.44399,136.308348 131.73428,134.018385 134.557894,134.018385 C137.382662,134.018385 139.671798,136.308348 139.671798,139.134137" id="Fill-49" fill="#86C4EA" mask="url(#mask-2)"></path>
                <path d="M139.671798,139.134137 C139.671798,141.959926 137.382662,144.249889 134.557894,144.249889 C131.73428,144.249889 129.44399,141.959926 129.44399,139.134137 C129.44399,136.308348 131.73428,134.018385 134.557894,134.018385 C137.382662,134.018385 139.671798,136.308348 139.671798,139.134137 Z" id="Stroke-50" stroke="#3C3C3B" stroke-width="1.25" mask="url(#mask-2)"></path>
                <path d="M186.69651,131.127004 C186.69651,133.952793 184.407375,136.242756 181.582607,136.242756 C178.758993,136.242756 176.468703,133.952793 176.468703,131.127004 C176.468703,128.301215 178.758993,126.011252 181.582607,126.011252 C184.407375,126.011252 186.69651,128.301215 186.69651,131.127004" id="Fill-51" fill="#86C4EA" mask="url(#mask-2)"></path>
                <path d="M186.69651,131.127004 C186.69651,133.952793 184.407375,136.242756 181.582607,136.242756 C178.758993,136.242756 176.468703,133.952793 176.468703,131.127004 C176.468703,128.301215 178.758993,126.011252 181.582607,126.011252 C184.407375,126.011252 186.69651,128.301215 186.69651,131.127004 Z" id="Stroke-52" stroke="#3C3C3B" stroke-width="1.25" mask="url(#mask-2)"></path>
                <path d="M210.153283,106.883304 C210.153283,109.709093 207.864148,111.999057 205.03938,111.999057 C202.215766,111.999057 199.925476,109.709093 199.925476,106.883304 C199.925476,104.057515 202.215766,101.767552 205.03938,101.767552 C207.864148,101.767552 210.153283,104.057515 210.153283,106.883304" id="Fill-53" fill="#86C4EA" mask="url(#mask-2)"></path>
                <path d="M210.153283,106.883304 C210.153283,109.709093 207.864148,111.999057 205.03938,111.999057 C202.215766,111.999057 199.925476,109.709093 199.925476,106.883304 C199.925476,104.057515 202.215766,101.767552 205.03938,101.767552 C207.864148,101.767552 210.153283,104.057515 210.153283,106.883304 Z" id="Stroke-54" stroke="#3C3C3B" stroke-width="1.25" mask="url(#mask-2)"></path>
                <path d="M234.610558,114.223081 C234.610558,117.04887 232.321422,119.338833 229.496654,119.338833 C226.67304,119.338833 224.38275,117.04887 224.38275,114.223081 C224.38275,111.397292 226.67304,109.107329 229.496654,109.107329 C232.321422,109.107329 234.610558,111.397292 234.610558,114.223081" id="Fill-55" fill="#86C4EA" mask="url(#mask-2)"></path>
                <path d="M234.610558,114.223081 C234.610558,117.04887 232.321422,119.338833 229.496654,119.338833 C226.67304,119.338833 224.38275,117.04887 224.38275,114.223081 C224.38275,111.397292 226.67304,109.107329 229.496654,109.107329 C232.321422,109.107329 234.610558,111.397292 234.610558,114.223081 Z" id="Stroke-56" stroke="#3C3C3B" stroke-width="1.25" mask="url(#mask-2)"></path>
                <path d="M257.511497,97.3192731 C257.511497,100.145062 255.222361,102.435025 252.397593,102.435025 C249.573979,102.435025 247.283689,100.145062 247.283689,97.3192731 C247.283689,94.4934841 249.573979,92.203521 252.397593,92.203521 C255.222361,92.203521 257.511497,94.4934841 257.511497,97.3192731" id="Fill-57" fill="#86C4EA" mask="url(#mask-2)"></path>
                <path d="M257.511497,97.3192731 C257.511497,100.145062 255.222361,102.435025 252.397593,102.435025 C249.573979,102.435025 247.283689,100.145062 247.283689,97.3192731 C247.283689,94.4934841 249.573979,92.203521 252.397593,92.203521 C255.222361,92.203521 257.511497,94.4934841 257.511497,97.3192731 Z" id="Stroke-58" stroke="#3C3C3B" stroke-width="1.25" mask="url(#mask-2)"></path>
                <line x1="141.895134" y1="96.2627491" x2="176.747024" y2="96.2627491" id="Stroke-59" stroke="#3C3C3B" stroke-width="1.25" mask="url(#mask-2)"></line>
                <line x1="141.895134" y1="100.989219" x2="166.104793" y2="100.989219" id="Stroke-60" stroke="#3C3C3B" stroke-width="1.25" mask="url(#mask-2)"></line>
                <line x1="141.895134" y1="105.715573" x2="169.87269" y2="105.715573" id="Stroke-61" stroke="#3C3C3B" stroke-width="1.25" mask="url(#mask-2)"></line>
                <polygon id="Fill-62" fill="#FFFFFF" mask="url(#mask-2)" points="124.719227 77.0653986 145.230253 77.0653986 145.230253 72.3942434 124.719227 72.3942434"></polygon>
                <polygon id="Fill-63" fill="#FFFFFF" mask="url(#mask-2)" points="148.342462 77.0653986 168.853488 77.0653986 168.853488 72.3942434 148.342462 72.3942434"></polygon>
                <polygon id="Fill-64" fill="#FFFFFF" mask="url(#mask-2)" points="171.966851 77.0653986 192.477877 77.0653986 192.477877 72.3942434 171.966851 72.3942434"></polygon>
                <polygon id="Fill-65" fill="#FFFFFF" mask="url(#mask-2)" points="195.590086 77.0653986 216.101112 77.0653986 216.101112 72.3942434 195.590086 72.3942434"></polygon>
                <polygon id="Fill-66" fill="#C6C6C5" mask="url(#mask-2)" points="153.474836 191.934242 233.028942 191.934242 233.028942 184.418821 153.474836 184.418821"></polygon>
                <polygon id="Stroke-67" stroke="#3C3C3B" stroke-width="1.25" mask="url(#mask-2)" points="153.474836 191.934242 233.028942 191.934242 233.028942 184.418821 153.474836 184.418821"></polygon>
                <path d="M41.9969257,158.657603 C41.9969257,164.274537 37.4452049,168.826748 31.8314544,168.826748 C26.2165496,168.826748 21.6648288,164.274537 21.6648288,158.657603 C21.6648288,153.040668 26.2165496,148.488457 31.8314544,148.488457 C37.4452049,148.488457 41.9969257,153.040668 41.9969257,158.657603" id="Fill-68" fill="#39A935" mask="url(#mask-2)"></path>
                <path d="M41.9969257,158.657603 C41.9969257,164.274537 37.4452049,168.826748 31.8314544,168.826748 C26.2165496,168.826748 21.6648288,164.274537 21.6648288,158.657603 C21.6648288,153.040668 26.2165496,148.488457 31.8314544,148.488457 C37.4452049,148.488457 41.9969257,153.040668 41.9969257,158.657603 Z" id="Stroke-69" stroke="#3C3C3B" stroke-width="1.25" mask="url(#mask-2)"></path>
                <polyline id="Stroke-70" stroke="#FFFFFF" stroke-width="2" mask="url(#mask-2)" points="26.8346047 158.652175 30.4201093 162.238975 37.6730796 154.982229"></polyline>
                <polygon id="Fill-71" fill="#86C4EA" mask="url(#mask-2)" points="337.414918 192.041638 348.087162 192.041638 348.087162 131.626107 337.414918 131.626107"></polygon>
                <polygon id="Stroke-72" stroke="#3C3C3B" stroke-width="1.25" mask="url(#mask-2)" points="337.414918 192.041638 348.087162 192.041638 348.087162 131.626107 337.414918 131.626107"></polygon>
                <polygon id="Fill-73" fill="#C6C6C5" mask="url(#mask-2)" points="320.878423 192.041638 331.550667 192.041638 331.550667 163.066619 320.878423 163.066619"></polygon>
                <polygon id="Stroke-74" stroke="#3C3C3B" stroke-width="1.25" mask="url(#mask-2)" points="320.878423 192.041638 331.550667 192.041638 331.550667 163.066619 320.878423 163.066619"></polygon>
                <polygon id="Fill-75" fill="#F76C06" mask="url(#mask-2)" points="304.341927 192.041638 315.014172 192.041638 315.014172 148.094672 304.341927 148.094672"></polygon>
                <polygon id="Stroke-76" stroke="#3C3C3B" stroke-width="1.25" mask="url(#mask-2)" points="304.341927 192.041638 315.014172 192.041638 315.014172 148.094672 304.341927 148.094672"></polygon>
                <line x1="297.560406" y1="192.097761" x2="353.923015" y2="192.097761" id="Stroke-77" stroke="#3C3C3B" stroke-width="1.25" mask="url(#mask-2)"></line>
                <path d="M316.326355,54.0835463 C315.198526,56.7984748 312.085163,58.0837642 309.371215,56.956682 C306.658422,55.8284451 305.372443,52.7128019 306.500272,49.9990282 C307.628101,47.2840997 310.741464,45.9976555 313.454258,47.1258925 C316.168205,48.2541295 317.454185,51.3686178 316.326355,54.0835463" id="Fill-78" fill="#F5F5F5" mask="url(#mask-2)"></path>
                <path d="M316.326355,54.0835463 C315.198526,56.7984748 312.085163,58.0837642 309.371215,56.956682 C306.658422,55.8284451 305.372443,52.7128019 306.500272,49.9990282 C307.628101,47.2840997 310.741464,45.9976555 313.454258,47.1258925 C316.168205,48.2541295 317.454185,51.3686178 316.326355,54.0835463 Z" id="Stroke-79" stroke="#C6C6C5" stroke-width="1.25" mask="url(#mask-2)"></path>
                <path d="M60.1269271,178.835953 C60.1269271,181.383436 58.0628955,183.448214 55.516333,183.448214 C52.9697704,183.448214 50.9057388,181.383436 50.9057388,178.835953 C50.9057388,176.288471 52.9697704,174.223693 55.516333,174.223693 C58.0628955,174.223693 60.1269271,176.288471 60.1269271,178.835953" id="Fill-80" fill="#F5F5F5" mask="url(#mask-2)"></path>
                <path d="M60.1269271,178.835953 C60.1269271,181.383436 58.0628955,183.448214 55.516333,183.448214 C52.9697704,183.448214 50.9057388,181.383436 50.9057388,178.835953 C50.9057388,176.288471 52.9697704,174.223693 55.516333,174.223693 C58.0628955,174.223693 60.1269271,176.288471 60.1269271,178.835953 Z" id="Stroke-81" stroke="#C6C6C5" stroke-width="1.25" mask="url(#mask-2)"></path>
                <polygon id="Fill-82" fill="#F5F5F5" mask="url(#mask-2)" points="350.531908 63.78777 353.455953 61.4111972 354.424478 65.0534279 358.186603 64.8501836 356.830206 68.3653866 359.993207 70.4128422 356.830206 72.4602979 358.186603 75.9766557 354.424478 75.7734113 353.455953 79.4144873 350.531908 77.0379144 347.607863 79.4144873 346.639338 75.7734113 342.877213 75.9766557 344.23361 72.4602979 341.070609 70.4128422 344.23361 68.3653866 342.877213 64.8501836 346.639338 65.0534279 347.607863 61.4111972"></polygon>
                <polygon id="Stroke-83" stroke="#C6C6C5" stroke-width="1.25" mask="url(#mask-2)" points="350.531908 63.78777 353.455953 61.4111972 354.424478 65.0534279 358.186603 64.8501836 356.830206 68.3653866 359.993207 70.4128422 356.830206 72.4602979 358.186603 75.9766557 354.424478 75.7734113 353.455953 79.4144873 350.531908 77.0379144 347.607863 79.4144873 346.639338 75.7734113 342.877213 75.9766557 344.23361 72.4602979 341.070609 70.4128422 344.23361 68.3653866 342.877213 64.8501836 346.639338 65.0534279 347.607863 61.4111972"></polygon>
                <path d="M83.9910809,55.2273731 C79.5663419,59.6537111 72.3930239,59.6537111 67.9682849,55.2273731 C64.4289555,51.6867645 64.4289555,45.9462671 67.9682849,42.4045037 C70.7999793,39.5717859 75.3909491,39.5717859 78.2226435,42.4045037 C80.4886916,44.6713708 80.4886916,48.3447811 78.2226435,50.6116482 C76.4102667,52.42468 73.4723693,52.42468 71.6599925,50.6116482 C70.2100911,49.1612228 70.2100911,46.8100555 71.6599925,45.35963 C72.8201445,44.1990587 74.7006297,44.1990587 75.8607818,45.35963 C76.7889034,46.2869323 76.7889034,47.792788 75.8607818,48.7200902 C75.1185153,49.4626249 73.9144969,49.4626249 73.1722305,48.7200902 C72.5788791,48.1265244 72.5788791,47.1634234 73.1722305,46.5698576" id="Stroke-84" stroke="#C6C6C5" stroke-width="1.25" mask="url(#mask-2)"></path>
                <line x1="48.0353726" y1="61.1712303" x2="32.6394051" y2="61.1712303" id="Stroke-85" stroke="#C6C6C5" stroke-width="1.25" mask="url(#mask-2)"></line>
                <polyline id="Stroke-86" stroke="#C6C6C5" stroke-width="1.25" mask="url(#mask-2)" points="44.4502143 56.7506662 48.8276237 61.1296576 44.2839836 65.6749398"></polyline>
                <line x1="26.0811408" y1="61.1712303" x2="31.4582433" y2="61.1712303" id="Stroke-87" stroke="#C6C6C5" stroke-width="1.25" mask="url(#mask-2)"></line>
                <line x1="24.899979" y1="61.1712303" x2="22.2679924" y2="61.1712303" id="Stroke-88" stroke="#C6C6C5" stroke-width="1.25" mask="url(#mask-2)"></line>
                <path d="M245.505251,29.3561025 C253.614771,29.3561025 253.703658,39.095663 261.907838,39.095663 C270.017358,39.095663 270.109709,29.3561025 278.401621,29.3561025 C286.557316,29.3561025 286.557316,39.095663 294.713012,39.095663 C302.868707,39.095663 302.868707,29.4138423 311.115599,29.4138423 C319.362491,29.4138423 319.271295,39.2677278 327.472011,39.2677278" id="Stroke-89" stroke="#C6C6C5" stroke-width="1.25" mask="url(#mask-2)"></path>
            </g>
        </g>
    </g>
</svg>