<svg xmlns="http://www.w3.org/2000/svg" width="22" height="24">
  <g fill="#0065BD" fill-rule="evenodd">
    <path d="M13.905 19.238h1.333V9.714h-1.333zM10.095 19.238h1.334V9.714h-1.334zM6.095 1.333h9.524V0H6.095zM6.286 19.238h1.333V9.714H6.286z"/>
    <path d="M4 21.339h13.333V7.451H4V21.34zM2.667 4.375h16v1.746h-16V4.375zM20 1.715H1.333C.597 1.714 0 2.31 0 3.044v3.16c0 .734.597 1.33 1.333 1.33V22.67c0 .734.598 1.33 1.334 1.33h16c.736 0 1.333-.596 1.333-1.33V7.535c.736 0 1.333-.596 1.333-1.33v-3.16c0-.735-.597-1.33-1.333-1.33z"/>
  </g>
</svg>
