<?xml version="1.0" encoding="UTF-8"?>
<svg width="24px" height="24px" viewBox="0 0 24 24" version="1.1" xmlns="http://www.w3.org/2000/svg" xmlns:xlink="http://www.w3.org/1999/xlink">
    <!-- Generator: Sketch 53.1 (72631) - https://sketchapp.com -->
    <title>Orange flag</title>
    <desc>Created with Sketch.</desc>
    <defs>
        <polygon id="path-1" points="0.0002 -8.8817842e-16 9.172 -8.8817842e-16 9.172 15.4899 0.0002 15.4899"></polygon>
    </defs>
    <g id="Skeleton-records" stroke="none" stroke-width="1" fill="none" fill-rule="evenodd">
        <g id="User-dashboard-staff-records" transform="translate(-937.000000, -876.000000)">
            <g id="Orange-flag" transform="translate(937.000000, 876.000000)">
                <g id="Group-4">
                    <g id="Group-2">
                        <circle id="Oval" fill="#F47738" fill-rule="nonzero" cx="12" cy="12" r="12"></circle>
                        <g id="Group-3" transform="translate(7.500000, 5.000000)">
                            <mask id="mask-2" fill="white">
                                <use xlink:href="#path-1"></use>
                            </mask>
                            <g id="Clip-2"></g>
                            <path d="M2.0712,-0.0001 L1.3812,-0.0001 C0.6182,-0.0001 0.0002,0.6199 0.0002,1.3899 L0.0002,14.4499 C0.0002,15.0299 0.4642,15.4899 1.0362,15.4899 C1.6072,15.4899 2.0712,15.0299 2.0712,14.4499 L2.0712,8.0399 C2.0712,7.4699 2.5352,7.0099 3.1072,7.0099 L7.7912,7.0099 C8.5532,7.0099 9.1722,6.3899 9.1722,5.6299 L9.1722,1.3899 C9.1722,0.6199 8.5532,-0.0001 7.7912,-0.0001 L2.0712,-0.0001 Z" id="Fill-1" fill="#FFFFFF" mask="url(#mask-2)"></path>
                        </g>
                    </g>
                </g>
            </g>
        </g>
    </g>
</svg>