<svg width="26" height="26" xmlns="http://www.w3.org/2000/svg"><g fill="none" fill-rule="evenodd"><path d="M18.723 12.557a.803.803 0 0 0-1.135 0l-3.76 3.76V7.451a.802.802 0 0 0-1.605 0v8.866l-3.76-3.758a.797.797 0 0 0-1.134 0 .803.803 0 0 0 0 1.135l5.13 5.128a.801.801 0 0 0 1.134 0l5.13-5.13a.803.803 0 0 0 0-1.135" fill="#1d70b8"/><path d="M18.723 12.557a.803.803 0 0 0-1.135 0l-3.76 3.76V7.451a.802.802 0 0 0-1.605 0v8.866l-3.76-3.758a.797.797 0 0 0-1.134 0 .803.803 0 0 0 0 1.135l5.13 5.128a.801.801 0 0 0 1.134 0l5.13-5.13a.803.803 0 0 0 0-1.135z" stroke="#1d70b8" stroke-width=".8"/><path d="M13 0C5.82 0 0 5.82 0 13s5.82 13 13 13 13-5.82 13-13S20.18 0 13 0m0 3.178c5.417 0 9.822 4.405 9.822 9.822 0 5.417-4.405 9.822-9.822 9.822-5.417 0-9.822-4.405-9.822-9.822 0-5.417 4.405-9.822 9.822-9.822" fill="#1d70b8"/></g></svg>
