<?xml version="1.0" encoding="UTF-8"?><svg xmlns="http://www.w3.org/2000/svg" viewBox="0 0 329.18 181.45"><defs><style>.d,.e,.f,.g,.h,.i,.j,.k,.l,.m{stroke-miterlimit:10;}.d,.e,.f,.g,.k,.l,.m{stroke-width:1.25px;}.d,.e,.g,.k,.l{stroke:#3c3c3b;}.d,.i{fill:#c6c6c5;}.e{fill:#86c4ea;}.n{fill:#f3f2f1;}.o,.k{fill:#f76c06;}.p{fill:#1d70b8;}.q{fill:#3c3c3b;}.f,.g,.j,.m{fill:none;}.f,.i,.m{stroke:#c6c6c5;}.h,.i{stroke-width:.5px;}.h,.j{stroke:#fff;}.h,.l{fill:#fff;}.m{stroke-linecap:round;}</style></defs><g id="a"/><g id="b"><g id="c"><rect class="n" width="329.18" height="181.45"/><g><circle class="o" cx="52.09" cy="40.86" r="22.24"/><path class="h" d="M49.3,49.48c.96,0,1.94,.12,2.93,.36s1.97,.49,2.92,.74c.95,.25,1.81,.38,2.59,.38,.64,0,1.18-.07,1.61-.22s.8-.35,1.1-.6c.16-.16,.31-.26,.46-.31,.15-.05,.28-.07,.4-.07,.32,0,.55,.1,.69,.31,.14,.21,.21,.41,.21,.62,0,.3-.1,.55-.29,.75-.2,.2-.44,.38-.74,.51-.53,.32-1.1,.56-1.71,.72-.62,.16-1.18,.24-1.68,.24-.69,0-1.4-.08-2.14-.24-.74-.16-1.49-.34-2.25-.53-.75-.19-1.49-.37-2.21-.53-.72-.16-1.4-.24-2.04-.24-.57,0-1.14,.06-1.72,.17-.57,.11-1.07,.23-1.51,.36-.43,.13-.77,.21-.99,.26-.32,.07-.62,.17-.89,.31-.27,.14-.49,.21-.65,.21-.28,0-.49-.1-.63-.29-.15-.2-.22-.4-.22-.6,0-.25,.07-.47,.22-.65,.15-.18,.37-.32,.67-.41,.78-.23,1.48-.43,2.09-.62s1.23-.33,1.85-.45c.62-.11,1.27-.17,1.96-.17Zm-5.63-8.72c-.3,0-.54-.09-.72-.28-.18-.18-.27-.41-.27-.69s.09-.5,.27-.69,.42-.28,.72-.28h12.59c.28,0,.51,.1,.7,.29s.29,.43,.29,.7-.1,.5-.29,.67-.43,.26-.7,.26h-12.59Zm2.98,10.57l-1.51-.62c.3-.14,.61-.42,.93-.84,.32-.42,.6-.96,.84-1.61,.24-.65,.36-1.39,.36-2.21s-.1-1.63-.29-2.44-.41-1.61-.65-2.44c-.24-.82-.45-1.68-.63-2.57-.18-.89-.28-1.84-.28-2.85,0-1.6,.3-3,.91-4.2,.6-1.2,1.47-2.13,2.61-2.8,1.13-.66,2.47-1,4-1,1.21,0,2.38,.2,3.52,.6,1.13,.4,2.04,1,2.73,1.8,.23,.21,.41,.41,.55,.6,.14,.19,.21,.38,.21,.57,0,.25-.12,.49-.36,.72-.24,.23-.5,.34-.77,.34-.14,0-.27-.02-.4-.07s-.23-.13-.33-.24c-.57-.71-1.3-1.27-2.18-1.7-.88-.42-1.87-.63-2.97-.63s-2.08,.26-2.88,.77c-.8,.51-1.42,1.22-1.85,2.13-.44,.9-.65,1.94-.65,3.1,0,.98,.1,1.93,.29,2.83,.19,.9,.41,1.77,.65,2.59,.24,.82,.45,1.62,.63,2.38,.18,.77,.28,1.52,.28,2.25,0,.85-.13,1.62-.4,2.33-.26,.71-.6,1.33-1.01,1.85-.41,.53-.86,.97-1.34,1.34Z"/></g><g><line class="f" x1="58.25" y1="83.49" x2="248.93" y2="83.49"/><line class="f" x1="53.26" y1="83.49" x2="44.24" y2="83.49"/><line class="f" x1="272.33" y1="83.49" x2="254.34" y2="83.49"/><line class="f" x1="277.31" y1="83.49" x2="284.31" y2="83.49"/></g><g><path class="k" d="M189.29,173.04v-22.14c0-9.4-8.44-17.09-24.2-17.09h-4.66c-15.09,0-24.2,7.69-24.2,17.09v22.14h53.06Z"/><circle class="k" cx="162.87" cy="122.36" r="11.06"/><line class="k" x1="147.05" y1="172.92" x2="147.05" y2="149.38"/><line class="k" x1="178.24" y1="149.38" x2="178.24" y2="172.72"/></g><rect class="l" x="123.86" y="46.46" width="77.16" height="47.63"/><rect class="d" x="120.29" y="39.42" width="84.14" height="7.03"/><rect class="p" x="146.33" y="53.51" width="20.72" height="3.52"/><rect class="p" x="146.33" y="60.51" width="33.42" height="3.52"/><rect class="p" x="146.33" y="67.46" width="29.2" height="3.52"/><rect class="q" x="146.3" y="75.88" width="35.15" height="1.7"/><rect class="q" x="146.3" y="79.67" width="27.1" height="1.7"/><rect class="q" x="146.3" y="83.46" width="30.98" height="1.7"/><g><circle class="o" cx="141.99" cy="54.92" r="3.27"/><polyline class="j" points="140.32 54.78 141.42 55.89 143.66 53.65"/></g><g><circle class="o" cx="141.99" cy="62.1" r="3.27"/><polyline class="j" points="140.32 61.96 141.42 63.07 143.66 60.83"/></g><g><circle class="o" cx="141.99" cy="69.19" r="3.27"/><polyline class="j" points="140.32 69.05 141.42 70.16 143.66 67.92"/></g><path class="e" d="M112.41,56.68h-11.31c-9.38,0-15.05,4.78-15.05,10.62v13.76c0,5.84,4.78,10.62,10.62,10.62h15.07"/><circle class="e" cx="102.62" cy="49.55" r="6.87"/><path class="e" d="M112.17,63.45v26.1l-1.33,22.28c0,1.36-1.12,2.48-2.48,2.48h-11.78c-1.36,0-2.48-1.12-2.48-2.48l-1.33-22.16v-23.82"/><line class="g" x1="102.18" y1="114.11" x2="102.18" y2="90.67"/><path class="e" d="M106.54,56.67h20.72c4.07,0,7.4,3.33,7.4,7.4h-23.05"/><g><path class="k" d="M232.95,165.36v-16.58c0-7.04-6.32-12.8-18.13-12.8h-3.49c-11.31,0-18.13,5.76-18.13,12.8v16.58h39.75Z"/><circle class="k" cx="213.16" cy="127.4" r="8.28"/><line class="k" x1="201.31" y1="165.27" x2="201.31" y2="147.64"/><line class="k" x1="224.67" y1="147.64" x2="224.67" y2="165.12"/></g><g><path class="k" d="M131.98,165.36v-16.58c0-7.04-6.32-12.8-18.13-12.8h-3.49c-11.31,0-18.13,5.76-18.13,12.8v16.58h39.75Z"/><circle class="k" cx="112.18" cy="127.4" r="8.28"/><line class="k" x1="100.33" y1="165.27" x2="100.33" y2="147.64"/><line class="k" x1="123.7" y1="147.64" x2="123.7" y2="165.12"/></g><g><circle class="p" cx="242.39" cy="103.77" r="13.93"/><path class="h" d="M240.64,109.17c.6,0,1.21,.08,1.84,.23s1.23,.3,1.83,.46c.59,.16,1.14,.24,1.62,.24,.4,0,.74-.05,1.01-.14s.5-.22,.69-.38c.1-.1,.2-.16,.29-.19,.09-.03,.18-.04,.25-.04,.2,0,.34,.07,.43,.19,.09,.13,.13,.26,.13,.39,0,.19-.06,.34-.18,.47-.12,.13-.28,.24-.46,.32-.33,.2-.69,.35-1.07,.45-.39,.1-.74,.15-1.05,.15-.43,0-.88-.05-1.34-.15-.46-.1-.93-.21-1.41-.33-.47-.12-.94-.23-1.39-.33-.45-.1-.88-.15-1.28-.15-.36,0-.72,.04-1.07,.11-.36,.07-.67,.15-.95,.23-.27,.08-.48,.13-.62,.16-.2,.04-.39,.11-.56,.19-.17,.09-.31,.13-.41,.13-.17,0-.3-.06-.4-.18-.09-.12-.14-.25-.14-.38,0-.16,.05-.29,.14-.41,.09-.11,.23-.2,.42-.26,.49-.14,.92-.27,1.31-.39s.77-.21,1.16-.28c.39-.07,.79-.11,1.22-.11Zm-3.52-5.46c-.19,0-.34-.06-.45-.17-.11-.11-.17-.26-.17-.43s.06-.31,.17-.43,.27-.17,.45-.17h7.89c.17,0,.32,.06,.44,.18s.18,.27,.18,.44-.06,.31-.18,.42-.27,.16-.44,.16h-7.89Zm1.87,6.62l-.95-.39c.19-.09,.38-.26,.58-.53,.2-.26,.38-.6,.53-1.01,.15-.41,.23-.87,.23-1.39s-.06-1.02-.18-1.53-.26-1.01-.41-1.53c-.15-.52-.28-1.05-.4-1.61-.11-.56-.17-1.15-.17-1.78,0-1,.19-1.88,.57-2.63,.38-.75,.92-1.34,1.63-1.75,.71-.42,1.54-.62,2.5-.62,.76,0,1.49,.13,2.2,.38,.71,.25,1.28,.63,1.71,1.13,.14,.13,.26,.25,.34,.38,.09,.12,.13,.24,.13,.35,0,.16-.08,.31-.23,.45-.15,.14-.31,.22-.48,.22-.09,0-.17-.01-.25-.04s-.15-.08-.2-.15c-.36-.44-.81-.8-1.36-1.06-.55-.26-1.17-.4-1.86-.4s-1.3,.16-1.8,.48c-.5,.32-.89,.77-1.16,1.33-.27,.57-.41,1.21-.41,1.94,0,.62,.06,1.21,.18,1.77,.12,.57,.26,1.11,.41,1.62,.15,.52,.28,1.01,.4,1.49,.11,.48,.17,.95,.17,1.41,0,.53-.08,1.02-.25,1.46s-.38,.83-.63,1.16c-.26,.33-.54,.61-.84,.84Z"/></g><g><circle class="o" cx="287.69" cy="118.35" r="10.82"/><path class="h" d="M286.34,122.55c.47,0,.94,.06,1.43,.17s.96,.24,1.42,.36c.46,.12,.88,.18,1.26,.18,.31,0,.57-.04,.78-.11s.39-.17,.53-.29c.08-.08,.15-.13,.22-.15,.07-.02,.14-.03,.19-.03,.16,0,.27,.05,.33,.15,.07,.1,.1,.2,.1,.3,0,.14-.05,.27-.14,.37-.1,.1-.21,.18-.36,.25-.26,.16-.53,.27-.83,.35-.3,.08-.57,.12-.82,.12-.33,0-.68-.04-1.04-.12-.36-.08-.73-.16-1.09-.26-.37-.09-.73-.18-1.08-.26-.35-.08-.68-.12-.99-.12-.28,0-.56,.03-.83,.08-.28,.06-.52,.11-.73,.17-.21,.06-.37,.1-.48,.13-.16,.03-.3,.08-.43,.15-.13,.07-.24,.1-.32,.1-.13,0-.24-.05-.31-.14-.07-.1-.11-.19-.11-.29,0-.12,.04-.23,.11-.32,.07-.09,.18-.16,.33-.2,.38-.11,.72-.21,1.02-.3s.6-.16,.9-.22c.3-.06,.62-.08,.95-.08Zm-2.74-4.24c-.14,0-.26-.04-.35-.13-.09-.09-.13-.2-.13-.33s.04-.24,.13-.33,.21-.13,.35-.13h6.12c.13,0,.25,.05,.34,.14s.14,.21,.14,.34-.05,.24-.14,.33-.21,.13-.34,.13h-6.12Zm1.45,5.14l-.73-.3c.14-.07,.3-.2,.45-.41,.16-.21,.29-.47,.41-.78,.12-.32,.18-.68,.18-1.08s-.05-.8-.14-1.18-.2-.78-.32-1.19c-.12-.4-.22-.82-.31-1.25-.09-.43-.13-.9-.13-1.39,0-.78,.15-1.46,.44-2.04,.29-.58,.72-1.04,1.27-1.36,.55-.32,1.2-.48,1.94-.48,.59,0,1.16,.1,1.71,.29,.55,.2,.99,.49,1.33,.88,.11,.1,.2,.2,.27,.29,.07,.09,.1,.19,.1,.28,0,.12-.06,.24-.17,.35-.12,.11-.24,.17-.38,.17-.07,0-.13-.01-.19-.03s-.11-.06-.16-.12c-.28-.34-.63-.62-1.06-.83-.43-.21-.91-.31-1.44-.31s-1.01,.13-1.4,.38c-.39,.25-.69,.6-.9,1.03-.21,.44-.32,.94-.32,1.51,0,.48,.05,.94,.14,1.38,.09,.44,.2,.86,.32,1.26,.12,.4,.22,.79,.31,1.16,.09,.37,.13,.74,.13,1.09,0,.41-.06,.79-.19,1.13s-.29,.65-.49,.9c-.2,.26-.42,.47-.65,.65Z"/></g><g><circle class="p" cx="67.96" cy="112.2" r="14.3"/><path class="h" d="M66.17,117.75c.62,0,1.25,.08,1.89,.23s1.26,.31,1.88,.47c.61,.16,1.17,.24,1.67,.24,.41,0,.76-.05,1.04-.14s.51-.22,.71-.39c.1-.1,.2-.17,.3-.2,.1-.03,.18-.04,.25-.04,.21,0,.35,.07,.44,.2,.09,.13,.13,.27,.13,.4,0,.19-.06,.35-.19,.49-.13,.13-.28,.24-.48,.33-.34,.21-.71,.36-1.1,.46-.4,.1-.76,.15-1.08,.15-.44,0-.9-.05-1.38-.15-.48-.1-.96-.22-1.44-.34-.49-.12-.96-.24-1.42-.34-.46-.1-.9-.15-1.31-.15-.37,0-.73,.04-1.1,.11-.37,.07-.69,.15-.97,.23-.28,.08-.49,.14-.64,.17-.21,.04-.4,.11-.57,.2-.18,.09-.32,.13-.42,.13-.18,0-.31-.06-.41-.19-.1-.13-.14-.25-.14-.39,0-.16,.05-.3,.14-.42,.1-.12,.24-.21,.43-.27,.5-.15,.95-.28,1.35-.4s.79-.21,1.19-.29c.4-.07,.82-.11,1.26-.11Zm-3.62-5.6c-.19,0-.35-.06-.46-.18-.12-.12-.18-.26-.18-.44s.06-.32,.18-.44,.27-.18,.46-.18h8.1c.18,0,.33,.06,.45,.19s.19,.28,.19,.45-.06,.32-.19,.43-.28,.17-.45,.17h-8.1Zm1.92,6.79l-.97-.4c.19-.09,.39-.27,.6-.54,.21-.27,.39-.62,.54-1.04,.16-.42,.23-.89,.23-1.42s-.06-1.05-.19-1.57-.26-1.04-.42-1.57c-.16-.53-.29-1.08-.41-1.65-.12-.57-.18-1.18-.18-1.83,0-1.03,.2-1.93,.59-2.7,.39-.77,.95-1.37,1.68-1.8,.73-.43,1.59-.64,2.57-.64,.78,0,1.53,.13,2.26,.39,.73,.26,1.31,.64,1.75,1.16,.15,.13,.26,.26,.35,.39,.09,.13,.13,.25,.13,.36,0,.16-.08,.32-.23,.46-.16,.15-.32,.22-.5,.22-.09,0-.17-.01-.25-.04s-.15-.08-.21-.15c-.37-.46-.83-.82-1.4-1.09-.57-.27-1.2-.41-1.91-.41s-1.34,.17-1.85,.5c-.52,.33-.91,.79-1.19,1.37-.28,.58-.42,1.25-.42,2,0,.63,.06,1.24,.19,1.82,.12,.58,.26,1.14,.42,1.67,.16,.53,.29,1.04,.41,1.53,.12,.49,.18,.98,.18,1.45,0,.54-.09,1.04-.25,1.5s-.39,.85-.65,1.19c-.26,.34-.55,.63-.86,.86Z"/></g><g><circle class="p" cx="282.8" cy="34.76" r="22.08"/><path class="h" d="M280.03,43.33c.95,0,1.92,.12,2.91,.36s1.95,.48,2.9,.73c.94,.25,1.8,.37,2.57,.37,.64,0,1.17-.07,1.6-.22s.79-.35,1.09-.6c.16-.16,.31-.26,.46-.31,.15-.05,.28-.07,.39-.07,.32,0,.54,.1,.68,.31,.14,.2,.2,.41,.2,.61,0,.29-.1,.54-.29,.75-.19,.2-.44,.37-.73,.51-.52,.32-1.09,.56-1.7,.72-.61,.16-1.17,.24-1.67,.24-.68,0-1.39-.08-2.13-.24-.74-.16-1.48-.33-2.23-.53-.75-.19-1.48-.37-2.2-.53-.72-.16-1.39-.24-2.03-.24-.57,0-1.13,.06-1.7,.17-.57,.11-1.07,.23-1.5,.36-.43,.13-.76,.21-.99,.26-.32,.07-.61,.17-.89,.31-.27,.14-.49,.2-.65,.2-.27,0-.48-.1-.63-.29-.15-.19-.22-.39-.22-.6,0-.25,.07-.47,.22-.65,.15-.18,.37-.32,.66-.41,.77-.23,1.47-.43,2.08-.61s1.23-.33,1.84-.44c.61-.11,1.26-.17,1.94-.17Zm-5.59-8.65c-.3,0-.53-.09-.72-.27-.18-.18-.27-.41-.27-.68s.09-.5,.27-.68,.42-.27,.72-.27h12.5c.27,0,.51,.1,.7,.29s.29,.43,.29,.7-.1,.49-.29,.66-.43,.26-.7,.26h-12.5Zm2.96,10.49l-1.5-.61c.3-.14,.6-.41,.92-.84,.32-.42,.6-.95,.83-1.6,.24-.65,.36-1.38,.36-2.2s-.1-1.62-.29-2.42-.41-1.6-.65-2.42c-.24-.82-.45-1.67-.63-2.55-.18-.89-.27-1.83-.27-2.83,0-1.59,.3-2.98,.9-4.17,.6-1.19,1.46-2.12,2.59-2.78,1.12-.66,2.45-.99,3.97-.99,1.2,0,2.37,.2,3.49,.6,1.12,.4,2.03,.99,2.71,1.79,.23,.2,.41,.4,.54,.6,.14,.19,.2,.38,.2,.56,0,.25-.12,.49-.36,.72-.24,.23-.5,.34-.77,.34-.14,0-.27-.02-.39-.07s-.23-.12-.32-.24c-.57-.7-1.29-1.27-2.16-1.69-.88-.42-1.86-.63-2.95-.63s-2.07,.26-2.86,.77c-.8,.51-1.41,1.22-1.84,2.11-.43,.9-.65,1.93-.65,3.08,0,.98,.1,1.91,.29,2.81,.19,.9,.41,1.75,.65,2.57,.24,.82,.45,1.61,.63,2.37,.18,.76,.27,1.51,.27,2.23,0,.84-.13,1.61-.39,2.32s-.6,1.32-1.01,1.84c-.41,.52-.85,.97-1.33,1.33Z"/></g><g><circle class="o" cx="222.12" cy="64.82" r="10.99"/><path class="h" d="M220.74,69.08c.47,0,.96,.06,1.45,.18s.97,.24,1.44,.36c.47,.12,.9,.19,1.28,.19,.32,0,.58-.04,.8-.11s.4-.17,.54-.3c.08-.08,.16-.13,.23-.15,.07-.02,.14-.03,.2-.03,.16,0,.27,.05,.34,.15,.07,.1,.1,.2,.1,.31,0,.15-.05,.27-.14,.37-.1,.1-.22,.19-.37,.25-.26,.16-.54,.28-.85,.36-.31,.08-.58,.12-.83,.12-.34,0-.69-.04-1.06-.12-.37-.08-.74-.17-1.11-.26-.37-.1-.74-.18-1.09-.26-.36-.08-.69-.12-1.01-.12-.28,0-.56,.03-.85,.08-.28,.06-.53,.12-.75,.18-.21,.06-.38,.1-.49,.13-.16,.03-.3,.08-.44,.15-.14,.07-.24,.1-.32,.1-.14,0-.24-.05-.31-.14-.07-.1-.11-.2-.11-.3,0-.12,.04-.23,.11-.32,.07-.09,.18-.16,.33-.2,.38-.11,.73-.21,1.03-.3s.61-.16,.92-.22c.3-.06,.63-.08,.97-.08Zm-2.78-4.31c-.15,0-.27-.05-.36-.14-.09-.09-.14-.2-.14-.34s.04-.25,.14-.34,.21-.14,.36-.14h6.22c.14,0,.25,.05,.35,.14s.14,.21,.14,.35-.05,.25-.14,.33-.21,.13-.35,.13h-6.22Zm1.47,5.22l-.75-.3c.15-.07,.3-.21,.46-.42,.16-.21,.3-.47,.41-.8,.12-.32,.18-.69,.18-1.09s-.05-.81-.14-1.2-.2-.8-.32-1.2c-.12-.41-.22-.83-.31-1.27-.09-.44-.14-.91-.14-1.41,0-.79,.15-1.48,.45-2.08,.3-.59,.73-1.05,1.29-1.38,.56-.33,1.22-.49,1.98-.49,.6,0,1.18,.1,1.74,.3,.56,.2,1.01,.49,1.35,.89,.11,.1,.2,.2,.27,.3,.07,.1,.1,.19,.1,.28,0,.12-.06,.24-.18,.36-.12,.11-.25,.17-.38,.17-.07,0-.13-.01-.2-.03s-.12-.06-.16-.12c-.28-.35-.64-.63-1.08-.84-.44-.21-.92-.31-1.47-.31s-1.03,.13-1.42,.38c-.4,.25-.7,.6-.92,1.05-.22,.45-.32,.96-.32,1.53,0,.49,.05,.95,.14,1.4,.1,.45,.2,.87,.32,1.28,.12,.41,.22,.8,.31,1.18,.09,.38,.14,.75,.14,1.11,0,.42-.07,.8-.2,1.15s-.3,.66-.5,.91c-.2,.26-.42,.48-.66,.66Z"/></g><g><circle class="m" cx="239" cy="33.45" r="10.36"/><path class="i" d="M237.7,37.47c.45,0,.9,.06,1.37,.17s.92,.23,1.36,.34c.44,.12,.84,.18,1.21,.18,.3,0,.55-.03,.75-.1s.37-.16,.51-.28c.07-.07,.15-.12,.22-.14,.07-.02,.13-.03,.18-.03,.15,0,.26,.05,.32,.14,.06,.1,.1,.19,.1,.29,0,.14-.05,.26-.14,.35-.09,.1-.21,.18-.34,.24-.24,.15-.51,.26-.8,.34-.29,.07-.55,.11-.78,.11-.32,0-.65-.04-1-.11-.35-.07-.69-.16-1.05-.25-.35-.09-.7-.17-1.03-.25-.34-.07-.65-.11-.95-.11-.27,0-.53,.03-.8,.08-.27,.05-.5,.11-.7,.17-.2,.06-.36,.1-.46,.12-.15,.03-.29,.08-.42,.14-.13,.06-.23,.1-.3,.1-.13,0-.23-.05-.3-.14-.07-.09-.1-.18-.1-.28,0-.12,.03-.22,.1-.3,.07-.09,.17-.15,.31-.19,.36-.11,.69-.2,.97-.29s.57-.15,.86-.21c.29-.05,.59-.08,.91-.08Zm-2.62-4.06c-.14,0-.25-.04-.34-.13-.09-.08-.13-.19-.13-.32s.04-.23,.13-.32,.2-.13,.34-.13h5.86c.13,0,.24,.05,.33,.14s.14,.2,.14,.33-.05,.23-.14,.31-.2,.12-.33,.12h-5.86Zm1.39,4.92l-.7-.29c.14-.06,.28-.19,.43-.39,.15-.2,.28-.45,.39-.75,.11-.3,.17-.65,.17-1.03s-.05-.76-.14-1.13-.19-.75-.3-1.13c-.11-.38-.21-.78-.3-1.2-.09-.42-.13-.86-.13-1.33,0-.75,.14-1.4,.42-1.96,.28-.56,.69-.99,1.21-1.3,.53-.31,1.15-.46,1.86-.46,.56,0,1.11,.09,1.64,.28,.53,.19,.95,.47,1.27,.84,.11,.1,.19,.19,.26,.28,.06,.09,.1,.18,.1,.26,0,.12-.06,.23-.17,.34-.11,.11-.23,.16-.36,.16-.06,0-.13-.01-.18-.03s-.11-.06-.15-.11c-.27-.33-.6-.59-1.01-.79-.41-.2-.87-.3-1.38-.3s-.97,.12-1.34,.36c-.37,.24-.66,.57-.86,.99-.2,.42-.3,.9-.3,1.45,0,.46,.05,.9,.14,1.32,.09,.42,.19,.82,.3,1.21,.11,.38,.21,.75,.3,1.11,.09,.36,.13,.71,.13,1.05,0,.39-.06,.76-.18,1.09s-.28,.62-.47,.86c-.19,.25-.4,.45-.62,.62Z"/></g><g><circle class="m" cx="32.33" cy="134.5" r="10.84"/><path class="i" d="M30.97,138.71c.47,0,.94,.06,1.43,.18s.96,.24,1.42,.36c.46,.12,.88,.18,1.26,.18,.31,0,.57-.04,.79-.11s.39-.17,.54-.29c.08-.08,.15-.13,.23-.15,.07-.02,.14-.03,.19-.03,.16,0,.27,.05,.33,.15,.07,.1,.1,.2,.1,.3,0,.14-.05,.27-.14,.37-.1,.1-.21,.18-.36,.25-.26,.16-.53,.27-.84,.35-.3,.08-.58,.12-.82,.12-.33,0-.68-.04-1.05-.12-.36-.08-.73-.16-1.1-.26-.37-.09-.73-.18-1.08-.26-.35-.08-.68-.12-1-.12-.28,0-.56,.03-.84,.08-.28,.06-.52,.11-.74,.18-.21,.06-.37,.1-.48,.13-.16,.03-.3,.08-.44,.15-.13,.07-.24,.1-.32,.1-.13,0-.24-.05-.31-.14-.07-.1-.11-.19-.11-.29,0-.12,.04-.23,.11-.32,.07-.09,.18-.16,.33-.2,.38-.11,.72-.21,1.02-.3s.6-.16,.9-.22c.3-.06,.62-.08,.95-.08Zm-2.74-4.25c-.15,0-.26-.04-.35-.13-.09-.09-.13-.2-.13-.33s.04-.25,.13-.33,.21-.13,.35-.13h6.14c.13,0,.25,.05,.34,.14s.14,.21,.14,.34-.05,.24-.14,.33-.21,.13-.34,.13h-6.14Zm1.45,5.15l-.74-.3c.15-.07,.3-.2,.45-.41,.16-.21,.29-.47,.41-.79,.12-.32,.18-.68,.18-1.08s-.05-.8-.14-1.19-.2-.79-.32-1.19c-.12-.4-.22-.82-.31-1.25-.09-.44-.13-.9-.13-1.39,0-.78,.15-1.46,.44-2.05,.29-.59,.72-1.04,1.27-1.36,.55-.32,1.2-.49,1.95-.49,.59,0,1.16,.1,1.71,.29,.55,.2,1,.49,1.33,.88,.11,.1,.2,.2,.27,.29,.07,.09,.1,.19,.1,.28,0,.12-.06,.24-.18,.35-.12,.11-.24,.17-.38,.17-.07,0-.13-.01-.19-.03s-.11-.06-.16-.12c-.28-.35-.63-.62-1.06-.83-.43-.21-.91-.31-1.45-.31s-1.02,.13-1.4,.38c-.39,.25-.69,.6-.9,1.04-.21,.44-.32,.95-.32,1.51,0,.48,.05,.94,.14,1.38,.09,.44,.2,.86,.32,1.26,.12,.4,.22,.79,.31,1.16,.09,.37,.13,.74,.13,1.1,0,.41-.06,.79-.19,1.14s-.29,.65-.49,.9c-.2,.26-.42,.47-.65,.65Z"/></g><g><circle class="m" cx="32.17" cy="68.1" r="7.02"/><path class="i" d="M31.29,70.82c.3,0,.61,.04,.93,.11s.62,.15,.92,.23c.3,.08,.57,.12,.82,.12,.2,0,.37-.02,.51-.07s.25-.11,.35-.19c.05-.05,.1-.08,.15-.1,.05-.01,.09-.02,.12-.02,.1,0,.17,.03,.22,.1,.04,.07,.07,.13,.07,.2,0,.09-.03,.17-.09,.24-.06,.06-.14,.12-.23,.16-.17,.1-.35,.18-.54,.23-.2,.05-.37,.08-.53,.08-.22,0-.44-.03-.68-.08-.23-.05-.47-.11-.71-.17-.24-.06-.47-.12-.7-.17-.23-.05-.44-.08-.64-.08-.18,0-.36,.02-.54,.05-.18,.04-.34,.07-.48,.11-.14,.04-.24,.07-.31,.08-.1,.02-.19,.05-.28,.1-.09,.04-.16,.07-.21,.07-.09,0-.15-.03-.2-.09-.05-.06-.07-.12-.07-.19,0-.08,.02-.15,.07-.21,.05-.06,.12-.1,.21-.13,.25-.07,.47-.14,.66-.19s.39-.1,.59-.14c.19-.04,.4-.05,.62-.05Zm-1.78-2.75c-.09,0-.17-.03-.23-.09-.06-.06-.09-.13-.09-.22s.03-.16,.09-.22,.13-.09,.23-.09h3.97c.09,0,.16,.03,.22,.09s.09,.14,.09,.22-.03,.16-.09,.21-.14,.08-.22,.08h-3.97Zm.94,3.34l-.48-.19c.09-.04,.19-.13,.29-.27,.1-.13,.19-.3,.26-.51,.08-.21,.11-.44,.11-.7s-.03-.52-.09-.77-.13-.51-.21-.77c-.08-.26-.14-.53-.2-.81-.06-.28-.09-.58-.09-.9,0-.51,.1-.95,.29-1.33,.19-.38,.47-.67,.82-.88,.36-.21,.78-.31,1.26-.31,.38,0,.75,.06,1.11,.19,.36,.13,.64,.32,.86,.57,.07,.07,.13,.13,.17,.19,.04,.06,.07,.12,.07,.18,0,.08-.04,.16-.11,.23-.08,.07-.16,.11-.24,.11-.04,0-.09,0-.12-.02s-.07-.04-.1-.08c-.18-.22-.41-.4-.69-.54-.28-.13-.59-.2-.94-.2s-.66,.08-.91,.24c-.25,.16-.45,.39-.59,.67-.14,.29-.21,.61-.21,.98,0,.31,.03,.61,.09,.89,.06,.29,.13,.56,.21,.82,.08,.26,.14,.51,.2,.75,.06,.24,.09,.48,.09,.71,0,.27-.04,.51-.12,.74s-.19,.42-.32,.58c-.13,.17-.27,.31-.42,.42Z"/></g><g><circle class="m" cx="256.03" cy="135.09" r="7.02"/><path class="i" d="M255.15,137.81c.3,0,.61,.04,.93,.11s.62,.15,.92,.23c.3,.08,.57,.12,.82,.12,.2,0,.37-.02,.51-.07s.25-.11,.35-.19c.05-.05,.1-.08,.15-.1,.05-.01,.09-.02,.12-.02,.1,0,.17,.03,.22,.1,.04,.07,.07,.13,.07,.2,0,.09-.03,.17-.09,.24-.06,.06-.14,.12-.23,.16-.17,.1-.35,.18-.54,.23-.2,.05-.37,.08-.53,.08-.22,0-.44-.03-.68-.08-.23-.05-.47-.11-.71-.17-.24-.06-.47-.12-.7-.17-.23-.05-.44-.08-.64-.08-.18,0-.36,.02-.54,.05-.18,.04-.34,.07-.48,.11-.14,.04-.24,.07-.31,.08-.1,.02-.19,.05-.28,.1-.09,.04-.16,.07-.21,.07-.09,0-.15-.03-.2-.09-.05-.06-.07-.12-.07-.19,0-.08,.02-.15,.07-.21,.05-.06,.12-.1,.21-.13,.25-.07,.47-.14,.66-.19s.39-.1,.59-.14c.19-.04,.4-.05,.62-.05Zm-1.78-2.75c-.09,0-.17-.03-.23-.09-.06-.06-.09-.13-.09-.22s.03-.16,.09-.22,.13-.09,.23-.09h3.97c.09,0,.16,.03,.22,.09s.09,.14,.09,.22-.03,.16-.09,.21-.14,.08-.22,.08h-3.97Zm.94,3.34l-.48-.19c.09-.04,.19-.13,.29-.27,.1-.13,.19-.3,.26-.51,.08-.21,.11-.44,.11-.7s-.03-.52-.09-.77-.13-.51-.21-.77c-.08-.26-.14-.53-.2-.81-.06-.28-.09-.58-.09-.9,0-.51,.1-.95,.29-1.33,.19-.38,.47-.67,.82-.88,.36-.21,.78-.31,1.26-.31,.38,0,.75,.06,1.11,.19,.36,.13,.64,.32,.86,.57,.07,.07,.13,.13,.17,.19,.04,.06,.07,.12,.07,.18,0,.08-.04,.16-.11,.23-.08,.07-.16,.11-.24,.11-.04,0-.09,0-.12-.02s-.07-.04-.1-.08c-.18-.22-.41-.4-.69-.54-.28-.13-.59-.2-.94-.2s-.66,.08-.91,.24c-.25,.16-.45,.39-.59,.67-.14,.29-.21,.61-.21,.98,0,.31,.03,.61,.09,.89,.06,.29,.13,.56,.21,.82,.08,.26,.14,.51,.2,.75,.06,.24,.09,.48,.09,.71,0,.27-.04,.51-.12,.74s-.19,.42-.32,.58c-.13,.17-.27,.31-.42,.42Z"/></g></g></g></svg>