<?xml version="1.0" encoding="UTF-8"?>
<svg width="24px" height="24px" viewBox="0 0 24 24" version="1.1" xmlns="http://www.w3.org/2000/svg" xmlns:xlink="http://www.w3.org/1999/xlink">
    <title>Glyphs/Bin</title>
    <g id="Add-a-training-course---MVP-UR-4" stroke="none" stroke-width="1" fill="none" fill-rule="evenodd">
        <g id="Glyphs/Bin" fill="#005EA5" fill-rule="nonzero">
            <path d="M12.9662824,22.2000863 C12.9257496,22.099976 12.9118242,22.0150549 12.9255009,21.9462435 C12.9391777,21.8778923 12.8919308,21.8212782 12.7837603,21.777782 C12.6755898,21.7342859 12.6216289,21.6995349 12.6216289,21.67468 C12.6216289,21.649825 12.5440446,21.6309536 12.3886273,21.6185262 C12.2332099,21.6058685 12.1556256,21.5996548 12.1556256,21.5996548 L11.8922864,21.5996548 L11.6694801,21.5996548 L5.83474006,21.5996548 C4.94326618,21.5996548 4.18010486,21.3062281 3.5452561,20.7184542 C2.91040733,20.1309105 2.59310729,19.4248454 2.59310729,18.6000288 L2.59310729,5.39974109 C2.59310729,4.57469435 2.91040733,3.86862924 3.5452561,3.28108549 C4.18010486,2.69354174 4.94326618,2.39965479 5.83474006,2.39965479 L12.3177569,2.39965479 C12.4933164,2.39965479 12.6315756,2.35938054 12.7330321,2.27791149 C12.8342399,2.19667258 12.9016288,2.07469914 12.9354476,1.91222132 C12.9692665,1.74974349 12.9896572,1.60291509 12.9963712,1.47173611 C13.0030853,1.34055713 12.9998526,1.17485736 12.9861759,0.974866951 C12.9727478,0.77487654 12.9660338,0.649911301 12.9660338,0.599741094 C12.9660338,0.437263269 12.9018775,0.296878746 12.7735649,0.177897109 C12.6452524,0.0593757491 12.4933164,0 12.3177569,0 L5.83474006,0 C4.2276004,0 2.85321375,0.528168001 1.71182878,1.58427386 C0.570692484,2.64060987 0,3.91235556 0,5.39997123 L0,18.5997986 C0,20.0871842 0.570692484,21.35916 1.71182878,22.4152659 C2.85321375,23.471832 4.2276004,24 5.83474006,24 L12.3180056,24 C12.493565,24 12.6318243,23.9592655 12.7332808,23.8782567 C12.8344885,23.7967876 12.9018775,23.6750443 12.9356963,23.5123364 C12.9695151,23.3500887 12.9899059,23.2028 12.9966199,23.0718512 C13.0033339,22.9406722 13,22.7752026 12.9864245,22.5752122 C12.9729965,22.3752217 12.9662824,22.2502565 12.9662824,22.2000863 Z" id="Path"></path>
            <path d="M21.7271964,11.407871 L13.9165189,4.24999748 C13.7348261,4.08349399 13.5192972,4 13.2704608,4 C13.0216244,4 12.8060955,4.08349399 12.6242264,4.24999748 C12.4423573,4.41666246 12.3514228,4.61417339 12.3514228,4.84220726 L12.3514228,8.6315747 L5.91903799,8.6315747 C5.6700254,8.6315747 5.45467268,8.71506869 5.27280361,8.88157217 C5.09093454,9.04823716 5,9.24574808 5,9.47378196 L5,14.5263795 C5,14.7544134 5.09093454,14.9519243 5.27280361,15.1184278 C5.45484891,15.2849313 5.67020163,15.3685868 5.91903799,15.3685868 L12.3514228,15.3685868 L12.3514228,19.1579542 C12.3514228,19.3858266 12.4423573,19.583499 12.6242264,19.7500025 C12.8060955,19.9166675 13.0216244,20 13.2704608,20 C13.5192972,20 13.7348261,19.9166675 13.9165189,19.7500025 L21.7271964,12.5922905 C21.9090655,12.4256255 22,12.2282761 22,12.0002422 C22,11.7722084 21.9090655,11.5745359 21.7271964,11.407871 Z" id="Path"></path>
        </g>
    </g>
</svg>