<?xml version="1.0" encoding="utf-8"?>
<!-- Generator: Adobe Illustrator 26.1.0, SVG Export Plug-In . SVG Version: 6.00 Build 0)  -->
<svg version="1.1" id="Layer_1" xmlns="http://www.w3.org/2000/svg" xmlns:xlink="http://www.w3.org/1999/xlink" x="0px" y="0px"
	 viewBox="0 0 380 212" style="enable-background:new 0 0 380 212;" xml:space="preserve">
<style type="text/css">
	.st0{fill-rule:evenodd;clip-rule:evenodd;fill:#F3F2F1;}
	.st1{fill-rule:evenodd;clip-rule:evenodd;fill:#3C3C3B;}
	.st2{fill-rule:evenodd;clip-rule:evenodd;fill:#FFFFFF;}
	.st3{fill:none;stroke:#3C3C3B;stroke-width:1.25;}
	.st4{fill-rule:evenodd;clip-rule:evenodd;fill:#C6C6C5;}
	.st5{fill-rule:evenodd;clip-rule:evenodd;fill:#86C4EA;}
	.st6{fill-rule:evenodd;clip-rule:evenodd;fill:#F76C06;}
	.st7{fill-rule:evenodd;clip-rule:evenodd;fill:#1D70B8;}
	.st8{fill-rule:evenodd;clip-rule:evenodd;fill:#ECECEC;}
	.st9{fill-rule:evenodd;clip-rule:evenodd;fill:#F7BB92;}
	.st10{fill:none;stroke:#3C3C3B;}
	.st11{fill-rule:evenodd;clip-rule:evenodd;fill:#00703C;}
	.st12{fill:none;stroke:#FFFFFF;stroke-width:2;}
	.st13{fill-rule:evenodd;clip-rule:evenodd;fill:#F5F5F5;}
	.st14{fill:none;stroke:#C6C6C5;stroke-width:1.25;}
	.st15{fill:#F76C06;stroke:#3C3C3B;stroke-miterlimit:10;}
	.st16{fill:#C6C6C5;stroke:#3C3C3B;stroke-miterlimit:10;}
	.st17{fill:#86C4EA;stroke:#3C3C3B;stroke-miterlimit:10;}
	.st18{fill:#1D70B8;}
	.st19{fill:none;stroke:#3C3C3B;stroke-miterlimit:10;}
	.st20{fill:none;stroke:#1D70B8;stroke-width:1.25;stroke-miterlimit:10;}
	.st21{fill:#FFFFFF;stroke:#3C3C3B;stroke-miterlimit:10;}
	.st22{fill:none;stroke:#3C3C3B;stroke-width:2;stroke-miterlimit:10;}
	.st23{fill:#C6C6C5;stroke:#3C3C3B;stroke-linejoin:round;stroke-miterlimit:10;}
	.st24{fill:none;stroke:#C6C6C5;stroke-width:1.25;stroke-miterlimit:10;}
	.st25{fill:#C6C6C5;}
	.st26{fill:#F3F2F1;stroke:#C6C6C5;stroke-width:1.25;stroke-miterlimit:9.9999;}
</style>
<g id="Group-91">
	<polygon id="Fill-1" class="st0" points="0,212 380,212 380,0 0,0 	"/>
	<g id="Group-90">
		<path id="Fill-2" class="st1" d="M91.1,168.4l0.8,1.7c-0.7-0.2-1.4-0.3-1.9-0.3c-1.9,0-3.5,0.8-4.9,2.5c-1.4,1.6-2.5,4.2-3.5,7.8
			h3.8v1.7h-4.3l-2.4,9c1.7-0.2,2.9-0.2,3.7-0.2c1,0,2.2,0.1,3.5,0.4c1.3,0.2,2.2,0.4,2.7,0.4c1.2,0,2.4-0.3,3.5-1v1.9
			c-1,0.5-2.2,0.8-3.4,0.8c-0.4,0-1.4-0.1-2.9-0.4c-1.5-0.2-2.8-0.4-3.8-0.4c-1.6,0-3.4,0.2-5.6,0.6l3-11.1h-3v-1.7h3.4
			c2.2-8,5.4-11.9,9.5-11.9C89.9,168.1,90.5,168.2,91.1,168.4"/>
		<path id="Fill-4" class="st1" d="M325.9,116.8c1.5,0,2.7-0.5,3.8-1.6c1.1-1.1,1.6-2.3,1.6-3.8s-0.5-2.7-1.6-3.8
			c-1.1-1.1-2.3-1.6-3.8-1.6s-2.7,0.5-3.8,1.6c-1.1,1.1-1.6,2.3-1.6,3.8s0.5,2.8,1.6,3.8C323.2,116.2,324.5,116.8,325.9,116.8
			L325.9,116.8z M325.9,104c2,0,3.7,0.7,5.2,2.2c1.5,1.4,2.2,3.2,2.2,5.2s-0.7,3.8-2.2,5.2c-1.5,1.5-3.2,2.2-5.2,2.2
			s-3.8-0.7-5.2-2.2c-1.4-1.4-2.2-3.2-2.2-5.2s0.7-3.8,2.2-5.2C322.2,104.7,323.9,104,325.9,104L325.9,104z M310.5,99.3
			c1.5,0,2.7-0.5,3.8-1.6c1.1-1.1,1.6-2.3,1.6-3.8s-0.5-2.8-1.6-3.8c-1.1-1.1-2.3-1.6-3.8-1.6s-2.7,0.5-3.8,1.6
			c-1.1,1.1-1.6,2.3-1.6,3.8s0.5,2.8,1.6,3.8C307.7,98.8,309,99.3,310.5,99.3L310.5,99.3z M331.8,86.7l-25.1,32.1h-2.3l25.2-32.1
			H331.8z M310.5,86.5c2,0,3.7,0.7,5.2,2.2c1.4,1.4,2.2,3.2,2.2,5.2s-0.7,3.7-2.2,5.2c-1.4,1.4-3.2,2.2-5.2,2.2s-3.8-0.7-5.2-2.2
			c-1.4-1.4-2.2-3.2-2.2-5.2s0.7-3.8,2.2-5.2C306.7,87.2,308.4,86.5,310.5,86.5L310.5,86.5z"/>
		<path id="Fill-6" class="st2" d="M116.7,112c0,23.2-18.8,42-42,42s-42-18.8-42-42s18.8-42,42-42C97.8,70,116.7,88.8,116.7,112"/>
		<path id="Stroke-8" class="st3" d="M116.7,112c0,23.2-18.8,42-42,42s-42-18.8-42-42s18.8-42,42-42C97.8,70,116.7,88.8,116.7,112z"
			/>
		<g id="Group-13" transform="translate(32.615856, 89.485706)">
			<path id="Fill-10" class="st4" d="M42,22.4L6.5,0C2.4,6.5,0,14.2,0,22.5c0,18.6,12.1,34.4,28.9,39.9L42,22.4"/>
			<path id="Stroke-12" class="st3" d="M42,22.4L6.5,0C2.4,6.5,0,14.2,0,22.5c0,18.6,12.1,34.4,28.9,39.9L42,22.4"/>
		</g>
		<path id="Fill-14" class="st5" d="M115.8,120.5c0.6-2.7,0.9-5.6,0.9-8.5c0-23.2-18.8-42-42-42c-14.9,0-28,7.8-35.5,19.5L74.7,112
			L115.8,120.5z"/>
		<path id="Stroke-16" class="st3" d="M115.8,120.5c0.6-2.7,0.9-5.6,0.9-8.5c0-23.2-18.8-42-42-42c-14.9,0-28,7.8-35.5,19.5
			L74.7,112L115.8,120.5z"/>
		<g id="Group-21" transform="translate(39.213138, 69.961663)">
			<path id="Fill-18" class="st6" d="M35.4,0C20.5,0,7.5,7.7,0,19.4l35.5,22.5L35.4,0"/>
			<path id="Stroke-20" class="st3" d="M35.4,0C20.5,0,7.5,7.7,0,19.4l35.5,22.5L35.4,0"/>
		</g>
		<polygon id="Fill-22" class="st4" points="219.6,184.9 167,184.9 172.2,166.5 214.4,166.5 		"/>
		<polygon id="Stroke-24" class="st3" points="219.6,184.9 167,184.9 172.2,166.5 214.4,166.5 		"/>
		<path id="Fill-26" class="st4" d="M279.5,167.2H107.3c-1.8,0-3.3-1.5-3.3-3.3V60.1c0-1.8,1.5-3.3,3.3-3.3h172.2
			c1.8,0,3.3,1.5,3.3,3.3v103.8C282.7,165.7,281.3,167.2,279.5,167.2"/>
		<path id="Stroke-28" class="st3" d="M279.5,167.2H107.3c-1.8,0-3.3-1.5-3.3-3.3V60.1c0-1.8,1.5-3.3,3.3-3.3h172.2
			c1.8,0,3.3,1.5,3.3,3.3v103.8C282.7,165.7,281.3,167.2,279.5,167.2z"/>
		<g id="Clip-31">
		</g>
		<polygon id="Fill-30" class="st2" points="109.9,160.9 276.9,160.9 276.9,62.9 109.9,62.9 		"/>
		<polygon id="Stroke-32" class="st3" points="109.9,160.9 276.9,160.9 276.9,62.9 109.9,62.9 		"/>
		<polygon id="Fill-33" class="st7" points="110.5,80.4 276.2,80.4 276.2,63.3 110.5,63.3 		"/>
		<polygon id="Fill-34" class="st8" points="134.3,151.4 252.6,151.4 252.6,88.7 134.3,88.7 		"/>
		<polygon id="Stroke-35" class="st3" points="134.3,151.4 252.6,151.4 252.6,88.7 134.3,88.7 		"/>
		<polygon id="Fill-36" class="st6" points="155.1,122.7 134.3,139.7 134.3,151 157.8,151.1 158.3,121.8 		"/>
		<polygon id="Fill-37" class="st6" points="202.2,109.6 181.6,131.3 181.6,151.5 205,151.6 205.6,112 		"/>
		<polygon id="Fill-38" class="st6" points="249.5,99.4 228.9,115.4 228.9,150.9 252.4,151 252.9,101.9 		"/>
		<polygon id="Fill-39" class="st9" points="209.7,108.2 205.5,110.4 205.8,151 229.3,151.1 229.1,113.9 		"/>
		<polygon id="Fill-40" class="st9" points="161.9,121.5 157.6,120.4 158,151.3 181.4,151.4 181.2,131 		"/>
		<polyline id="Stroke-41" class="st10" points="134.6,139.1 134.3,151.4 158.1,151.1 158.1,118 		"/>
		<line id="Stroke-42" class="st3" x1="181.7" y1="129" x2="181.7" y2="151.1"/>
		<line id="Stroke-43" class="st3" x1="205.3" y1="105.8" x2="205.3" y2="151.1"/>
		<line id="Stroke-44" class="st3" x1="228.9" y1="112.5" x2="228.9" y2="151.1"/>
		<polyline id="Stroke-45" class="st3" points="134.6,139.1 158.2,120 181.6,131.1 205,106.9 229.5,114.2 252.4,97.3 		"/>
		<polygon id="Stroke-46" class="st10" points="134.3,151.4 252.6,151.4 252.6,88.7 134.3,88.7 		"/>
		<path id="Fill-47" class="st5" d="M163.1,120.7c0,2.8-2.3,5.1-5.1,5.1s-5.1-2.3-5.1-5.1s2.3-5.1,5.1-5.1S163.1,117.8,163.1,120.7"
			/>
		<path id="Stroke-48" class="st3" d="M163.1,120.7c0,2.8-2.3,5.1-5.1,5.1s-5.1-2.3-5.1-5.1s2.3-5.1,5.1-5.1
			S163.1,117.8,163.1,120.7z"/>
		<path id="Fill-49" class="st5" d="M139.7,139.1c0,2.8-2.3,5.1-5.1,5.1s-5.1-2.3-5.1-5.1s2.3-5.1,5.1-5.1S139.7,136.3,139.7,139.1"
			/>
		<path id="Stroke-50" class="st3" d="M139.7,139.1c0,2.8-2.3,5.1-5.1,5.1s-5.1-2.3-5.1-5.1s2.3-5.1,5.1-5.1
			S139.7,136.3,139.7,139.1z"/>
		<path id="Fill-51" class="st5" d="M186.7,131.1c0,2.8-2.3,5.1-5.1,5.1s-5.1-2.3-5.1-5.1s2.3-5.1,5.1-5.1
			C184.4,126,186.7,128.3,186.7,131.1"/>
		<path id="Stroke-52" class="st3" d="M186.7,131.1c0,2.8-2.3,5.1-5.1,5.1s-5.1-2.3-5.1-5.1s2.3-5.1,5.1-5.1
			C184.4,126,186.7,128.3,186.7,131.1z"/>
		<path id="Fill-53" class="st5" d="M210.2,106.9c0,2.8-2.3,5.1-5.1,5.1s-5.1-2.3-5.1-5.1c0-2.8,2.3-5.1,5.1-5.1
			S210.2,104.1,210.2,106.9"/>
		<path id="Stroke-54" class="st3" d="M210.2,106.9c0,2.8-2.3,5.1-5.1,5.1s-5.1-2.3-5.1-5.1c0-2.8,2.3-5.1,5.1-5.1
			S210.2,104.1,210.2,106.9z"/>
		<path id="Fill-55" class="st5" d="M234.6,114.2c0,2.8-2.3,5.1-5.1,5.1s-5.1-2.3-5.1-5.1c0-2.8,2.3-5.1,5.1-5.1
			S234.6,111.4,234.6,114.2"/>
		<path id="Stroke-56" class="st3" d="M234.6,114.2c0,2.8-2.3,5.1-5.1,5.1s-5.1-2.3-5.1-5.1c0-2.8,2.3-5.1,5.1-5.1
			S234.6,111.4,234.6,114.2z"/>
		<path id="Fill-57" class="st5" d="M257.5,97.3c0,2.8-2.3,5.1-5.1,5.1s-5.1-2.3-5.1-5.1s2.3-5.1,5.1-5.1
			C255.2,92.2,257.5,94.5,257.5,97.3"/>
		<path id="Stroke-58" class="st3" d="M257.5,97.3c0,2.8-2.3,5.1-5.1,5.1s-5.1-2.3-5.1-5.1s2.3-5.1,5.1-5.1
			C255.2,92.2,257.5,94.5,257.5,97.3z"/>
		<line id="Stroke-59" class="st3" x1="141.9" y1="96.3" x2="176.7" y2="96.3"/>
		<line id="Stroke-60" class="st3" x1="141.9" y1="101" x2="166.1" y2="101"/>
		<line id="Stroke-61" class="st3" x1="141.9" y1="105.7" x2="169.9" y2="105.7"/>
		<polygon id="Fill-62" class="st2" points="124.7,77.1 145.2,77.1 145.2,72.4 124.7,72.4 		"/>
		<polygon id="Fill-63" class="st2" points="148.3,77.1 168.9,77.1 168.9,72.4 148.3,72.4 		"/>
		<polygon id="Fill-64" class="st2" points="172,77.1 192.5,77.1 192.5,72.4 172,72.4 		"/>
		<polygon id="Fill-65" class="st2" points="195.6,77.1 216.1,77.1 216.1,72.4 195.6,72.4 		"/>
		<polygon id="Fill-66" class="st4" points="153.5,191.9 233,191.9 233,184.4 153.5,184.4 		"/>
		<polygon id="Stroke-67" class="st3" points="153.5,191.9 233,191.9 233,184.4 153.5,184.4 		"/>
		<path id="Fill-68" class="st11" d="M42,158.7c0,5.6-4.6,10.2-10.2,10.2s-10.2-4.6-10.2-10.2c0-5.6,4.6-10.2,10.2-10.2
			S42,153,42,158.7"/>
		<path id="Stroke-69" class="st3" d="M42,158.7c0,5.6-4.6,10.2-10.2,10.2s-10.2-4.6-10.2-10.2c0-5.6,4.6-10.2,10.2-10.2
			S42,153,42,158.7z"/>
		<polyline id="Stroke-70" class="st12" points="26.8,158.7 30.4,162.2 37.7,155 		"/>
		<polygon id="Fill-71" class="st5" points="337.4,192 348.1,192 348.1,131.6 337.4,131.6 		"/>
		<polygon id="Stroke-72" class="st3" points="337.4,192 348.1,192 348.1,131.6 337.4,131.6 		"/>
		<polygon id="Fill-73" class="st4" points="320.9,192 331.6,192 331.6,163.1 320.9,163.1 		"/>
		<polygon id="Stroke-74" class="st3" points="320.9,192 331.6,192 331.6,163.1 320.9,163.1 		"/>
		<polygon id="Fill-75" class="st6" points="304.3,192 315,192 315,148.1 304.3,148.1 		"/>
		<polygon id="Stroke-76" class="st3" points="304.3,192 315,192 315,148.1 304.3,148.1 		"/>
		<line id="Stroke-77" class="st3" x1="297.6" y1="192.1" x2="353.9" y2="192.1"/>
		<path id="Fill-78" class="st13" d="M316.3,54.1c-1.1,2.7-4.2,4-7,2.9c-2.7-1.1-4-4.2-2.9-7c1.1-2.7,4.2-4,7-2.9
			C316.2,48.3,317.5,51.4,316.3,54.1"/>
		<path id="Stroke-79" class="st14" d="M316.3,54.1c-1.1,2.7-4.2,4-7,2.9c-2.7-1.1-4-4.2-2.9-7c1.1-2.7,4.2-4,7-2.9
			C316.2,48.3,317.5,51.4,316.3,54.1z"/>
		<path id="Fill-80" class="st13" d="M60.1,178.8c0,2.5-2.1,4.6-4.6,4.6s-4.6-2.1-4.6-4.6s2.1-4.6,4.6-4.6
			C58.1,174.2,60.1,176.3,60.1,178.8"/>
		<path id="Stroke-81" class="st14" d="M60.1,178.8c0,2.5-2.1,4.6-4.6,4.6s-4.6-2.1-4.6-4.6s2.1-4.6,4.6-4.6
			C58.1,174.2,60.1,176.3,60.1,178.8z"/>
		<polygon id="Fill-82" class="st13" points="350.5,63.8 353.5,61.4 354.4,65.1 358.2,64.9 356.8,68.4 360,70.4 356.8,72.5 
			358.2,76 354.4,75.8 353.5,79.4 350.5,77 347.6,79.4 346.6,75.8 342.9,76 344.2,72.5 341.1,70.4 344.2,68.4 342.9,64.9 
			346.6,65.1 347.6,61.4 		"/>
		<polygon id="Stroke-83" class="st14" points="350.5,63.8 353.5,61.4 354.4,65.1 358.2,64.9 356.8,68.4 360,70.4 356.8,72.5 
			358.2,76 354.4,75.8 353.5,79.4 350.5,77 347.6,79.4 346.6,75.8 342.9,76 344.2,72.5 341.1,70.4 344.2,68.4 342.9,64.9 
			346.6,65.1 347.6,61.4 		"/>
		<path id="Stroke-84" class="st14" d="M84,55.2c-4.4,4.4-11.6,4.4-16,0c-3.5-3.5-3.5-9.3,0-12.8c2.8-2.8,7.4-2.8,10.3,0
			c2.3,2.3,2.3,5.9,0,8.2c-1.8,1.8-4.8,1.8-6.6,0c-1.4-1.5-1.4-3.8,0-5.3c1.2-1.2,3-1.2,4.2,0c0.9,0.9,0.9,2.4,0,3.4
			c-0.7,0.7-1.9,0.7-2.7,0c-0.6-0.6-0.6-1.6,0-2.2"/>
		<line id="Stroke-85" class="st14" x1="48" y1="61.2" x2="32.6" y2="61.2"/>
		<polyline id="Stroke-86" class="st14" points="44.5,56.8 48.8,61.1 44.3,65.7 		"/>
		<line id="Stroke-87" class="st14" x1="26.1" y1="61.2" x2="31.5" y2="61.2"/>
		<line id="Stroke-88" class="st14" x1="24.9" y1="61.2" x2="22.3" y2="61.2"/>
		<path id="Stroke-89" class="st14" d="M245.5,29.4c8.1,0,8.2,9.7,16.4,9.7c8.1,0,8.2-9.7,16.5-9.7c8.2,0,8.2,9.7,16.3,9.7
			s8.2-9.7,16.4-9.7s8.2,9.9,16.4,9.9"/>
		<path id="Fill-68_00000004519868386984259420000005076855950658253725_" class="st11" d="M205.7,37.4c0,6.4-5.3,11.7-11.7,11.7
			c-6.4,0-11.7-5.3-11.7-11.7c0-6.4,5.3-11.7,11.7-11.7C200.4,25.7,205.7,30.9,205.7,37.4"/>
		<path id="Stroke-69_00000023245269713824552790000007694682053816225963_" class="st3" d="M205.7,37.4c0,6.4-5.3,11.7-11.7,11.7
			c-6.4,0-11.7-5.3-11.7-11.7c0-6.4,5.3-11.7,11.7-11.7C200.4,25.7,205.7,30.9,205.7,37.4z"/>
		<polyline id="Stroke-70_00000076599225710338040280000002069877741421272970_" class="st12" points="188.2,37.4 192.4,41.4 
			200.7,33.2 		"/>
	</g>
</g>
<rect x="1227.2" y="1643.7" class="st0" width="329.2" height="183.6"/>
<polygon class="st15" points="1365.7,1716.8 1413.7,1694.6 1413.7,1772.7 1365.7,1750.6 "/>
<rect x="1328.1" y="1719.9" class="st16" width="21.7" height="27.7"/>
<rect x="1333.5" y="1716.9" class="st17" width="32.4" height="33.7"/>
<rect x="1334.3" y="1717.6" class="st18" width="30.9" height="15.5"/>
<rect x="1413.6" y="1692.3" class="st17" width="4.4" height="83.8"/>
<rect x="1414.3" y="1693.1" class="st18" width="2.9" height="39.8"/>
<line class="st19" x1="1372.7" y1="1733.4" x2="1405.1" y2="1733.4"/>
<line class="st19" x1="1372.7" y1="1724.5" x2="1405.1" y2="1717.1"/>
<line class="st19" x1="1372.7" y1="1742.3" x2="1405.1" y2="1749.7"/>
<polygon class="st16" points="1354.8,1750.8 1344,1750.8 1351.6,1778.5 1362.5,1778.5 "/>
<g>
	<line class="st20" x1="1458.8" y1="1732.8" x2="1431.6" y2="1732.8"/>
	<polyline class="st20" points="1449.5,1723.3 1458.9,1732.7 1449.2,1742.4 	"/>
</g>
<g>
	<line class="st20" x1="1451" y1="1705.5" x2="1424.5" y2="1711.4"/>
	<polyline class="st20" points="1440,1698.2 1451.2,1705.4 1443.8,1717 	"/>
</g>
<g>
	<line class="st20" x1="1450.2" y1="1759.8" x2="1423.7" y2="1753.9"/>
	<polyline class="st20" points="1443.3,1748.5 1450.4,1759.8 1438.7,1767.2 	"/>
</g>
<g>
	<polygon class="st16" points="1266.6,1702.1 1301.8,1702.1 1301.8,1725.5 1281.6,1725.5 1272.8,1732.6 1272.7,1725.5 
		1266.6,1725.5 	"/>
	<polygon class="st21" points="1318.1,1688.2 1275.6,1688.2 1275.6,1716.4 1300,1716.4 1310.7,1724.9 1310.7,1716.4 1318.1,1716.4 	
		"/>
	<line class="st19" x1="1283.5" y1="1697.3" x2="1309.8" y2="1697.3"/>
	<line class="st19" x1="1283.5" y1="1702.3" x2="1309.8" y2="1702.3"/>
	<line class="st19" x1="1283.5" y1="1707.3" x2="1302.2" y2="1707.3"/>
</g>
<g>
	<polygon class="st16" points="1289.2,1775 1313.6,1775 1313.6,1791.2 1299.6,1791.2 1293.5,1796.1 1293.5,1791.2 1289.2,1791.2 	
		"/>
	<polygon class="st21" points="1324.9,1765.3 1295.5,1765.3 1295.5,1784.9 1312.4,1784.9 1319.8,1790.8 1319.8,1784.9 
		1324.9,1784.9 	"/>
	<line class="st19" x1="1301" y1="1771.6" x2="1319.2" y2="1771.6"/>
	<line class="st19" x1="1301" y1="1775.1" x2="1319.2" y2="1775.1"/>
	<line class="st19" x1="1301" y1="1778.6" x2="1313.9" y2="1778.6"/>
</g>
<g>
	<polygon class="st17" points="1399.9,1801.5 1383.1,1801.5 1383.1,1778 1394.7,1778 1399.9,1782.8 	"/>
	<polyline class="st19" points="1394.5,1779.2 1394.5,1782.9 1398.5,1782.9 	"/>
	<line class="st19" x1="1385.5" y1="1788.6" x2="1397.7" y2="1788.6"/>
	<line class="st19" x1="1385.5" y1="1791.1" x2="1397.7" y2="1791.1"/>
	<line class="st19" x1="1385.5" y1="1793.6" x2="1394.7" y2="1793.6"/>
	<line class="st19" x1="1385.5" y1="1786.2" x2="1397.7" y2="1786.2"/>
</g>
<g>
	<polygon class="st17" points="1359.5,1698.4 1339.4,1698.4 1339.4,1670.1 1353.3,1670.1 1359.5,1675.9 	"/>
	<polyline class="st19" points="1353.1,1671.5 1353.1,1676 1357.8,1676 	"/>
	<line class="st19" x1="1342.2" y1="1682.9" x2="1356.9" y2="1682.9"/>
	<line class="st19" x1="1342.2" y1="1685.9" x2="1356.9" y2="1685.9"/>
	<line class="st19" x1="1342.2" y1="1688.8" x2="1353.3" y2="1688.8"/>
	<line class="st19" x1="1342.2" y1="1679.9" x2="1356.9" y2="1679.9"/>
</g>
<g>
	<path class="st21" d="M1471.5,1740.6h44.4h0.1h0.1c2.7,0,4.9-2.2,4.9-4.9l0,0v-42.4h-44.8v8.1"/>
	<path class="st16" d="M1476.3,1701.6v34.1c0,2.7-2.2,4.9-4.9,4.9h-0.1c-2.7,0-4.9-2.2-4.9-4.9v-34.1H1476.3z"/>
	<line class="st19" x1="1471.5" y1="1705.9" x2="1471.5" y2="1736.3"/>
	<rect x="1482.7" y="1699.7" class="st15" width="10.8" height="10.8"/>
	<line class="st22" x1="1497.6" y1="1702.5" x2="1515.6" y2="1702.5"/>
	<line class="st22" x1="1497.6" y1="1707.6" x2="1512.2" y2="1707.6"/>
	<line class="st19" x1="1482.2" y1="1716.2" x2="1515.6" y2="1716.2"/>
	<line class="st19" x1="1482.2" y1="1721.3" x2="1515.6" y2="1721.3"/>
	<line class="st19" x1="1482.2" y1="1726.4" x2="1515.6" y2="1726.4"/>
	<line class="st19" x1="1482.2" y1="1731.5" x2="1505.7" y2="1731.5"/>
</g>
<g>
	<path class="st23" d="M1493.8,1778.1c-1.1,0-1.9,0.1-2.8-0.7c-0.8-0.7-3.6-3-3.6-5.2c0-1.7,0-18.1,0-18.1v-2.4
		c0-1.9,1.5-3.4,3.4-3.4l0,0c1.9,0,3.4,1.5,3.4,3.4v0.9l-0.1-0.6v-2.4c0-1.9,1.5-3.4,3.4-3.4l0,0c1.9,0,3.4,1.5,3.4,3.4v2.4l0.1-1.6
		v-2.4c0-1.9,1.5-3.4,3.4-3.4l0,0c1.9,0,3.4,1.5,3.4,3.4v2.4l0.1,0.2v-16.4c0-1.9,1.5-3.4,3.4-3.4l0,0c1.9,0,3.4,1.5,3.4,3.4v26.5
		l0,0v-5.9c0-1.9,1-5.3,5-5.2l0,0c1.7,0,1.7,1.5,1.7,3v14.9c0,0-8.5,8.9-9.1,9.6s-1.7,1-3.2,0.9"/>
	<rect x="1488.8" y="1778.2" class="st21" width="23.6" height="6.5"/>
	<rect x="1484.7" y="1784.6" class="st17" width="28.8" height="13.5"/>
	<rect x="1485.3" y="1785.2" class="st18" width="13.2" height="12.5"/>
</g>
<path class="st24" d="M1402.9,1672.5c5.3,0,5.3,6.3,10.7,6.3c5.3,0,5.3-6.3,10.7-6.3c5.3,0,5.3,6.3,10.6,6.3c5.3,0,5.3-6.3,10.7-6.3
	s5.3,6.4,10.6,6.4"/>
<g>
	<g>
		
			<rect x="1462.8" y="1673.6" transform="matrix(0.3287 -0.9444 0.9444 0.3287 -598.837 2506.3113)" class="st25" width="1.6" height="1.6"/>
		
			<rect x="1464.1" y="1671.3" transform="matrix(0.6594 -0.7518 0.7518 0.6594 -758.1132 1670.8104)" class="st25" width="1.6" height="1.6"/>
		
			<rect x="1466.6" y="1669.4" transform="matrix(0.8945 -0.4471 0.4471 0.8945 -591.9062 832.2748)" class="st25" width="1.6" height="1.6"/>
		
			<rect x="1469.5" y="1668.6" transform="matrix(0.9969 -7.836042e-02 7.836042e-02 0.9969 -126.2906 120.3485)" class="st25" width="1.6" height="1.6"/>
		
			<rect x="1472.5" y="1668.9" transform="matrix(0.3557 -0.9346 0.9346 0.3557 -611.2825 2452.7603)" class="st25" width="1.6" height="1.6"/>
		
			<rect x="1475" y="1670.7" transform="matrix(0.6628 -0.7488 0.7488 0.6628 -753.9925 1668.6958)" class="st25" width="1.6" height="1.6"/>
		
			<rect x="1476.7" y="1673" transform="matrix(0.9099 -0.4149 0.4149 0.9099 -561.2742 763.8534)" class="st25" width="1.6" height="1.6"/>
		
			<rect x="1477.5" y="1675.9" transform="matrix(0.9997 -2.284257e-02 2.284257e-02 0.9997 -37.9146 34.2049)" class="st25" width="1.6" height="1.6"/>
	</g>
	
		<rect x="1477" y="1678.8" transform="matrix(0.3287 -0.9444 0.9444 0.3287 -594.2404 2523.1636)" class="st25" width="1.6" height="1.6"/>
	
		<rect x="1475.8" y="1681.2" transform="matrix(0.6594 -0.7518 0.7518 0.6594 -761.5876 1682.9828)" class="st25" width="1.6" height="1.6"/>
	
		<rect x="1473.3" y="1683" transform="matrix(0.8945 -0.4471 0.4471 0.8945 -597.2668 836.725)" class="st25" width="1.6" height="1.6"/>
	
		<rect x="1470.4" y="1683.9" transform="matrix(0.9969 -7.836042e-02 7.836042e-02 0.9969 -127.4881 120.4644)" class="st25" width="1.6" height="1.6"/>
	
		<rect x="1467.4" y="1683.5" transform="matrix(0.3557 -0.9346 0.9346 0.3557 -628.1987 2457.3904)" class="st25" width="1.6" height="1.6"/>
	
		<rect x="1464.9" y="1681.8" transform="matrix(0.6628 -0.7488 0.7488 0.6628 -765.6763 1664.8917)" class="st25" width="1.6" height="1.6"/>
	
		<rect x="1463.2" y="1679.4" transform="matrix(0.9099 -0.4149 0.4149 0.9099 -565.1492 758.814)" class="st25" width="1.6" height="1.6"/>
	
		<rect x="1462.3" y="1676.5" transform="matrix(0.9997 -2.284257e-02 2.284257e-02 0.9997 -37.9329 33.8596)" class="st25" width="1.6" height="1.6"/>
</g>
<g>
	<line class="st24" x1="1272.1" y1="1678.9" x2="1256.4" y2="1678.9"/>
	<line class="st24" x1="1264.2" y1="1686.7" x2="1264.2" y2="1671.1"/>
</g>
<rect x="1262.2" y="1758.8" transform="matrix(0.7071 -0.7071 0.7071 0.7071 -875.4327 1411.2543)" class="st26" width="7.2" height="7.2"/>
</svg>
