<?xml version="1.0" encoding="UTF-8"?>
<svg width="380px" height="212px" viewBox="0 0 380 212" version="1.1" xmlns="http://www.w3.org/2000/svg" xmlns:xlink="http://www.w3.org/1999/xlink">
    <title>Benefits bundle</title>
    <defs>
        <polygon id="path-1" points="0 212 380 212 380 0 0 0"></polygon>
    </defs>
    <g id="Benefits-bundle" stroke="none" stroke-width="1" fill="none" fill-rule="evenodd">
        <g id="Group-95">
            <polygon id="Fill-1" fill="#F3F2F1" points="0 212 380 212 380 0 0 0"></polygon>
            <polygon id="Stroke-2" stroke="#3C3C3B" stroke-width="1.25" points="331 139.771689 334.399752 137 335.525799 141.247717 339.899183 141.010274 338.322717 145.111872 342 147.5 338.322717 149.888128 339.899183 153.988584 335.525799 153.752283 334.399752 158 331 155.228311 327.600248 158 326.474201 153.752283 322.100817 153.988584 323.676145 149.888128 320 147.5 323.676145 145.111872 322.100817 141.010274 326.474201 141.247717 327.600248 137"></polygon>
            <g id="Group-94">
                <path d="M272.374833,100.29865 L285.07186,113.000266 C286.631428,114.560397 289.182608,114.560397 290.742175,113.000266 L332.953238,70.7739473 C333.678189,70.0487346 334.066061,69.1098844 334.116854,68.1560218 L336.803096,38.8553497 C336.803096,38.0377532 336.490259,37.2190019 335.866894,36.5954113 L335.861122,36.5896373 C335.236602,35.964892 334.419301,35.6530967 333.602,35.6530967 L304.311914,38.3403101 C303.358396,38.3911211 302.41873,38.779133 301.694934,39.5043457 L259.483871,81.7306642 C257.924303,83.2907954 257.924303,85.8428975 259.483871,87.4030286 L272.180897,100.104644 L272.374833,100.29865 Z" id="Fill-3" fill="#1D70B8"></path>
                <path d="M272.374833,100.29865 L285.07186,113.000266 C286.631428,114.560397 289.182608,114.560397 290.742175,113.000266 L332.953238,70.7739473 C333.678189,70.0487346 334.066061,69.1098844 334.116854,68.1560218 L336.803096,38.8553497 C336.803096,38.0377532 336.490259,37.2190019 335.866894,36.5954113 L335.861122,36.5896373 C335.236602,35.964892 334.419301,35.6530967 333.602,35.6530967 L304.311914,38.3403101 C303.358396,38.3911211 302.41873,38.779133 301.694934,39.5043457 L259.483871,81.7306642 C257.924303,83.2907954 257.924303,85.8428975 259.483871,87.4030286 L272.180897,100.104644 L272.374833,100.29865 Z" id="Stroke-5" stroke="#3C3C3B" stroke-width="1.25"></path>
                <path d="M309.403538,78.4773692 C310.213913,77.6667015 310.617946,76.6770402 310.617946,75.5072306 C310.617946,74.3374209 310.213913,73.3466048 309.403538,72.5359371 C308.593163,71.7264242 307.603859,71.3210903 306.434472,71.3222426 C305.265085,71.3210903 304.274627,71.7264242 303.464252,72.5359371 C302.655032,73.3466048 302.252153,74.3385757 302.256731,75.5130045 C302.260234,76.6874334 302.663112,77.6759399 303.464252,78.4773692 C304.282708,79.2961205 305.272011,79.7049188 306.434472,79.7049188 C307.595779,79.7049188 308.585082,79.2961205 309.403538,78.4773692 L309.403538,78.4773692 Z M302.384907,71.4562016 C303.489649,70.3510606 304.837965,69.7967579 306.427546,69.7932649 C308.019436,69.7886743 309.371215,70.3441318 310.482883,71.4562016 C311.587625,72.5613426 312.140573,73.9113007 312.139421,75.5072306 C312.140573,77.1031604 311.587625,78.4531185 310.482883,79.5571047 C309.370061,80.6703293 308.02059,81.2280964 306.434472,81.2269434 C304.8472,81.2280964 303.497729,80.6703293 302.384907,79.5571047 C301.273239,78.4450349 300.716828,77.0950769 300.716828,75.5072306 C300.716828,73.9205391 301.272084,72.5694262 302.384907,71.4562016 L302.384907,71.4562016 Z M291.329408,77.384931 C292.139783,76.5742633 292.543816,75.5892212 292.543816,74.4263403 C292.543816,73.2646142 292.139783,72.2784173 291.329408,71.4689044 C290.512107,70.6501531 289.521649,70.2413548 288.360343,70.2413548 C287.197882,70.2413548 286.213196,70.6466887 285.402821,71.4562016 C284.5936,72.2668693 284.188413,73.2565306 284.188413,74.4263403 C284.188413,75.5961499 284.5936,76.586966 285.402821,77.3976338 C286.221276,78.2152303 287.208271,78.6228737 288.366115,78.6182933 C289.523958,78.6147901 290.510953,78.2036823 291.329408,77.384931 L291.329408,77.384931 Z M296.078528,58.7638243 L299.857969,90.1373577 L298.593922,91.4030155 L294.860657,59.9821355 L296.078528,58.7638243 Z M284.323476,70.3764661 C285.427063,69.2713251 286.77307,68.719332 288.360343,68.719332 C289.946461,68.719332 291.297086,69.2759443 292.409908,70.3880141 C293.513496,71.4931551 294.065289,72.8396488 294.065289,74.4263403 C294.065289,76.0141866 293.513496,77.3606802 292.409908,78.4646665 C291.297086,79.5778911 289.94877,80.136813 288.366115,80.140306 C286.78346,80.1448966 285.436298,79.5905938 284.323476,78.4773692 C283.210653,77.3652994 282.654242,76.0141866 282.654242,74.4263403 C282.654242,72.8396488 283.210653,71.4896907 284.323476,70.3764661 L284.323476,70.3764661 Z" id="Fill-7" fill="#FFFFFF"></path>
                <path d="M309.403538,78.4773692 C310.213913,77.6667015 310.617946,76.6770402 310.617946,75.5072306 C310.617946,74.3374209 310.213913,73.3466048 309.403538,72.5359371 C308.593163,71.7264242 307.603859,71.3210903 306.434472,71.3222426 C305.265085,71.3210903 304.274627,71.7264242 303.464252,72.5359371 C302.655032,73.3466048 302.252153,74.3385757 302.256731,75.5130045 C302.260234,76.6874334 302.663112,77.6759399 303.464252,78.4773692 C304.282708,79.2961205 305.272011,79.7049188 306.434472,79.7049188 C307.595779,79.7049188 308.585082,79.2961205 309.403538,78.4773692 Z M302.384907,71.4562016 C303.489649,70.3510606 304.837965,69.7967579 306.427546,69.7932649 C308.019436,69.7886743 309.371215,70.3441318 310.482883,71.4562016 C311.587625,72.5613426 312.140573,73.9113007 312.139421,75.5072306 C312.140573,77.1031604 311.587625,78.4531185 310.482883,79.5571047 C309.370061,80.6703293 308.02059,81.2280964 306.434472,81.2269434 C304.8472,81.2280964 303.497729,80.6703293 302.384907,79.5571047 C301.273239,78.4450349 300.716828,77.0950769 300.716828,75.5072306 C300.716828,73.9205391 301.272084,72.5694262 302.384907,71.4562016 Z M291.329408,77.384931 C292.139783,76.5742633 292.543816,75.5892212 292.543816,74.4263403 C292.543816,73.2646142 292.139783,72.2784173 291.329408,71.4689044 C290.512107,70.6501531 289.521649,70.2413548 288.360343,70.2413548 C287.197882,70.2413548 286.213196,70.6466887 285.402821,71.4562016 C284.5936,72.2668693 284.188413,73.2565306 284.188413,74.4263403 C284.188413,75.5961499 284.5936,76.586966 285.402821,77.3976338 C286.221276,78.2152303 287.208271,78.6228737 288.366115,78.6182933 C289.523958,78.6147901 290.510953,78.2036823 291.329408,77.384931 Z M296.078528,58.7638243 L299.857969,90.1373577 L298.593922,91.4030155 L294.860657,59.9821355 L296.078528,58.7638243 Z M284.323476,70.3764661 C285.427063,69.2713251 286.77307,68.719332 288.360343,68.719332 C289.946461,68.719332 291.297086,69.2759443 292.409908,70.3880141 C293.513496,71.4931551 294.065289,72.8396488 294.065289,74.4263403 C294.065289,76.0141866 293.513496,77.3606802 292.409908,78.4646665 C291.297086,79.5778911 289.94877,80.136813 288.366115,80.140306 C286.78346,80.1448966 285.436298,79.5905938 284.323476,78.4773692 C283.210653,77.3652994 282.654242,76.0141866 282.654242,74.4263403 C282.654242,72.8396488 283.210653,71.4896907 284.323476,70.3764661 Z" id="Stroke-9" stroke="#FFFFFF" stroke-width="0.5"></path>
                <path d="M327.901094,45.0867514 C329.503374,46.6896101 329.503374,49.2890588 327.901094,50.8919175 C326.298814,52.4947762 323.700305,52.4947762 322.098025,50.8919175 C320.495746,49.2890588 320.495746,46.6896101 322.098025,45.0867514 C323.700305,43.4838928 326.298814,43.4838928 327.901094,45.0867514" id="Fill-11" fill="#FFFFFF"></path>
                <path d="M327.901094,45.0867514 C329.503374,46.6896101 329.503374,49.2890588 327.901094,50.8919175 C326.298814,52.4947762 323.700305,52.4947762 322.098025,50.8919175 C320.495746,49.2890588 320.495746,46.6896101 322.098025,45.0867514 C323.700305,43.4838928 326.298814,43.4838928 327.901094,45.0867514 Z" id="Stroke-13" stroke="#3C3C3B" stroke-width="1.25"></path>
                <path d="M233.251275,190.142112 L154.357475,190.142112 C152.549716,190.142112 151.084807,188.676674 151.084807,186.868262 L151.084807,45.4933556 C151.084807,43.684943 152.549716,42.2195052 154.357475,42.2195052 L233.251275,42.2195052 C235.059034,42.2195052 236.523943,43.684943 236.523943,45.4933556 L236.523943,186.868262 C236.523943,188.676674 235.059034,190.142112 233.251275,190.142112" id="Fill-15" fill="#C6C6C5"></path>
                <path d="M233.251275,190.142112 L154.357475,190.142112 C152.549716,190.142112 151.084807,188.676674 151.084807,186.868262 L151.084807,45.4933556 C151.084807,43.684943 152.549716,42.2195052 154.357475,42.2195052 L233.251275,42.2195052 C235.059034,42.2195052 236.523943,43.684943 236.523943,45.4933556 L236.523943,186.868262 C236.523943,188.676674 235.059034,190.142112 233.251275,190.142112 Z" id="Stroke-17" stroke="#3C3C3B" stroke-width="1.25"></path>
                <mask id="mask-2" fill="white">
                    <use xlink:href="#path-1"></use>
                </mask>
                <g id="Clip-20"></g>
                <polygon id="Fill-19" fill="#FFFFFF" mask="url(#mask-2)" points="158.267822 168.304779 229.403034 168.304779 229.403034 49.9114946 158.267822 49.9114946"></polygon>
                <polygon id="Stroke-21" stroke="#3C3C3B" stroke-width="1.25" mask="url(#mask-2)" points="158.267822 168.304779 229.403034 168.304779 229.403034 49.9114946 158.267822 49.9114946"></polygon>
                <polygon id="Fill-22" fill="#C6C6C5" mask="url(#mask-2)" points="188.816183 184.486954 198.868525 184.486954 198.868525 174.430979 188.816183 174.430979"></polygon>
                <polygon id="Stroke-23" stroke="#3C3C3B" stroke-width="1.25" mask="url(#mask-2)" points="188.816183 184.486954 198.868525 184.486954 198.868525 174.430979 188.816183 174.430979"></polygon>
                <polygon id="Fill-24" fill="#F76C06" mask="url(#mask-2)" points="159.041257 65.8269111 228.380253 65.8269111 228.380253 50.6863636 159.041257 50.6863636"></polygon>
                <path d="M207.763139,116.241089 L207.763139,121.025414 C207.763139,125.533743 201.838861,129.188676 194.529326,129.188676 C187.220945,129.188676 181.295512,125.533743 181.295512,121.025414 L181.295512,116.52286 L207.763139,116.241089 Z" id="Fill-25" fill="#1D70B8" mask="url(#mask-2)"></path>
                <path d="M207.763139,116.241089 L207.763139,121.025414 C207.763139,125.533743 201.838861,129.188676 194.529326,129.188676 C187.220945,129.188676 181.295512,125.533743 181.295512,121.025414 L181.295512,116.52286 L207.763139,116.241089 Z" id="Stroke-26" stroke="#3C3C3B" stroke-width="1.25" mask="url(#mask-2)"></path>
                <polygon id="Fill-27" fill="#86C4EA" mask="url(#mask-2)" points="194.492386 121.43352 168.83167 111.039189 194.492386 100.644858 220.153101 111.039189"></polygon>
                <polygon id="Stroke-28" stroke="#3C3C3B" stroke-width="1.25" mask="url(#mask-2)" points="194.492386 121.43352 168.83167 111.039189 194.492386 100.644858 220.153101 111.039189"></polygon>
                <polyline id="Stroke-29" stroke="#3C3C3B" stroke-width="1.25" mask="url(#mask-2)" points="194.66358 110.011419 212.206695 117.545317 212.206695 122.938221"></polyline>
                <path d="M213.982709,125.899121 C213.104225,126.879544 211.597759,126.962689 210.616536,126.083888 C209.636467,125.206242 209.553352,123.698077 210.431835,122.717654 C211.310319,121.736077 212.816785,121.654086 213.798008,122.531732 C214.778076,123.410533 214.861192,124.918698 213.982709,125.899121" id="Fill-30" fill="#86C4EA" mask="url(#mask-2)"></path>
                <path d="M213.982709,125.899121 C213.104225,126.879544 211.597759,126.962689 210.616536,126.083888 C209.636467,125.206242 209.553352,123.698077 210.431835,122.717654 C211.310319,121.736077 212.816785,121.654086 213.798008,122.531732 C214.778076,123.410533 214.861192,124.918698 213.982709,125.899121 Z" id="Stroke-31" stroke="#3C3C3B" stroke-width="1.25" mask="url(#mask-2)"></path>
                <line x1="194.236575" y1="137.353093" x2="194.236575" y2="154.139227" id="Stroke-32" stroke="#C6C6C5" stroke-width="1.25" mask="url(#mask-2)"></line>
                <polyline id="Stroke-33" stroke="#C6C6C5" stroke-width="1.25" mask="url(#mask-2)" points="188.029704 142.390666 194.177933 136.240215 200.5605 142.62509"></polyline>
                <line x1="207.980856" y1="134.041366" x2="219.845574" y2="145.910372" id="Stroke-34" stroke="#C6C6C5" stroke-width="1.25" mask="url(#mask-2)"></line>
                <polyline id="Stroke-35" stroke="#C6C6C5" stroke-width="1.25" mask="url(#mask-2)" points="207.152703 141.993993 207.152703 133.29606 216.178801 133.29606"></polyline>
                <line x1="180.145172" y1="134.082823" x2="168.280454" y2="145.95183" id="Stroke-36" stroke="#C6C6C5" stroke-width="1.25" mask="url(#mask-2)"></line>
                <polyline id="Stroke-37" stroke="#C6C6C5" stroke-width="1.25" mask="url(#mask-2)" points="172.195534 133.254487 180.890325 133.254487 180.890325 142.283847"></polyline>
                <line x1="193.889453" y1="94.297746" x2="193.889453" y2="77.5116122" id="Stroke-38" stroke="#C6C6C5" stroke-width="1.25" mask="url(#mask-2)"></line>
                <polyline id="Stroke-39" stroke="#C6C6C5" stroke-width="1.25" mask="url(#mask-2)" points="200.096324 89.2601737 193.948095 95.4106241 187.565528 89.0257498"></polyline>
                <line x1="180.145172" y1="97.6094737" x2="168.280454" y2="85.7404669" id="Stroke-40" stroke="#C6C6C5" stroke-width="1.25" mask="url(#mask-2)"></line>
                <polyline id="Stroke-41" stroke="#C6C6C5" stroke-width="1.25" mask="url(#mask-2)" points="180.973325 89.6568465 180.973325 98.3547799 171.947227 98.3547799"></polyline>
                <line x1="207.980856" y1="97.5680165" x2="219.845574" y2="85.6990097" id="Stroke-42" stroke="#C6C6C5" stroke-width="1.25" mask="url(#mask-2)"></line>
                <polyline id="Stroke-43" stroke="#C6C6C5" stroke-width="1.25" mask="url(#mask-2)" points="215.930494 98.3964681 207.235703 98.3964681 207.235703 89.3671079"></polyline>
                <path d="M93.3666099,96.3849266 C94.2231599,92.7369219 79.9746462,86.1915308 60.4944818,81.005336 L50.9339057,83.9558432 L93.3666099,96.3849266 Z" id="Fill-44" fill="#C6C6C5" mask="url(#mask-2)"></path>
                <path d="M93.3666099,96.3849266 C94.2231599,92.7369219 79.9746462,86.1915308 60.4944818,81.005336 L50.9339057,83.9558432 L93.3666099,96.3849266 Z" id="Stroke-45" stroke="#3C3C3B" stroke-width="1.25" mask="url(#mask-2)"></path>
                <path d="M93.6489712,96.4218801 C92.7924212,92.7738754 107.145984,86.2042335 126.764674,80.9857045 L136.384123,83.9211992 L93.6489712,96.4218801 Z" id="Fill-46" fill="#C6C6C5" mask="url(#mask-2)"></path>
                <path d="M93.6489712,96.4218801 C92.7924212,92.7738754 107.145984,86.2042335 126.764674,80.9857045 L136.384123,83.9211992 L93.6489712,96.4218801 Z" id="Stroke-47" stroke="#3C3C3B" stroke-width="1.25" mask="url(#mask-2)"></path>
                <polygon id="Fill-48" fill="#55A0D8" mask="url(#mask-2)" points="90.5022465 153.17578 95.6415467 153.17578 95.6415467 95.9082263 90.5022465 95.9082263"></polygon>
                <polygon id="Stroke-49" stroke="#3C3C3B" stroke-width="1.25" mask="url(#mask-2)" points="90.5022465 153.17578 95.6415467 153.17578 95.6415467 95.9082263 90.5022465 95.9082263"></polygon>
                <polygon id="Fill-50" fill="#86C4EA" mask="url(#mask-2)" points="90.494743 153.324518 51.5990595 141.776545 51.5990595 84.1729451 90.494743 95.7209182"></polygon>
                <polygon id="Stroke-51" stroke="#3C3C3B" stroke-width="1.25" mask="url(#mask-2)" points="90.494743 153.324518 51.5990595 141.776545 51.5990595 84.1729451 90.494743 95.7209182"></polygon>
                <polygon id="Fill-52" fill="#F76C06" mask="url(#mask-2)" points="77.4164244 122.899419 64.6778399 119.117458 64.6778399 100.251534 77.4164244 104.033496"></polygon>
                <polygon id="Stroke-53" stroke="#3C3C3B" stroke-width="1.25" mask="url(#mask-2)" points="77.4164244 122.899419 64.6778399 119.117458 64.6778399 100.251534 77.4164244 104.033496"></polygon>
                <line x1="61.1192323" y1="123.408569" x2="80.6755858" y2="129.277249" id="Stroke-54" stroke="#3C3C3B" stroke-width="1.25" mask="url(#mask-2)"></line>
                <line x1="61.1192323" y1="129.182556" x2="80.6755858" y2="135.051236" id="Stroke-55" stroke="#3C3C3B" stroke-width="1.25" mask="url(#mask-2)"></line>
                <polygon id="Fill-56" fill="#1D70B8" mask="url(#mask-2)" points="95.8728845 153.324518 134.768568 141.776545 134.768568 84.1729451 95.8728845 95.7209182"></polygon>
                <polygon id="Stroke-57" stroke="#3C3C3B" stroke-width="1.25" mask="url(#mask-2)" points="95.8728845 153.324518 134.768568 141.776545 134.768568 84.1729451 95.8728845 95.7209182"></polygon>
                <polygon id="Fill-58" fill="#F76C06" mask="url(#mask-2)" points="108.951319 122.899419 121.689903 119.117458 121.689903 100.251534 108.951319 104.033496"></polygon>
                <polygon id="Stroke-59" stroke="#3C3C3B" stroke-width="1.25" mask="url(#mask-2)" points="108.951319 122.899419 121.689903 119.117458 121.689903 100.251534 108.951319 104.033496"></polygon>
                <line x1="125.248395" y1="123.408569" x2="105.692042" y2="129.277249" id="Stroke-60" stroke="#3C3C3B" stroke-width="1.25" mask="url(#mask-2)"></line>
                <line x1="125.248395" y1="129.182556" x2="105.692042" y2="135.051236" id="Stroke-61" stroke="#3C3C3B" stroke-width="1.25" mask="url(#mask-2)"></line>
                <polygon id="Fill-62" fill="#F3F2F1" mask="url(#mask-2)" points="89.750745 155.837588 97.5843685 155.837588 97.5843685 153.921779 89.750745 153.921779"></polygon>
                <polygon id="Fill-63" fill="#F3F2F1" mask="url(#mask-2)" points="47.9795006 85.318735 50.8573703 85.318735 50.8573703 82.5737817 47.9795006 82.5737817"></polygon>
                <polygon id="Fill-64" fill="#F3F2F1" mask="url(#mask-2)" points="135.502292 88.4794152 138.983902 88.4794152 138.983902 80.8796941 135.502292 80.8796941"></polygon>
                <path d="M80.0524514,58.3852818 L80.0524514,46.0520465 C80.0524514,37.4880696 87.0560755,30.4819143 95.6169585,30.4819143 L96.9595025,30.4819143 C105.520385,30.4819143 112.52401,37.4880696 112.52401,46.0520465 L112.52401,58.3852818" id="Stroke-65" stroke="#3C3C3B" stroke-width="1.25" mask="url(#mask-2)"></path>
                <path d="M80.0044292,46.9673388 L80.0044292,46.9673388 C77.8318858,46.9673388 76.0541404,48.4096807 76.0541404,50.1730562 L76.0541404,54.3857568 C76.0541404,56.1491323 77.8318858,57.5914741 80.0044292,57.5914741 L80.0044292,57.5914741 L80.0044292,46.9673388 Z" id="Fill-66" fill="#C6C6C5" mask="url(#mask-2)"></path>
                <path d="M80.0044292,46.9673388 L80.0044292,46.9673388 C77.8318858,46.9673388 76.0541404,48.4096807 76.0541404,50.1730562 L76.0541404,54.3857568 C76.0541404,56.1491323 77.8318858,57.5914741 80.0044292,57.5914741 L80.0044292,57.5914741 L80.0044292,46.9673388 Z" id="Stroke-67" stroke="#3C3C3B" stroke-width="1.25" mask="url(#mask-2)"></path>
                <path d="M112.523894,57.34735 L112.523894,59.301267 C112.523894,67.8640891 105.52027,74.8713992 96.9593871,74.8713992" id="Stroke-68" stroke="#3C3C3B" stroke-width="1.25" mask="url(#mask-2)"></path>
                <path d="M97.7530234,74.9932303 C97.7530234,76.5776122 96.4681983,77.8629016 94.8843888,77.8629016 C93.2994249,77.8629016 92.0157543,76.5776122 92.0157543,74.9932303 C92.0157543,73.4088484 93.2994249,72.123559 94.8843888,72.123559 C96.4681983,72.123559 97.7530234,73.4088484 97.7530234,74.9932303" id="Fill-69" fill="#55A0D8" mask="url(#mask-2)"></path>
                <path d="M97.7530234,74.9932303 C97.7530234,76.5776122 96.4681983,77.8629016 94.8843888,77.8629016 C93.2994249,77.8629016 92.0157543,76.5776122 92.0157543,74.9932303 C92.0157543,73.4088484 93.2994249,72.123559 94.8843888,72.123559 C96.4681983,72.123559 97.7530234,73.4088484 97.7530234,74.9932303 Z" id="Stroke-70" stroke="#3C3C3B" stroke-width="1.25" mask="url(#mask-2)"></path>
                <path d="M112.653877,57.5915896 L112.653877,57.5915896 C114.826421,57.5915896 116.604166,56.1492477 116.604166,54.3858723 L116.604166,50.1731717 C116.604166,48.4097962 114.826421,46.9674543 112.653877,46.9674543 L112.653877,46.9674543 L112.653877,57.5915896 Z" id="Fill-71" fill="#C6C6C5" mask="url(#mask-2)"></path>
                <path d="M112.653877,57.5915896 L112.653877,57.5915896 C114.826421,57.5915896 116.604166,56.1492477 116.604166,54.3858723 L116.604166,50.1731717 C116.604166,48.4097962 114.826421,46.9674543 112.653877,46.9674543 L112.653877,46.9674543 L112.653877,57.5915896 Z" id="Stroke-72" stroke="#3C3C3B" stroke-width="1.25" mask="url(#mask-2)"></path>
                <line x1="265.831807" y1="45.4803063" x2="247.788846" y2="45.4803063" id="Stroke-73" stroke="#C6C6C5" stroke-width="1.25" mask="url(#mask-2)"></line>
                <line x1="256.810442" y1="54.5049319" x2="256.810442" y2="36.4554499" id="Stroke-74" stroke="#C6C6C5" stroke-width="1.25" mask="url(#mask-2)"></line>
                <path d="M71.5969634,175.536351 C77.6863185,175.536351 77.7532725,182.850837 83.9141992,182.850837 C90.0047087,182.850837 90.0728171,175.536351 96.3006978,175.536351 C102.424684,175.536351 102.424684,182.850837 108.548671,182.850837 C114.673812,182.850837 114.673812,175.579079 120.865907,175.579079 C127.059156,175.579079 126.991047,182.97902 133.149665,182.97902" id="Stroke-75" stroke="#C6C6C5" stroke-width="1.25" mask="url(#mask-2)"></path>
                <polygon id="Fill-76" fill="#F3F2F1" mask="url(#mask-2)" points="44.2565093 48.8285257 50.1253778 42.9575361 55.9930919 48.8285257 50.1253778 54.6995152"></polygon>
                <polygon id="Stroke-77" stroke="#C6C6C5" stroke-width="1.25" mask="url(#mask-2)" points="44.2565093 48.8285257 50.1253778 42.9575361 55.9930919 48.8285257 50.1253778 54.6995152"></polygon>
                <line x1="237.652234" y1="178.186611" x2="289.258797" y2="178.186611" id="Stroke-78" stroke="#C6C6C5" stroke-width="1.25" mask="url(#mask-2)"></line>
                <line x1="315.405853" y1="178.186611" x2="323.11134" y2="178.186611" id="Stroke-79" stroke="#C6C6C5" stroke-width="1.25" mask="url(#mask-2)"></line>
                <line x1="327.696538" y1="178.186611" x2="335.402025" y2="178.186611" id="Stroke-80" stroke="#C6C6C5" stroke-width="1.25" mask="url(#mask-2)"></line>
                <line x1="293.893633" y1="178.186611" x2="310.853786" y2="178.186611" id="Stroke-81" stroke="#C6C6C5" stroke-width="1.25" mask="url(#mask-2)"></line>
                <path d="M46.13711,172.422902 C44.9019233,175.396505 41.4918844,176.804203 38.5193556,175.569725 C35.5479812,174.334092 34.1396375,170.921666 35.3748242,167.949217 C36.6100109,164.975614 40.0200498,163.566761 42.9914242,164.802395 C45.963953,166.038028 47.3722967,169.449299 46.13711,172.422902" id="Fill-82" fill="#F5F5F5" mask="url(#mask-2)"></path>
                <path d="M46.13711,172.422902 C44.9019233,175.396505 41.4918844,176.804203 38.5193556,175.569725 C35.5479812,174.334092 34.1396375,170.921666 35.3748242,167.949217 C36.6100109,164.975614 40.0200498,163.566761 42.9914242,164.802395 C45.963953,166.038028 47.3722967,169.449299 46.13711,172.422902 Z" id="Stroke-83" stroke="#C6C6C5" stroke-width="1.25" mask="url(#mask-2)"></path>
                <path d="M111.723678,168.653182 C110.956015,170.499703 108.837728,171.375039 106.991874,170.607099 C105.14602,169.840313 104.271,167.72126 105.038663,165.873585 C105.805171,164.027064 107.923459,163.151727 109.770467,163.919668 C111.616321,164.687608 112.491341,166.806661 111.723678,168.653182" id="Fill-84" fill="#F5F5F5" mask="url(#mask-2)"></path>
                <path d="M111.723678,168.653182 C110.956015,170.499703 108.837728,171.375039 106.991874,170.607099 C105.14602,169.840313 104.271,167.72126 105.038663,165.873585 C105.805171,164.027064 107.923459,163.151727 109.770467,163.919668 C111.616321,164.687608 112.491341,166.806661 111.723678,168.653182 Z" id="Stroke-85" stroke="#C6C6C5" stroke-width="1.25" mask="url(#mask-2)"></path>
                <g id="Group-88" mask="url(#mask-2)">
                    <g transform="translate(225.875710, 118.518118)">
                        <path d="M50.6091785,29.4634986 C50.6241855,30.674881 50.6807501,31.5467529 49.8380526,32.4983059 C49.0415303,33.3967382 46.6519635,36.3241494 44.2623967,36.3241494 L24.8942071,36.3241494 L22.3511077,36.3241494 C20.3621108,36.3241494 18.7355892,34.6958852 18.7355892,32.7073242 L18.7355892,32.7073242 C18.7355892,30.7176085 20.3621108,29.0904991 22.3511077,29.0904991 L23.3392571,29.0904991 L22.7239725,29.1470841 L20.1808731,29.1470841 C18.1918762,29.1470841 16.5653546,27.5188199 16.5653546,25.530259 L16.5653546,25.530259 C16.5653546,23.5405432 18.1918762,21.9134338 20.1808731,21.9134338 L22.7239725,21.9134338 L20.9877848,21.8522295 L18.4446854,21.8522295 C16.4556885,21.8522295 14.8291669,20.2251201 14.8291669,18.2354043 C14.8291669,16.2468434 16.4556885,14.6185792 18.4446854,14.6185792 L20.9877848,14.6185792 L21.1505524,14.4961706 L3.61551851,14.4961706 C1.62767596,14.4961706 0,12.8690612 0,10.8805003 L0,10.8805003 C0,8.8907845 1.62767596,7.26367509 3.61551851,7.26367509 L31.9867186,7.26367509 L31.9867186,7.23249556 L25.6941926,7.23249556 C23.70635,7.23249556 20.0527369,6.19086839 20.0839052,1.86961685 L20.0839052,1.86961685 C20.0839052,0.0912289876 21.6769498,0 23.3161695,0 L39.3077972,0 C39.3077972,0 48.8579839,9.10211241 49.6337273,9.79730039 C50.4094708,10.4913336 50.6553537,11.6565241 50.6137961,13.1889401" id="Fill-86" stroke="none" fill="#C6C6C5" fill-rule="evenodd"></path>
                        <path d="M50.6091785,29.4634986 C50.6241855,30.674881 50.6807501,31.5467529 49.8380526,32.4983059 C49.0415303,33.3967382 46.6519635,36.3241494 44.2623967,36.3241494 L24.8942071,36.3241494 L22.3511077,36.3241494 C20.3621108,36.3241494 18.7355892,34.6958852 18.7355892,32.7073242 L18.7355892,32.7073242 C18.7355892,30.7176085 20.3621108,29.0904991 22.3511077,29.0904991 L23.3392571,29.0904991 L22.7239725,29.1470841 L20.1808731,29.1470841 C18.1918762,29.1470841 16.5653546,27.5188199 16.5653546,25.530259 L16.5653546,25.530259 C16.5653546,23.5405432 18.1918762,21.9134338 20.1808731,21.9134338 L22.7239725,21.9134338 L20.9877848,21.8522295 L18.4446854,21.8522295 C16.4556885,21.8522295 14.8291669,20.2251201 14.8291669,18.2354043 C14.8291669,16.2468434 16.4556885,14.6185792 18.4446854,14.6185792 L20.9877848,14.6185792 L21.1505524,14.4961706 L3.61551851,14.4961706 C1.62767596,14.4961706 0,12.8690612 0,10.8805003 L0,10.8805003 C0,8.8907845 1.62767596,7.26367509 3.61551851,7.26367509 L31.9867186,7.26367509 L31.9867186,7.23249556 L25.6941926,7.23249556 C23.70635,7.23249556 20.0527369,6.19086839 20.0839052,1.86961685 L20.0839052,1.86961685 C20.0839052,0.0912289876 21.6769498,0 23.3161695,0 L39.3077972,0 C39.3077972,0 48.8579839,9.10211241 49.6337273,9.79730039 C50.4094708,10.4913336 50.6553537,11.6565241 50.6137961,13.1889401" id="Stroke-87" stroke="#3C3C3B" stroke-width="1" fill="none" stroke-linejoin="round"></path>
                    </g>
                </g>
                <polygon id="Fill-89" fill="#FFFFFF" mask="url(#mask-2)" points="276.479809 153.359393 283.464963 153.359393 283.464963 128.091273 276.479809 128.091273"></polygon>
                <polygon id="Stroke-90" stroke="#3C3C3B" mask="url(#mask-2)" points="276.479809 153.359393 283.464963 153.359393 283.464963 128.091273 276.479809 128.091273"></polygon>
                <polygon id="Fill-91" fill="#86C4EA" mask="url(#mask-2)" points="283.464963 157.753396 297.939735 157.753396 297.939735 126.902986 283.464963 126.902986"></polygon>
                <polygon id="Stroke-92" stroke="#3C3C3B" mask="url(#mask-2)" points="283.464963 157.753396 297.939735 157.753396 297.939735 126.902986 283.464963 126.902986"></polygon>
                <polygon id="Fill-93" fill="#1D70B8" mask="url(#mask-2)" points="284.019065 157.189855 297.370626 157.189855 297.370626 142.997396 284.019065 142.997396"></polygon>
            </g>
        </g>
    </g>
</svg>