<?xml version="1.0" encoding="utf-8"?>
<!-- Generator: Adobe Illustrator 26.1.0, SVG Export Plug-In . SVG Version: 6.00 Build 0)  -->
<svg version="1.1" id="Layer_1" xmlns="http://www.w3.org/2000/svg" xmlns:xlink="http://www.w3.org/1999/xlink" x="0px" y="0px"
	 viewBox="0 0 380 212" style="enable-background:new 0 0 380 212;" xml:space="preserve">
<style type="text/css">
	.st0{fill-rule:evenodd;clip-rule:evenodd;fill:#F3F2F1;}
	.st1{fill:#F76C06;stroke:#3C3C3B;stroke-miterlimit:10;}
	.st2{fill:#C6C6C5;stroke:#3C3C3B;stroke-miterlimit:10;}
	.st3{fill:#86C4EA;stroke:#3C3C3B;stroke-miterlimit:10;}
	.st4{fill:#1D70B8;}
	.st5{fill:none;stroke:#3C3C3B;stroke-miterlimit:10;}
	.st6{fill:none;stroke:#1D70B8;stroke-width:1.25;stroke-miterlimit:10;}
	.st7{fill:#FFFFFF;stroke:#3C3C3B;stroke-miterlimit:10;}
	.st8{fill:none;stroke:#3C3C3B;stroke-width:2;stroke-miterlimit:10;}
	.st9{fill:#C6C6C5;stroke:#3C3C3B;stroke-linejoin:round;stroke-miterlimit:10;}
	.st10{fill:none;stroke:#C6C6C5;stroke-width:1.25;stroke-miterlimit:10;}
	.st11{fill:#C6C6C5;}
	.st12{fill:#F3F2F1;stroke:#C6C6C5;stroke-width:1.25;stroke-miterlimit:10;}
	.st13{fill:#F4D5C1;}
	.st14{fill:#F7BB92;}
	.st15{fill:#F5F5F5;stroke:#C6C6C5;stroke-width:1.25;stroke-miterlimit:10;}
	.st16{fill:#FFFFFF;}
	.st17{fill:#3C3C3B;}
	.st18{fill:#F76C06;stroke:#3C3C3B;stroke-width:1.5;stroke-miterlimit:10;}
	.st19{fill:#86C4EA;}
	.st20{fill:#1D70B8;stroke:#3C3C3B;stroke-miterlimit:10;}
	.st21{fill:none;stroke:#3C3C3B;stroke-width:1.5;stroke-miterlimit:10;}
	.st22{font-family:'GillSans';}
	.st23{font-size:11.6633px;}
	.st24{font-size:18.8622px;}
</style>
<rect x="1227.2" y="1643.7" class="st0" width="329.2" height="183.6"/>
<polygon class="st1" points="1365.7,1716.8 1413.7,1694.6 1413.7,1772.7 1365.7,1750.6 "/>
<rect x="1328.1" y="1719.9" class="st2" width="21.7" height="27.7"/>
<rect x="1333.5" y="1716.9" class="st3" width="32.4" height="33.7"/>
<rect x="1334.3" y="1717.6" class="st4" width="30.9" height="15.5"/>
<rect x="1413.6" y="1692.3" transform="matrix(-1 -1.224647e-16 1.224647e-16 -1 2831.6497 3468.437)" class="st3" width="4.4" height="83.8"/>
<rect x="1414.3" y="1693.1" class="st4" width="2.9" height="39.8"/>
<line class="st5" x1="1372.7" y1="1733.4" x2="1405.1" y2="1733.4"/>
<line class="st5" x1="1372.7" y1="1724.5" x2="1405.1" y2="1717.1"/>
<line class="st5" x1="1372.7" y1="1742.3" x2="1405.1" y2="1749.7"/>
<polygon class="st2" points="1354.8,1750.8 1344,1750.8 1351.6,1778.5 1362.5,1778.5 "/>
<g>
	<line class="st6" x1="1458.8" y1="1732.8" x2="1431.6" y2="1732.8"/>
	<polyline class="st6" points="1449.5,1723.3 1458.9,1732.7 1449.2,1742.4 	"/>
</g>
<g>
	<line class="st6" x1="1451" y1="1705.5" x2="1424.5" y2="1711.4"/>
	<polyline class="st6" points="1440,1698.2 1451.2,1705.4 1443.8,1717 	"/>
</g>
<g>
	<line class="st6" x1="1450.2" y1="1759.8" x2="1423.7" y2="1753.9"/>
	<polyline class="st6" points="1443.3,1748.5 1450.4,1759.8 1438.7,1767.2 	"/>
</g>
<g>
	<polygon class="st2" points="1266.6,1702.1 1301.8,1702.1 1301.8,1725.5 1281.6,1725.5 1272.8,1732.6 1272.7,1725.5 1266.6,1725.5 
			"/>
	<polygon class="st7" points="1318.1,1688.2 1275.6,1688.2 1275.6,1716.4 1300,1716.4 1310.7,1724.9 1310.7,1716.4 1318.1,1716.4 	
		"/>
	<line class="st5" x1="1283.5" y1="1697.3" x2="1309.8" y2="1697.3"/>
	<line class="st5" x1="1283.5" y1="1702.3" x2="1309.8" y2="1702.3"/>
	<line class="st5" x1="1283.5" y1="1707.3" x2="1302.2" y2="1707.3"/>
</g>
<g>
	<polygon class="st2" points="1289.2,1775 1313.6,1775 1313.6,1791.2 1299.6,1791.2 1293.5,1796.1 1293.5,1791.2 1289.2,1791.2 	"/>
	<polygon class="st7" points="1324.9,1765.3 1295.5,1765.3 1295.5,1784.9 1312.4,1784.9 1319.8,1790.8 1319.8,1784.9 1324.9,1784.9 
			"/>
	<line class="st5" x1="1301" y1="1771.6" x2="1319.2" y2="1771.6"/>
	<line class="st5" x1="1301" y1="1775.1" x2="1319.2" y2="1775.1"/>
	<line class="st5" x1="1301" y1="1778.6" x2="1313.9" y2="1778.6"/>
</g>
<g>
	<polygon class="st3" points="1399.9,1801.5 1383.1,1801.5 1383.1,1778 1394.7,1778 1399.9,1782.8 	"/>
	<polyline class="st5" points="1394.5,1779.2 1394.5,1782.9 1398.5,1782.9 	"/>
	<line class="st5" x1="1385.5" y1="1788.6" x2="1397.7" y2="1788.6"/>
	<line class="st5" x1="1385.5" y1="1791.1" x2="1397.7" y2="1791.1"/>
	<line class="st5" x1="1385.5" y1="1793.6" x2="1394.7" y2="1793.6"/>
	<line class="st5" x1="1385.5" y1="1786.2" x2="1397.7" y2="1786.2"/>
</g>
<g>
	<polygon class="st3" points="1359.5,1698.4 1339.4,1698.4 1339.4,1670.1 1353.3,1670.1 1359.5,1675.9 	"/>
	<polyline class="st5" points="1353.1,1671.5 1353.1,1676 1357.8,1676 	"/>
	<line class="st5" x1="1342.2" y1="1682.9" x2="1356.9" y2="1682.9"/>
	<line class="st5" x1="1342.2" y1="1685.9" x2="1356.9" y2="1685.9"/>
	<line class="st5" x1="1342.2" y1="1688.8" x2="1353.3" y2="1688.8"/>
	<line class="st5" x1="1342.2" y1="1679.9" x2="1356.9" y2="1679.9"/>
</g>
<g>
	<path class="st7" d="M1471.5,1740.6l44.4,0l0.1,0h0.1c2.7,0,4.9-2.2,4.9-4.9h0v-42.4h-44.8v8.1"/>
	<path class="st2" d="M1476.3,1701.6v34.1c0,2.7-2.2,4.9-4.9,4.9h-0.1c-2.7,0-4.9-2.2-4.9-4.9v-34.1H1476.3z"/>
	<line class="st5" x1="1471.5" y1="1705.9" x2="1471.5" y2="1736.3"/>
	<rect x="1482.7" y="1699.7" class="st1" width="10.8" height="10.8"/>
	<line class="st8" x1="1497.6" y1="1702.5" x2="1515.6" y2="1702.5"/>
	<line class="st8" x1="1497.6" y1="1707.6" x2="1512.2" y2="1707.6"/>
	<line class="st5" x1="1482.2" y1="1716.2" x2="1515.6" y2="1716.2"/>
	<line class="st5" x1="1482.2" y1="1721.3" x2="1515.6" y2="1721.3"/>
	<line class="st5" x1="1482.2" y1="1726.4" x2="1515.6" y2="1726.4"/>
	<line class="st5" x1="1482.2" y1="1731.5" x2="1505.7" y2="1731.5"/>
</g>
<g>
	<path class="st9" d="M1493.8,1778.1c-1.1,0-1.9,0.1-2.8-0.7c-0.8-0.7-3.6-3-3.6-5.2c0-1.7,0-18.1,0-18.1v-2.4
		c0-1.9,1.5-3.4,3.4-3.4l0,0c1.9,0,3.4,1.5,3.4,3.4v0.9l-0.1-0.6v-2.4c0-1.9,1.5-3.4,3.4-3.4l0,0c1.9,0,3.4,1.5,3.4,3.4v2.4l0.1-1.6
		v-2.4c0-1.9,1.5-3.4,3.4-3.4h0c1.9,0,3.4,1.5,3.4,3.4v2.4l0.1,0.2v-16.4c0-1.9,1.5-3.4,3.4-3.4l0,0c1.9,0,3.4,1.5,3.4,3.4v26.5h0
		v-5.9c0-1.9,1-5.3,5-5.2l0,0c1.7,0,1.7,1.5,1.7,3v14.9c0,0-8.5,8.9-9.1,9.6c-0.6,0.7-1.7,1-3.2,0.9"/>
	
		<rect x="1497.4" y="1769.6" transform="matrix(-1.836970e-16 1 -1 -1.836970e-16 3282.0115 280.7776)" class="st7" width="6.5" height="23.6"/>
	
		<rect x="1492.4" y="1777" transform="matrix(6.123234e-17 -1 1 6.123234e-17 -292.2922 3290.5325)" class="st3" width="13.5" height="28.8"/>
	
		<rect x="1485.6" y="1784.8" transform="matrix(6.123234e-17 -1 1 6.123234e-17 -299.5312 3283.2781)" class="st4" width="12.5" height="13.2"/>
</g>
<path class="st10" d="M1402.9,1672.5c5.3,0,5.3,6.3,10.7,6.3c5.3,0,5.3-6.3,10.7-6.3c5.3,0,5.3,6.3,10.6,6.3c5.3,0,5.3-6.3,10.7-6.3
	s5.3,6.4,10.6,6.4"/>
<g>
	<g>
		
			<rect x="1462.8" y="1673.7" transform="matrix(0.9444 0.3287 -0.3287 0.9444 631.8187 -388.0783)" class="st11" width="1.6" height="1.6"/>
		
			<rect x="1464.2" y="1671.3" transform="matrix(0.7518 0.6594 -0.6594 0.7518 1466.082 -551.0302)" class="st11" width="1.6" height="1.6"/>
		
			<rect x="1466.6" y="1669.4" transform="matrix(0.4471 0.8945 -0.8945 0.4471 2305.2815 -389.1447)" class="st11" width="1.6" height="1.6"/>
		
			<rect x="1469.4" y="1668.6" transform="matrix(7.835844e-02 0.9969 -0.9969 7.835844e-02 3019.3486 72.9053)" class="st11" width="1.6" height="1.6"/>
		
			<rect x="1472.5" y="1669.1" transform="matrix(-0.3557 0.9346 -0.9346 -0.3557 3558.0464 886.7704)" class="st11" width="1.6" height="1.6"/>
		
			<rect x="1475" y="1670.5" transform="matrix(-0.6628 0.7488 -0.7488 -0.6628 3705.4058 1674.1732)" class="st11" width="1.6" height="1.6"/>
		
			<rect x="1476.7" y="1673" transform="matrix(-0.9099 0.4149 -0.4149 -0.9099 3516.342 2583.7734)" class="st11" width="1.6" height="1.6"/>
		
			<rect x="1477.5" y="1675.9" transform="matrix(-0.9997 2.284168e-02 -2.284168e-02 -0.9997 2994.4224 3319.137)" class="st11" width="1.6" height="1.6"/>
	</g>
	
		<rect x="1477.1" y="1678.7" transform="matrix(-0.9444 -0.3287 0.3287 -0.9444 2321.4646 3751.5029)" class="st11" width="1.6" height="1.6"/>
	
		<rect x="1475.6" y="1681.2" transform="matrix(-0.7518 -0.6594 0.6594 -0.7518 1477.4296 3920.0618)" class="st11" width="1.6" height="1.6"/>
	
		<rect x="1473.3" y="1683" transform="matrix(-0.4471 -0.8945 0.8945 -0.4471 627.0215 3755.1831)" class="st11" width="1.6" height="1.6"/>
	
		<rect x="1470.4" y="1683.8" transform="matrix(-7.835844e-02 -0.9969 0.9969 -7.835844e-02 -92.8928 3283.3184)" class="st11" width="1.6" height="1.6"/>
	
		<rect x="1467.3" y="1683.4" transform="matrix(0.3557 -0.9346 0.9346 0.3557 -628.0513 2457.3337)" class="st11" width="1.6" height="1.6"/>
	
		<rect x="1464.9" y="1681.9" transform="matrix(0.6628 -0.7488 0.7488 0.6628 -765.7613 1664.8077)" class="st11" width="1.6" height="1.6"/>
	
		<rect x="1463.1" y="1679.4" transform="matrix(0.9099 -0.4149 0.4149 0.9099 -565.149 758.7548)" class="st11" width="1.6" height="1.6"/>
	
		<rect x="1462.4" y="1676.6" transform="matrix(0.9997 -2.284168e-02 2.284168e-02 0.9997 -37.9322 33.8603)" class="st11" width="1.6" height="1.6"/>
</g>
<g>
	<line class="st10" x1="1272.1" y1="1678.9" x2="1256.4" y2="1678.9"/>
	<line class="st10" x1="1264.2" y1="1686.7" x2="1264.2" y2="1671.1"/>
</g>
<rect x="1262.3" y="1758.8" transform="matrix(-0.7071 0.7071 -0.7071 -0.7071 3407.1292 2113.4431)" class="st12" width="7.2" height="7.2"/>
<rect x="0" y="0.6" class="st0" width="380" height="211.9"/>
<circle class="st13" cx="187.3" cy="107.5" r="94.7"/>
<circle class="st14" cx="186.4" cy="107.5" r="70.3"/>
<g>
	<line class="st10" x1="51.2" y1="120" x2="51.2" y2="153.7"/>
	<polyline class="st10" points="41.6,127.8 51.1,118.3 61.1,128.2 	"/>
	<line class="st10" x1="51.2" y1="168" x2="51.2" y2="156.2"/>
	<line class="st10" x1="51.2" y1="170.6" x2="51.2" y2="176.4"/>
</g>
<circle class="st15" cx="346.4" cy="111.9" r="3.6"/>
<circle class="st15" cx="337.4" cy="119.5" r="3.6"/>
<g>
	<path class="st16" d="M120.4,101.3c5.5,0,10.1,4.5,10.1,10.1c0,0.2,0,0.3,0,0.5c0,0,0,0.1,0,0.1c0,0.1,0,0.3,0,0.4c0,0,0,0,0,0
		c-0.2,1.7-0.8,3.2-1.7,4.5c0,0,0,0.1-0.1,0.1c-0.1,0.1-0.1,0.2-0.2,0.3c-0.1,0.1-0.2,0.2-0.2,0.3c0,0,0,0,0,0.1
		c-0.2,0.3-0.4,0.5-0.7,0.7c-0.2-0.5-0.6-1.1-1.4-1.5l-1.2-7.7l0,0c0-0.2,0-0.3-0.1-0.5c-0.5-2.8-2.7-4.3-4.5-4.3
		c-0.4,0-0.7,0.1-1.1,0.2c-0.2,0.1-0.4,0.1-0.6,0.2c-0.1,0-0.2,0.1-0.3,0.1c-0.8,0.4-1.5,1.1-2,1.9c-0.3,0.5-0.5,1.2-0.7,1.9
		l-1.2,8.2c-0.7,0.4-1.2,0.9-1.4,1.5c-0.2-0.2-0.5-0.5-0.7-0.7c0,0,0,0,0-0.1c-0.1-0.1-0.2-0.2-0.2-0.3c-0.1-0.1-0.1-0.2-0.2-0.3
		c0,0-0.1-0.1-0.1-0.1c-0.9-1.3-1.5-2.9-1.7-4.5c0,0,0,0,0,0c0-0.1,0-0.3,0-0.4c0,0,0-0.1,0-0.1c0-0.2,0-0.3,0-0.5
		C110.4,105.8,114.9,101.3,120.4,101.3z"/>
	<path class="st11" d="M125.7,116.7c0,0-0.1,0-0.1,0c-0.1,0-0.2-0.1-0.3-0.1c0,0-0.1,0-0.1,0c-0.1,0-0.1-0.1-0.2-0.1v0c0,0,0,0,0,0
		l0,0c-0.1,0-0.1,0-0.2-0.1c0,0,0,0,0,0l-0.1,0c-0.1,0-0.1,0-0.2-0.1l0,0l0,0c0,0,0,0,0,0l-0.1,0c0,0,0,0-0.1,0c0,0-0.1,0-0.1,0l0,0
		c0,0,0,0,0,0c0,0,0,0,0,0c0,0,0,0,0,0c-0.1,0-0.1,0-0.2-0.1l-0.1,0c0,0,0,0,0,0c-0.2,0-0.4-0.1-0.5-0.1c0,0-0.1,0-0.1,0
		c-0.2,0-0.3-0.1-0.5-0.1c0,0-0.1,0-0.1,0c0-0.1,0-0.2,0-0.3v-1.6c0.7-0.6,1.2-1.5,1.2-2.5v-2.1c0,0,0-0.1-0.1-0.1v0h0h-6.4H116
		c0-0.1,0-0.2,0-0.3c0.5-2.7,2.5-4.1,4.3-4.1c0.4,0,0.9,0.1,1.4,0.3c1.4,0.5,2.6,1.8,3,3.9l1.2,8c0,0,0,0,0,0
		C125.8,116.8,125.7,116.7,125.7,116.7z"/>
	<path class="st11" d="M116,116.3C116,116.3,116,116.4,116,116.3c-0.1,0-0.2,0.1-0.2,0.1c0,0,0,0,0,0c0,0-0.1,0-0.1,0c0,0,0,0,0,0
		c-0.1,0-0.2,0.1-0.3,0.1c0,0,0,0,0,0c-0.1,0-0.2,0.1-0.2,0.1c0,0,0,0,0,0c-0.1,0-0.2,0.1-0.3,0.1l1.1-7.5h1.1v2
		c0,1,0.5,1.9,1.2,2.5v1.6c0,0.1,0,0.2,0,0.3c0,0-0.1,0-0.1,0c-0.2,0-0.3,0-0.5,0.1c-0.1,0-0.1,0-0.2,0c-0.2,0-0.4,0.1-0.5,0.1
		c0,0,0,0,0,0v0c0,0,0,0,0,0c-0.1,0-0.2,0-0.3,0.1l0,0c0,0,0,0,0,0h0c0,0-0.1,0-0.1,0c0,0-0.1,0-0.1,0c0,0,0,0,0,0c0,0,0,0-0.1,0
		l-0.1,0C116.2,116.3,116.1,116.3,116,116.3L116,116.3z"/>
	<path class="st16" d="M121.9,114.1C121.9,114.1,121.9,114.1,121.9,114.1c-0.1,0.1-0.2,0.1-0.3,0.1c0,0,0,0-0.1,0
		c-0.1,0-0.1,0.1-0.2,0.1c0,0,0,0-0.1,0c-0.1,0-0.1,0-0.2,0.1c0,0,0,0-0.1,0c-0.1,0-0.1,0-0.2,0c0,0-0.1,0-0.1,0c-0.1,0-0.2,0-0.3,0
		c-0.1,0-0.2,0-0.3,0c0,0-0.1,0-0.1,0c-0.1,0-0.1,0-0.2,0c0,0-0.1,0-0.1,0c0,0-0.1,0-0.1,0c-0.1,0-0.1,0-0.1,0c0,0-0.1,0-0.1,0
		c0,0-0.1,0-0.1-0.1c0,0-0.1,0-0.1-0.1c0,0-0.1,0-0.1-0.1c-1-0.5-1.6-1.5-1.6-2.7v-2h6.2v2C123.5,112.5,122.8,113.6,121.9,114.1z"/>
	<path class="st16" d="M116.1,116.5C116.1,116.5,116.1,116.5,116.1,116.5l0.3-0.1c0.1,0,0.2,0,0.2-0.1c0,0,0.1,0,0.1,0c0,0,0,0,0,0
		c0.1,0,0.2-0.1,0.4-0.1c0.2,0,0.4-0.1,0.6-0.1c0.1,0,0.1,0,0.2,0c0.1,0,0.3,0,0.4-0.1c0.1,0,0.1,0,0.2,0c0,0,0,0,0,0c0,0,0,0,0,0
		c0,0,0,0,0,0c0,0,0,0,0,0c0,0,0,0,0,0c0,0,0,0,0,0c0,0,0,0,0,0c0,0,0,0,0,0c0-0.1,0-0.3,0-0.4v-1.4c0,0,0,0,0,0c0,0,0,0,0.1,0
		c0.1,0,0.1,0.1,0.2,0.1c0,0,0.1,0,0.1,0.1c0.1,0,0.1,0.1,0.2,0.1c0,0,0.1,0,0.1,0.1c0.1,0,0.1,0.1,0.2,0.1c0.1,0,0.1,0,0.2,0.1
		c0.1,0,0.1,0,0.2,0c0,0,0.1,0,0.1,0c0.1,0,0.1,0,0.2,0c0,0,0.1,0,0.1,0c0.1,0,0.2,0,0.3,0c0.1,0,0.2,0,0.3,0c0,0,0.1,0,0.1,0
		c0.1,0,0.2,0,0.2,0c0,0,0,0,0.1,0c0.2,0,0.4-0.1,0.6-0.2c0,0,0,0,0,0c0.1,0,0.2-0.1,0.2-0.1c0,0,0,0,0.1,0c0.1,0,0.1-0.1,0.2-0.1
		c0,0,0,0,0.1,0c0,0,0,0,0,0v1.4c0,0.1,0,0.2,0,0.4c0,0,0,0,0,0c0,0,0,0,0,0c0,0,0,0,0,0c0,0,0,0,0,0c0,0,0,0,0,0c0,0,0,0,0,0
		c0,0,0,0,0,0c0,0,0,0,0.1,0c0,0,0.1,0,0.1,0c0.2,0,0.3,0,0.4,0.1c0.1,0,0.1,0,0.2,0c0.2,0,0.4,0.1,0.5,0.1c0.1,0,0.2,0.1,0.3,0.1
		c0,0,0,0,0,0c0,0,0,0,0,0c0,0,0.1,0,0.1,0c0,0,0.1,0,0.1,0l0.1,0l0,0c0,0,0,0,0,0c0.2,0,0.3,0.1,0.5,0.2c-0.2,1.6-2.1,2.8-4.4,2.8
		c-2.3,0-4.2-1.2-4.4-2.8C116,116.6,116,116.6,116.1,116.5z"/>
	<path class="st4" d="M113.5,118.6c0.1-0.6,0.6-1.1,1.4-1.5c0,0,0,0,0,0c0.1-0.1,0.2-0.1,0.3-0.1c0.1,0,0.1-0.1,0.2-0.1
		c0,0,0.1,0,0.1,0c0.1,0,0.2-0.1,0.3-0.1c0.3,1.7,2.3,2.9,4.6,2.9c2.4,0,4.4-1.3,4.6-2.9c0.1,0,0.1,0,0.2,0.1c0,0,0.1,0,0.1,0.1
		c0.1,0,0.2,0.1,0.2,0.1c0.1,0,0.1,0.1,0.2,0.1c0.1,0,0.1,0.1,0.2,0.1c0.8,0.5,1.3,1,1.4,1.6c-1.8,1.7-4.3,2.8-7,2.8
		C117.7,121.4,115.3,120.4,113.5,118.6z"/>
	<g>
		<g>
			<path class="st17" d="M120.4,119.9c-2.4,0-4.4-1.2-4.9-2.8c-1,0.5-1.6,1-1.8,1.6c0,0.2-0.1,0.3-0.3,0.3c-0.2,0-0.3,0-0.4-0.1
				c-2.1-2-3.2-4.7-3.2-7.6c0-5.8,4.8-10.6,10.6-10.6c5.8,0,10.6,4.8,10.6,10.6c0,2.9-1.1,5.6-3.2,7.6c-0.1,0.1-0.3,0.1-0.4,0.1
				c-0.2,0-0.3-0.2-0.3-0.3c-0.1-0.6-0.8-1.2-1.8-1.6C124.8,118.7,122.8,119.9,120.4,119.9z M116.3,116.7c0.4,1.3,2.1,2.3,4.1,2.3
				c2,0,3.7-1,4.1-2.3l0,0c-0.1,0-0.1,0-0.2-0.1l-0.3-0.1c-0.5-0.1-1-0.2-1.6-0.3c-0.2,0-0.4-0.2-0.4-0.4c0-0.1,0.1-0.2,0.1-0.3
				c0.1-0.1,0.2-0.1,0.3-0.1c0.6,0.1,1.2,0.2,1.7,0.3c0,0,0.1,0,0.1,0c0,0,0.1,0,0.2,0l0.1,0c0.1,0,0.1,0,0.2,0.1l0.1,0c0,0,0,0,0,0
				c0,0,0,0,0,0l0.2,0.1c0,0,0,0,0,0c1.2,0.5,2,1.1,2.5,1.8c1.6-1.8,2.5-4.1,2.5-6.5c0-5.4-4.4-9.7-9.7-9.7c-5.4,0-9.7,4.4-9.7,9.7
				c0,2.4,0.9,4.7,2.5,6.5c0.4-0.7,1.3-1.3,2.5-1.8c0,0,0,0,0,0c0.3-0.1,0.6-0.2,0.9-0.3c0,0,0,0,0,0c0.5-0.1,1.1-0.3,1.7-0.3
				c0.1,0,0.2,0,0.3,0.1c0.1,0.1,0.2,0.3,0.2,0.5c0,0.2-0.2,0.3-0.4,0.3c-0.6,0.1-1.1,0.2-1.6,0.3c0,0,0,0,0,0l0,0
				C116.7,116.6,116.5,116.7,116.3,116.7z"/>
		</g>
		<g>
			<path class="st17" d="M126.1,117.4c-0.1,0-0.2,0-0.2-0.1c-0.4-0.3-0.9-0.5-1.6-0.7c0,0,0,0,0,0c-0.1,0-0.2-0.1-0.3-0.1l-0.1,0
				c-0.1,0-0.1,0-0.2-0.1l-0.1,0c0,0,0,0,0,0c-0.4-0.1-0.8-0.2-1.3-0.2c-0.1,0-0.2-0.1-0.3-0.2c-0.1-0.1-0.1-0.2-0.1-0.3
				c0-0.1,0-0.2,0-0.3v-0.9c-1,0.5-2.2,0.5-3.2,0v0.9c0,0.1,0,0.2,0,0.3c0,0.1,0,0.2-0.1,0.3c-0.1,0.1-0.2,0.2-0.3,0.2
				c-0.5,0.1-0.9,0.1-1.3,0.2c-0.1,0-0.2,0.1-0.3,0.1l0,0c-0.1,0-0.2,0-0.3,0.1c0,0-0.1,0-0.1,0l-0.3,0.1c-0.5,0.2-0.9,0.4-1.2,0.6
				c-0.1,0.1-0.3,0.1-0.5,0c-0.1-0.1-0.2-0.3-0.2-0.4l1.2-8.3c0.5-2.7,2.5-4.6,4.9-4.6c2.3,0,4.4,1.9,4.9,4.6l1.2,8.3
				c0,0.2,0,0.3-0.2,0.4C126.2,117.4,126.2,117.4,126.1,117.4z M124.2,115.8c0.1,0,0.2,0.1,0.3,0.1c0,0,0,0,0,0
				c0.4,0.1,0.7,0.2,1,0.4l-1.1-7.4c-0.5-2.5-2.4-3.8-4-3.8c-1.6,0-3.6,1.3-4,3.9l-1.1,7.4c0.2-0.1,0.4-0.2,0.6-0.2l0.3-0.1
				c0,0,0,0,0,0l0,0c0,0,0,0,0,0c0.1,0,0.2,0,0.3-0.1l0,0c0,0,0,0,0,0c0.1,0,0.2,0,0.3-0.1c0,0,0,0,0,0c0.3-0.1,0.7-0.1,1-0.2
				c0,0,0,0,0,0v-1.6c0-0.2,0.1-0.3,0.2-0.4c0.2-0.1,0.3-0.1,0.5,0.1c0.5,0.4,1.1,0.6,1.7,0.6c0.6,0,1.2-0.2,1.7-0.6
				c0.1-0.1,0.3-0.1,0.5-0.1c0.2,0.1,0.2,0.2,0.2,0.4v1.6c0,0,0,0,0,0c0.3,0.1,0.7,0.1,1,0.2c0,0,0,0,0,0c0,0,0,0,0,0l0.1,0
				C124,115.7,124.1,115.7,124.2,115.8l-0.1,0.4L124.2,115.8z"/>
		</g>
		<g>
			<g>
				<path class="st17" d="M120.4,121.9c-5.8,0-10.6-4.8-10.6-10.6c0-5.8,4.8-10.6,10.6-10.6c5.8,0,10.6,4.8,10.6,10.6
					C131,117.2,126.2,121.9,120.4,121.9z M120.4,101.6c-5.4,0-9.7,4.4-9.7,9.7c0,5.4,4.4,9.7,9.7,9.7c5.4,0,9.7-4.4,9.7-9.7
					C130.1,106,125.8,101.6,120.4,101.6z"/>
			</g>
		</g>
		<g>
			<path class="st17" d="M123.6,109.6h-7.7c-0.1,0-0.2-0.1-0.3-0.1c-0.1-0.1-0.1-0.2-0.1-0.3l0.1-0.5c0.5-2.7,2.5-4.6,4.9-4.6
				c2.3,0,4.4,1.9,4.9,4.6l0.1,0.5l-0.9,0.1l-0.1-0.5c-0.5-2.5-2.4-3.8-4-3.8c-1.6,0-3.5,1.3-4,3.8h7.2V109.6z"/>
		</g>
		<g>
			<path class="st17" d="M120.4,115c-2,0-3.6-1.6-3.6-3.6v-2.1c0-0.2,0.2-0.4,0.4-0.4h6.4c0.2,0,0.4,0.2,0.4,0.4v2.1
				C124,113.3,122.4,115,120.4,115z M117.6,109.6v1.7c0,1.5,1.2,2.8,2.8,2.8c1.5,0,2.8-1.2,2.8-2.8v-1.7H117.6z"/>
		</g>
	</g>
</g>
<path class="st16" d="M110.3,147.7c0,12.7-10.3,22.9-22.9,22.9c-12.7,0-22.9-10.3-22.9-22.9c0-12.7,10.3-22.9,22.9-22.9
	C100,124.7,110.3,135,110.3,147.7z"/>
<path class="st4" d="M104,159.8c0-0.9-1.1-1.9-2.6-2.2c-10-1.9-18-1.9-28,0c-1.4,0.3-2.6,1.3-2.6,2.2c-0.1,0.8-0.2,1.6-0.3,2.2
	c4.2,4.6,10.2,7.4,16.9,7.4c6.7,0,12.7-2.9,16.9-7.4C104.2,161.4,104.1,160.6,104,159.8z"/>
<path class="st17" d="M87.6,171.2c-6.5,0-12.8-2.9-17.3-8.1l-0.4-0.5L70,162c0.1-0.7,0.2-1.4,0.3-2.2c0.1-1.6,1.6-3,3.5-3.4
	c10-2,17.5-2,27.5,0c2,0.4,3.4,1.9,3.5,3.4c0.1,0.8,0.2,1.6,0.3,2.2l0.1,0.6l-0.4,0.5C100.4,168.3,94.1,171.2,87.6,171.2z
	 M71.6,161.6c4.2,4.8,9.9,7.5,15.9,7.5c6,0,11.8-2.7,15.9-7.5c-0.1-0.6-0.2-1.1-0.3-1.8l0-0.1v-0.1c0-0.2-0.6-0.8-1.6-1
	c-10.3-2.2-17.9-2.2-28.2,0c-1,0.2-1.5,0.9-1.6,1.1l0,0.1l0,0.1C71.7,160.4,71.6,161,71.6,161.6z"/>
<path class="st16" d="M92.2,160.7c0.2-1.1,0.3-4.3,0.5-5.4c1-0.6,1.7-1.6,1.8-2.4c0.1-1,0.2-2,0.3-3c0.1,0.1,0.3,0.3,0.5,0.3
	c0.5,0,0.9-0.3,1-0.8l0.5-4.6c0.1-0.5-0.3-0.9-0.8-0.9c-0.2,0-0.4,0-0.5,0.1c0.1-0.9,0.2-1.7,0.3-2.6c0.1-1.2,0.7-4.4-1.6-6.5
	c-3.3-3.3-10.7-3.3-14,0c-2.3,2.1-1.7,5.3-1.6,6.5c0.1,0.9,0.2,1.7,0.3,2.6c-0.1-0.1-0.3-0.1-0.5-0.1c-0.5,0-0.8,0.5-0.8,0.9
	l0.5,4.6c0,0.5,0.5,0.8,1,0.8c0.2,0,0.4-0.1,0.5-0.3c0.1,1,0.2,2,0.3,3c0.1,0.8,0.8,1.7,1.8,2.4c0.2,1.1,0.3,4.3,0.5,5.4l4.6,4.1
	L92.2,160.7z"/>
<path class="st17" d="M86.7,164.9c-0.3,0-0.6-0.1-0.9-0.3l-4.6-4.1c-0.2-0.2-0.4-0.5-0.4-0.8c-0.1-0.6-0.2-1.6-0.2-2.8
	c-0.1-0.8-0.1-1.5-0.2-2.1c-1.1-0.8-1.8-2-1.9-3c-0.1-0.5-0.1-1-0.2-1.6c-0.9-0.2-1.6-1-1.7-1.9l-0.5-4.6c-0.1-0.9,0.4-1.7,1.1-2.1
	c0-0.4-0.1-0.8-0.1-1.2l0-0.1c0-0.2,0-0.3,0-0.5c-0.1-1.6-0.5-4.8,2.1-7.1c1.8-1.8,4.7-2.8,7.9-2.8c3.2,0,6.1,1,7.9,2.8
	c2.5,2.3,2.2,5.5,2.1,7.1c0,0.1,0,0.3,0,0.4c-0.1,0.5-0.1,0.9-0.2,1.4c0.2,0.1,0.5,0.3,0.7,0.5c0.4,0.5,0.5,1,0.5,1.6l-0.5,4.6
	c-0.1,0.9-0.8,1.7-1.7,1.9c-0.1,0.5-0.1,1.1-0.2,1.6c-0.1,1-0.8,2.1-1.9,2.9c-0.1,0.6-0.1,1.3-0.2,2.1c-0.1,1.1-0.2,2.2-0.2,2.8
	c0,0.3-0.2,0.7-0.5,0.9l-5.5,4.1C87.3,164.9,87,164.9,86.7,164.9z M83.4,158.9l3.5,3.1l4.2-3.1c0.1-0.6,0.1-1.3,0.2-2.1
	c0.1-1.1,0.2-2.2,0.2-2.8c0.1-0.4,0.3-0.7,0.6-0.9c0.8-0.5,1.2-1.2,1.2-1.4c0.1-1,0.2-2,0.4-3c0.1-0.5,0.4-0.9,0.9-1.1
	c0.2-0.1,0.5-0.1,0.7,0l0.3-3.4c-0.2,0-0.4-0.1-0.6-0.2c-0.4-0.3-0.6-0.8-0.6-1.2c0.1-0.9,0.2-1.7,0.3-2.6c0-0.1,0-0.2,0-0.4
	c0.1-1.3,0.3-3.5-1.2-4.9c-1.4-1.3-3.7-2.1-6.1-2.1c-2.5,0-4.8,0.8-6.1,2.1c-1.6,1.4-1.4,3.7-1.3,5c0,0.2,0,0.3,0,0.5l0,0.1
	c0.1,0.8,0.2,1.7,0.3,2.5c0.1,0.5-0.2,1-0.6,1.2c-0.2,0.1-0.4,0.2-0.6,0.2l0.3,3.4c0.2,0,0.4,0,0.7,0c0.5,0.2,0.8,0.6,0.9,1.1
	c0.1,1,0.2,2,0.3,3c0,0.3,0.4,0.9,1.2,1.4c0.3,0.2,0.5,0.5,0.6,0.9c0.1,0.6,0.2,1.7,0.2,2.8C83.2,157.5,83.3,158.3,83.4,158.9z"/>
<polygon class="st17" points="89.3,158.3 84.9,158.3 80.9,156.4 82.1,154 85.5,155.7 89.3,155.7 "/>
<circle class="st18" cx="187.3" cy="107.5" r="37.7"/>
<polygon class="st17" points="209.4,104.2 186.8,81.7 186.8,81.7 186.8,81.7 164.2,104.2 168.8,108.9 183.6,94.1 183.6,137.6 
	190.1,137.6 190.1,94.2 204.8,108.9 "/>
<g>
	<path class="st16" d="M216.8,180c0,8-6.5,14.4-14.4,14.4c-8,0-14.4-6.5-14.4-14.4c0-8,6.5-14.4,14.4-14.4
		C210.3,165.6,216.8,172.1,216.8,180z"/>
	<path class="st17" d="M202.3,195.3c-8.4,0-15.2-6.8-15.2-15.2c0-8.4,6.8-15.2,15.2-15.2c8.4,0,15.2,6.8,15.2,15.2
		C217.6,188.4,210.8,195.3,202.3,195.3z M202.3,166.4c-7.5,0-13.6,6.1-13.6,13.6s6.1,13.6,13.6,13.6c7.5,0,13.6-6.1,13.6-13.6
		S209.8,166.4,202.3,166.4z"/>
	<path class="st19" d="M212.8,188.4c0-0.6-0.7-1.2-1.6-1.4c-6.3-1.2-11.3-1.2-17.6,0c-0.9,0.2-1.6,0.8-1.6,1.4
		c-0.1,0.5-0.2,1-0.2,1.4c2.6,2.9,6.4,4.7,10.6,4.7c4.2,0,8-1.8,10.6-4.7C212.9,189.3,212.9,188.9,212.8,188.4z"/>
	<path class="st17" d="M202.3,195.3c-4.3,0-8.4-1.8-11.2-4.9l-0.3-0.3l0.1-0.4c0.1-0.4,0.1-0.9,0.2-1.4c0-1,1-1.9,2.3-2.1
		c6.5-1.2,11.4-1.2,17.9,0c1.3,0.2,2.2,1.1,2.3,2.1c0.1,0.5,0.2,1,0.2,1.4l0.1,0.4l-0.3,0.3C210.7,193.5,206.6,195.3,202.3,195.3z
		 M192.6,189.5c2.6,2.6,6.1,4.1,9.8,4.1c3.7,0,7.2-1.5,9.8-4.1c0-0.3-0.1-0.6-0.2-1l0-0.1v-0.1c0-0.1-0.4-0.5-1-0.6
		c-6.3-1.2-11-1.2-17.3,0c-0.6,0.1-0.9,0.5-1,0.6l0,0.1l0,0C192.7,188.8,192.6,189.2,192.6,189.5z"/>
	<path class="st16" d="M205.4,188.2c0.1-0.7,0.2-2.7,0.3-3.4c0.6-0.4,1.1-1,1.1-1.5c0.1-0.6,0.1-1.2,0.2-1.9
		c0.1,0.1,0.2,0.2,0.3,0.2c0.3,0,0.6-0.2,0.6-0.5l0.3-2.9c0-0.3-0.2-0.6-0.5-0.6c-0.1,0-0.2,0-0.3,0.1c0.1-0.6,0.1-1.1,0.2-1.6
		c0.1-0.8,0.4-2.8-1-4.1c-2.1-2.1-6.7-2.1-8.8,0c-1.5,1.3-1.1,3.3-1,4.1c0.1,0.6,0.1,1.1,0.2,1.6c-0.1-0.1-0.2-0.1-0.3-0.1
		c-0.3,0-0.5,0.3-0.5,0.6l0.3,2.9c0,0.3,0.3,0.5,0.6,0.5c0.1,0,0.3-0.1,0.3-0.2c0.1,0.6,0.1,1.3,0.2,1.9c0,0.5,0.5,1.1,1.1,1.5
		c0.1,0.7,0.2,2.7,0.3,3.4l2.9,2.6L205.4,188.2z"/>
	<path class="st17" d="M202,191.6c-0.2,0-0.4-0.1-0.5-0.2l-2.9-2.6c-0.1-0.1-0.2-0.3-0.3-0.5c0-0.4-0.1-1-0.1-1.7
		c0-0.5-0.1-1-0.1-1.3c-0.7-0.5-1.1-1.2-1.2-1.9c0-0.3-0.1-0.7-0.1-1c-0.6-0.1-1-0.6-1-1.2l-0.3-2.9c-0.1-0.6,0.2-1.1,0.7-1.3
		c0-0.2-0.1-0.5-0.1-0.8l0-0.1c0-0.1,0-0.2,0-0.3c-0.1-1-0.3-3,1.3-4.5c1.1-1.1,2.9-1.8,5-1.8c2,0,3.8,0.6,5,1.8
		c1.6,1.4,1.4,3.5,1.3,4.5c0,0.1,0,0.2,0,0.2c0,0.3-0.1,0.6-0.1,0.9c0.2,0.1,0.3,0.2,0.4,0.3c0.2,0.3,0.3,0.6,0.3,1l-0.3,2.9
		c-0.1,0.6-0.5,1.1-1,1.2c0,0.3-0.1,0.7-0.1,1c0,0.6-0.5,1.3-1.2,1.9c0,0.3-0.1,0.8-0.1,1.3c-0.1,0.7-0.1,1.4-0.1,1.8
		c0,0.2-0.1,0.4-0.3,0.5l-3.4,2.6C202.3,191.5,202.1,191.6,202,191.6z M199.8,187.8l2.2,1.9l2.6-2c0-0.3,0.1-0.8,0.1-1.3
		c0.1-0.7,0.1-1.4,0.1-1.8c0-0.2,0.2-0.4,0.4-0.6c0.5-0.3,0.7-0.7,0.7-0.9c0.1-0.7,0.2-1.3,0.2-1.9c0-0.3,0.3-0.6,0.6-0.7
		c0.1,0,0.3-0.1,0.4,0l0.2-2.1c-0.1,0-0.3-0.1-0.4-0.1c-0.3-0.2-0.4-0.5-0.4-0.8c0.1-0.6,0.1-1.1,0.2-1.6c0,0,0-0.1,0-0.3
		c0.1-0.8,0.2-2.2-0.8-3.1c-0.9-0.8-2.3-1.3-3.9-1.3c-1.6,0-3,0.5-3.8,1.3c-1,0.9-0.9,2.3-0.8,3.1c0,0.1,0,0.2,0,0.3l0,0
		c0.1,0.5,0.1,1,0.2,1.6c0,0.3-0.1,0.6-0.4,0.8c-0.1,0.1-0.3,0.1-0.4,0.1l0.2,2.1c0.1,0,0.3,0,0.4,0c0.3,0.1,0.5,0.4,0.6,0.7
		c0.1,0.6,0.1,1.2,0.2,1.9c0,0.2,0.3,0.6,0.8,0.9c0.2,0.1,0.3,0.3,0.4,0.6c0.1,0.4,0.1,1,0.2,1.8
		C199.7,186.9,199.8,187.4,199.8,187.8z"/>
	<polygon class="st17" points="203.6,186.7 200.8,186.7 198.3,185.5 199,184 201.2,185.1 203.6,185.1 	"/>
</g>
<g>
	<path class="st16" d="M319.1,119.6c0,12.5-10.1,22.7-22.7,22.7c-12.5,0-22.7-10.1-22.7-22.7c0-12.5,10.1-22.7,22.7-22.7
		C308.9,97,319.1,107.1,319.1,119.6z"/>
	<path class="st19" d="M312.8,132.7c0-0.9-1.1-1.9-2.5-2.2c-9.9-1.9-17.8-1.9-27.7,0c-1.4,0.3-2.5,1.3-2.5,2.2
		c-0.1,0.8-0.2,1.6-0.3,2.2c4.1,4.5,10.1,7.4,16.7,7.4c6.6,0,12.6-2.8,16.7-7.4C313,134.3,312.9,133.6,312.8,132.7z"/>
	<path class="st17" d="M296.4,143.6c-6.7,0-13.1-2.8-17.7-7.8l-0.4-0.4l0.1-0.6c0.1-0.6,0.2-1.3,0.3-2.2c0.1-1.5,1.6-2.9,3.6-3.3
		c10.3-1.9,17.9-1.9,28.2,0c2,0.4,3.5,1.8,3.6,3.3c0.1,0.8,0.2,1.5,0.3,2.2l0.1,0.6l-0.4,0.4C309.6,140.7,303.1,143.6,296.4,143.6z
		 M281.1,134.5c4,4.1,9.6,6.5,15.4,6.5c5.8,0,11.3-2.4,15.4-6.5c-0.1-0.5-0.1-1-0.2-1.6l0-0.1v-0.1c0-0.2-0.6-0.7-1.5-0.9
		c-9.9-1.9-17.3-1.9-27.2,0c-0.9,0.2-1.5,0.7-1.5,0.9l0,0.1l0,0.1C281.2,133.5,281.1,134,281.1,134.5z"/>
	<path class="st16" d="M301.2,132.5c0.1-1.1,0.3-4.3,0.5-5.3c1-0.6,1.7-1.6,1.8-2.4c0.1-1,0.2-2,0.3-3c0.1,0.1,0.3,0.2,0.5,0.3
		c0.5,0,0.9-0.3,0.9-0.8l0.5-4.5c0-0.5-0.3-0.9-0.8-0.9c-0.2,0-0.3,0-0.5,0.1c0.1-0.9,0.2-1.7,0.3-2.6c0.1-1.2,0.7-4.3-1.6-6.4
		c-3.3-3.2-10.6-3.2-13.9,0c-2.3,2-1.7,5.2-1.6,6.4c0.1,0.9,0.2,1.7,0.3,2.6c-0.1-0.1-0.3-0.1-0.5-0.1c-0.5,0-0.8,0.5-0.8,0.9
		l0.5,4.5c0,0.5,0.5,0.8,0.9,0.8c0.2,0,0.4-0.1,0.5-0.3c0.1,1,0.2,2,0.3,3c0.1,0.8,0.8,1.7,1.8,2.4c0.1,1.1,0.3,4.3,0.4,5.3l4.6,4.1
		L301.2,132.5z"/>
	<path class="st17" d="M295.8,137.8c-0.3,0-0.6-0.1-0.9-0.3l-4.6-4.1c-0.2-0.2-0.4-0.5-0.4-0.8c-0.1-0.6-0.2-1.6-0.2-2.7
		c-0.1-0.7-0.1-1.5-0.2-2.1c-1.1-0.8-1.8-1.9-1.8-3c-0.1-0.5-0.1-1-0.2-1.6c-0.9-0.2-1.5-0.9-1.6-1.9l-0.5-4.5
		c-0.1-0.9,0.4-1.7,1.1-2.1c0-0.4-0.1-0.8-0.1-1.2l0-0.1c0-0.2,0-0.3,0-0.5c-0.1-1.5-0.5-4.8,2.1-7c1.8-1.7,4.6-2.8,7.8-2.8
		c3.2,0,6,1,7.8,2.8c2.5,2.2,2.2,5.5,2,7c0,0.1,0,0.3,0,0.4c-0.1,0.5-0.1,0.9-0.2,1.4c0.2,0.1,0.5,0.3,0.6,0.5
		c0.4,0.4,0.5,1,0.5,1.6l-0.5,4.5c-0.1,0.9-0.8,1.7-1.6,1.9c-0.1,0.5-0.1,1.1-0.2,1.6c-0.1,1-0.8,2.1-1.8,2.9
		c-0.1,0.5-0.1,1.3-0.2,2c-0.1,1.1-0.2,2.2-0.2,2.8c0,0.3-0.2,0.6-0.5,0.9l-5.4,4.1C296.3,137.7,296.1,137.8,295.8,137.8z
		 M292.4,131.8l3.4,3l4.1-3.1c0.1-0.5,0.1-1.3,0.2-2.1c0.1-1.1,0.2-2.2,0.2-2.8c0.1-0.4,0.3-0.7,0.6-0.9c0.8-0.5,1.2-1.1,1.2-1.4
		c0.1-1,0.2-2,0.3-3c0.1-0.5,0.4-0.9,0.9-1.1c0.2-0.1,0.4-0.1,0.7,0l0.3-3.3c-0.2,0-0.4-0.1-0.6-0.2c-0.4-0.3-0.6-0.7-0.6-1.2
		c0.1-0.9,0.2-1.7,0.3-2.6c0-0.1,0-0.2,0-0.4c0.1-1.3,0.3-3.5-1.2-4.9c-1.4-1.3-3.6-2.1-6.1-2.1c-2.5,0-4.7,0.8-6,2.1
		c-1.6,1.4-1.4,3.6-1.3,4.9c0,0.2,0,0.3,0,0.5l0,0.1c0.1,0.8,0.2,1.6,0.3,2.5c0.1,0.5-0.2,1-0.6,1.2c-0.2,0.1-0.4,0.2-0.6,0.2
		l0.3,3.3c0.2,0,0.4,0,0.7,0c0.5,0.2,0.8,0.6,0.9,1.1c0.1,1,0.2,2,0.3,2.9c0,0.3,0.4,0.9,1.2,1.4c0.3,0.2,0.5,0.5,0.6,0.9
		c0.1,0.6,0.2,1.6,0.2,2.8C292.3,130.5,292.4,131.3,292.4,131.8z"/>
	<polygon class="st17" points="298.4,130.1 293.9,130.1 290.1,128.2 291.2,125.9 294.6,127.6 298.4,127.6 	"/>
</g>
<g>
	<path class="st16" d="M85.4,91.2c0,8-6.5,14.4-14.4,14.4c-8,0-14.4-6.5-14.4-14.4c0-8,6.5-14.4,14.4-14.4
		C79,76.8,85.4,83.2,85.4,91.2z"/>
	<path class="st4" d="M81.4,99.5c0-0.6-0.7-1.2-1.6-1.4c-6.3-1.2-11.3-1.2-17.6,0c-0.9,0.2-1.6,0.8-1.6,1.4c-0.1,0.5-0.2,1-0.2,1.4
		c2.6,2.9,6.4,4.7,10.6,4.7c4.2,0,8-1.8,10.6-4.7C81.6,100.5,81.5,100.1,81.4,99.5z"/>
	<path class="st17" d="M71,105.9c-4.3,0-8.4-1.8-11.2-4.9l-0.3-0.3l0.1-0.4c0.1-0.4,0.1-0.9,0.2-1.4c0-1,1-1.9,2.3-2.1
		c6.5-1.2,11.4-1.2,17.9,0c1.3,0.2,2.2,1.1,2.3,2.1c0.1,0.5,0.2,1,0.2,1.4l0.1,0.4l-0.3,0.3C79.4,104.1,75.3,105.9,71,105.9z
		 M61.2,100.1c2.6,2.6,6.1,4.1,9.8,4.1c3.7,0,7.2-1.5,9.8-4.1c0-0.3-0.1-0.6-0.2-1l0-0.1V99c0-0.1-0.4-0.5-1-0.6
		c-6.3-1.2-11-1.2-17.3,0c-0.6,0.1-0.9,0.5-1,0.6l0,0.1l0,0C61.3,99.5,61.3,99.8,61.2,100.1z"/>
	<path class="st16" d="M74,99.4c0.1-0.7,0.2-2.7,0.3-3.4c0.6-0.4,1.1-1,1.1-1.5c0.1-0.6,0.1-1.2,0.2-1.9c0.1,0.1,0.2,0.2,0.3,0.2
		c0.3,0,0.6-0.2,0.6-0.5l0.3-2.9c0-0.3-0.2-0.6-0.5-0.6c-0.1,0-0.2,0-0.3,0.1c0.1-0.6,0.1-1.1,0.2-1.6c0.1-0.8,0.4-2.8-1-4.1
		c-2.1-2.1-6.7-2.1-8.8,0c-1.5,1.3-1.1,3.3-1,4.1c0.1,0.6,0.1,1.1,0.2,1.6c-0.1-0.1-0.2-0.1-0.3-0.1c-0.3,0-0.5,0.3-0.5,0.6l0.3,2.9
		c0,0.3,0.3,0.5,0.6,0.5c0.1,0,0.3-0.1,0.3-0.2c0.1,0.6,0.1,1.3,0.2,1.9c0,0.5,0.5,1.1,1.1,1.5c0.1,0.7,0.2,2.7,0.3,3.4l2.9,2.6
		L74,99.4z"/>
	<path class="st17" d="M70.6,102.2c-0.2,0-0.4-0.1-0.5-0.2l-2.9-2.6c-0.1-0.1-0.2-0.3-0.3-0.5c0-0.4-0.1-1-0.1-1.7
		c0-0.5-0.1-1-0.1-1.3c-0.7-0.5-1.1-1.2-1.2-1.9c0-0.3-0.1-0.7-0.1-1c-0.6-0.1-1-0.6-1-1.2L64,88.9c-0.1-0.6,0.2-1.1,0.7-1.3
		c0-0.2-0.1-0.5-0.1-0.8l0-0.1c0-0.1,0-0.2,0-0.3c-0.1-1-0.3-3,1.3-4.5c1.1-1.1,2.9-1.8,5-1.8c2,0,3.8,0.6,5,1.8
		c1.6,1.4,1.4,3.5,1.3,4.5c0,0.1,0,0.2,0,0.2c0,0.3-0.1,0.6-0.1,0.9c0.2,0.1,0.3,0.2,0.4,0.3c0.2,0.3,0.3,0.6,0.3,1l-0.3,2.9
		c-0.1,0.6-0.5,1.1-1,1.2c0,0.3-0.1,0.7-0.1,1c0,0.6-0.5,1.3-1.2,1.9c0,0.3-0.1,0.8-0.1,1.3c-0.1,0.7-0.1,1.4-0.1,1.8
		c0,0.2-0.1,0.4-0.3,0.5l-3.4,2.6C70.9,102.2,70.8,102.2,70.6,102.2z M68.5,98.4l2.2,1.9l2.6-2c0-0.3,0.1-0.8,0.1-1.3
		c0.1-0.7,0.1-1.4,0.1-1.8c0-0.2,0.2-0.4,0.4-0.6c0.5-0.3,0.7-0.7,0.7-0.9c0.1-0.7,0.2-1.3,0.2-1.9c0-0.3,0.3-0.6,0.6-0.7
		c0.1,0,0.3-0.1,0.4,0l0.2-2.1c-0.1,0-0.3-0.1-0.4-0.1c-0.3-0.2-0.4-0.5-0.4-0.8c0.1-0.6,0.1-1.1,0.2-1.6c0,0,0-0.1,0-0.3
		c0.1-0.8,0.2-2.2-0.8-3.1c-0.9-0.8-2.3-1.3-3.9-1.3c-1.6,0-3,0.5-3.8,1.3c-1,0.9-0.9,2.3-0.8,3.1c0,0.1,0,0.2,0,0.3l0,0
		c0.1,0.5,0.1,1,0.2,1.6c0,0.3-0.1,0.6-0.4,0.8c-0.1,0.1-0.3,0.1-0.4,0.1l0.2,2.1c0.1,0,0.3,0,0.4,0c0.3,0.1,0.5,0.4,0.6,0.7
		c0.1,0.6,0.1,1.2,0.2,1.9c0,0.2,0.3,0.6,0.8,0.9c0.2,0.1,0.3,0.3,0.4,0.6c0.1,0.4,0.1,1,0.2,1.8C68.4,97.6,68.4,98.1,68.5,98.4z"/>
	<polygon class="st17" points="72.2,97.9 69.4,97.9 67,96.7 67.7,95.2 69.8,96.3 72.2,96.3 	"/>
	<circle class="st5" cx="70.8" cy="91.6" r="14.2"/>
</g>
<g>
	<path class="st16" d="M203.5,49.3c0,4.7-3.8,8.6-8.6,8.6c-4.7,0-8.6-3.8-8.6-8.6c0-4.7,3.8-8.6,8.6-8.6
		C199.6,40.7,203.5,44.6,203.5,49.3z"/>
	<path class="st17" d="M194.9,58.4c-5,0-9.1-4.1-9.1-9.1s4.1-9.1,9.1-9.1c5,0,9.1,4.1,9.1,9.1S199.9,58.4,194.9,58.4z M194.9,41.2
		c-4.5,0-8.1,3.6-8.1,8.1s3.6,8.1,8.1,8.1c4.5,0,8.1-3.6,8.1-8.1S199.3,41.2,194.9,41.2z"/>
	<path class="st19" d="M201.1,54.3c0-0.3-0.4-0.7-1-0.8c-3.7-0.7-6.7-0.7-10.5,0c-0.5,0.1-1,0.5-1,0.8c-0.1,0.3-0.1,0.6-0.1,0.8
		c1.6,1.7,3.8,2.8,6.3,2.8c2.5,0,4.8-1.1,6.3-2.8C201.2,54.9,201.1,54.6,201.1,54.3z"/>
	<path class="st17" d="M194.9,58.4c-2.5,0-5-1.1-6.7-2.9l-0.2-0.2l0-0.2c0-0.2,0.1-0.5,0.1-0.8c0-0.6,0.6-1.1,1.4-1.3
		c3.9-0.7,6.8-0.7,10.7,0c0.8,0.1,1.3,0.7,1.4,1.3c0.1,0.3,0.1,0.6,0.1,0.8l0,0.2l-0.2,0.2C199.9,57.3,197.4,58.4,194.9,58.4z
		 M189.1,55c1.5,1.6,3.6,2.5,5.8,2.5c2.2,0,4.3-0.9,5.8-2.5c0-0.2-0.1-0.4-0.1-0.6l0,0v0c0-0.1-0.2-0.3-0.6-0.3
		c-3.8-0.7-6.5-0.7-10.3,0c-0.4,0.1-0.6,0.3-0.6,0.4l0,0l0,0C189.1,54.6,189.1,54.8,189.1,55z"/>
	<path class="st16" d="M196.7,54.2c0.1-0.4,0.1-1.6,0.2-2c0.4-0.2,0.6-0.6,0.7-0.9c0-0.4,0.1-0.7,0.1-1.1c0.1,0.1,0.1,0.1,0.2,0.1
		c0.2,0,0.3-0.1,0.4-0.3l0.2-1.7c0-0.2-0.1-0.3-0.3-0.4c-0.1,0-0.1,0-0.2,0c0-0.3,0.1-0.7,0.1-1c0-0.4,0.3-1.6-0.6-2.4
		c-1.3-1.2-4-1.2-5.3,0c-0.9,0.8-0.6,2-0.6,2.4c0,0.3,0.1,0.7,0.1,1c-0.1,0-0.1,0-0.2,0c-0.2,0-0.3,0.2-0.3,0.4l0.2,1.7
		c0,0.2,0.2,0.3,0.4,0.3c0.1,0,0.1,0,0.2-0.1c0,0.4,0.1,0.7,0.1,1.1c0,0.3,0.3,0.7,0.7,0.9c0.1,0.4,0.1,1.6,0.2,2l1.7,1.5
		L196.7,54.2z"/>
	<path class="st17" d="M194.6,56.2c-0.1,0-0.2,0-0.3-0.1l-1.7-1.5c-0.1-0.1-0.1-0.2-0.2-0.3c0-0.2-0.1-0.6-0.1-1
		c0-0.3,0-0.6-0.1-0.8c-0.4-0.3-0.7-0.7-0.7-1.1c0-0.2,0-0.4-0.1-0.6c-0.3-0.1-0.6-0.4-0.6-0.7l-0.2-1.7c0-0.3,0.1-0.6,0.4-0.8
		c0-0.1,0-0.3-0.1-0.4l0,0c0-0.1,0-0.1,0-0.2c-0.1-0.6-0.2-1.8,0.8-2.7c0.7-0.7,1.8-1,3-1c1.2,0,2.3,0.4,3,1.1
		c0.9,0.8,0.8,2.1,0.8,2.7c0,0.1,0,0.1,0,0.1c0,0.2,0,0.3-0.1,0.5c0.1,0.1,0.2,0.1,0.2,0.2c0.1,0.2,0.2,0.4,0.2,0.6l-0.2,1.7
		c0,0.4-0.3,0.6-0.6,0.7c0,0.2,0,0.4-0.1,0.6c0,0.4-0.3,0.8-0.7,1.1c0,0.2,0,0.5-0.1,0.8c0,0.4-0.1,0.8-0.1,1c0,0.1-0.1,0.2-0.2,0.3
		l-2.1,1.5C194.9,56.2,194.7,56.2,194.6,56.2z M193.4,54l1.3,1.1l1.6-1.2c0-0.2,0-0.5,0.1-0.8c0-0.4,0.1-0.8,0.1-1
		c0-0.1,0.1-0.3,0.2-0.3c0.3-0.2,0.4-0.4,0.4-0.5c0-0.4,0.1-0.8,0.1-1.1c0-0.2,0.2-0.3,0.3-0.4c0.1,0,0.2,0,0.3,0l0.1-1.3
		c-0.1,0-0.2,0-0.2-0.1c-0.2-0.1-0.2-0.3-0.2-0.5c0-0.3,0.1-0.7,0.1-1c0,0,0-0.1,0-0.2c0-0.5,0.1-1.3-0.5-1.8
		c-0.5-0.5-1.4-0.8-2.3-0.8c-0.9,0-1.8,0.3-2.3,0.8c-0.6,0.5-0.5,1.4-0.5,1.9c0,0.1,0,0.1,0,0.2l0,0c0,0.3,0.1,0.6,0.1,0.9
		c0,0.2-0.1,0.4-0.2,0.5c-0.1,0-0.2,0.1-0.2,0.1l0.1,1.3c0.1,0,0.2,0,0.3,0c0.2,0.1,0.3,0.2,0.3,0.4c0,0.4,0.1,0.7,0.1,1.1
		c0,0.1,0.2,0.4,0.4,0.5c0.1,0.1,0.2,0.2,0.2,0.3c0,0.2,0.1,0.6,0.1,1.1C193.3,53.5,193.4,53.8,193.4,54z"/>
	<polygon class="st17" points="195.6,53.3 193.9,53.3 192.5,52.6 192.9,51.7 194.2,52.3 195.6,52.3 	"/>
</g>
<path class="st16" d="M272.7,23.4c12.9,0,23.4,10.5,23.4,23.4c0,0.4,0,0.8,0,1.2c0,0.1,0,0.1,0,0.2c0,0.3,0,0.7-0.1,1
	c0,0,0,0.1,0,0.1c-0.4,3.9-1.8,7.5-3.9,10.6c-0.1,0.1-0.1,0.1-0.2,0.2c-0.2,0.2-0.3,0.4-0.5,0.7c-0.2,0.2-0.4,0.5-0.6,0.7
	c0,0-0.1,0.1-0.1,0.1c-0.5,0.6-1,1.2-1.5,1.7c-0.4-1.3-1.5-2.5-3.2-3.5l-2.7-18.1l0,0c-0.1-0.4-0.1-0.7-0.2-1.1
	c-1.2-6.6-6.2-10-10.6-10c-0.8,0-1.7,0.1-2.5,0.4c-0.4,0.1-0.9,0.3-1.3,0.5c-0.2,0.1-0.4,0.2-0.6,0.3c-1.8,0.9-3.4,2.5-4.6,4.5
	c-0.7,1.3-1.2,2.7-1.5,4.4l-2.9,19.1c-1.7,1-2.7,2.2-3.2,3.5c-0.5-0.5-1.1-1.1-1.5-1.7c0,0-0.1-0.1-0.1-0.1
	c-0.2-0.2-0.4-0.5-0.6-0.7c-0.2-0.2-0.3-0.4-0.4-0.6c-0.1-0.1-0.1-0.2-0.2-0.3c-2.1-3.1-3.4-6.7-3.9-10.6c0,0,0-0.1,0-0.1
	c0-0.3-0.1-0.7-0.1-1c0-0.1,0-0.1,0-0.2c0-0.4,0-0.8,0-1.2C249.2,33.9,259.7,23.4,272.7,23.4z"/>
<path class="st11" d="M284.9,59.2c-0.1,0-0.2-0.1-0.2-0.1c-0.2-0.1-0.4-0.2-0.6-0.3c-0.1,0-0.1-0.1-0.2-0.1
	c-0.1-0.1-0.3-0.1-0.4-0.2v0c0,0,0,0,0,0l-0.1,0c-0.1-0.1-0.3-0.1-0.5-0.2c0,0-0.1,0-0.1,0l-0.2-0.1c-0.2-0.1-0.3-0.1-0.5-0.2l0,0
	l0,0c0,0-0.1,0-0.1,0l-0.1,0c0,0-0.1,0-0.1,0c-0.1,0-0.2,0-0.2-0.1l-0.1,0c0,0,0,0,0,0c0,0,0,0,0,0c0,0,0,0,0,0
	c-0.2,0-0.3-0.1-0.5-0.1l-0.2,0c0,0-0.1,0-0.1,0c-0.4-0.1-0.8-0.2-1.3-0.3c-0.1,0-0.2,0-0.3,0c-0.4-0.1-0.8-0.1-1.1-0.2
	c-0.1,0-0.1,0-0.2,0c0-0.2,0-0.5,0-0.7v-3.7c1.7-1.4,2.8-3.5,2.8-5.9v-5c0-0.1-0.1-0.2-0.2-0.2v0h-0.1h-14.9h-2.7
	c0-0.3,0.1-0.5,0.1-0.8c1.1-6.3,5.9-9.6,10.1-9.6c1,0,2.1,0.2,3.2,0.6c3.2,1.2,6.1,4.3,6.9,9l2.8,18.7c0,0-0.1,0-0.1,0
	C285.3,59.4,285.1,59.3,284.9,59.2z"/>
<path class="st11" d="M262.4,58.4c0,0-0.1,0-0.1,0.1c-0.1,0-0.2,0.1-0.3,0.1c0,0,0,0,0,0c-0.1,0-0.2,0.1-0.2,0.1c0,0,0,0,0,0
	c-0.2,0.1-0.4,0.2-0.6,0.3c0,0-0.1,0-0.1,0c-0.2,0.1-0.4,0.2-0.5,0.3c0,0-0.1,0-0.1,0c-0.2,0.1-0.4,0.2-0.6,0.3l2.6-17.5h2.6v4.7
	c0,2.4,1.1,4.5,2.8,5.9v3.7c0,0.2,0,0.4,0,0.7c-0.1,0-0.1,0-0.2,0c-0.4,0.1-0.7,0.1-1.1,0.2c-0.1,0-0.2,0-0.4,0.1
	c-0.4,0.1-0.9,0.2-1.3,0.3c0,0,0,0,0,0v0c0,0-0.1,0-0.1,0c-0.2,0.1-0.4,0.1-0.7,0.2l-0.1,0c0,0-0.1,0-0.1,0h0c-0.1,0-0.1,0-0.2,0.1
	c-0.1,0-0.2,0.1-0.3,0.1c0,0,0,0-0.1,0c0,0-0.1,0-0.1,0l-0.1,0c-0.1,0-0.3,0.1-0.4,0.1L262.4,58.4z"/>
<path class="st16" d="M276.1,53.1C276.1,53.2,276.1,53.2,276.1,53.1c-0.3,0.1-0.4,0.2-0.6,0.3c0,0-0.1,0-0.1,0
	c-0.2,0.1-0.3,0.1-0.5,0.2c0,0-0.1,0-0.2,0c-0.2,0-0.3,0.1-0.5,0.1c-0.1,0-0.1,0-0.2,0c-0.2,0-0.3,0.1-0.5,0.1c-0.1,0-0.1,0-0.2,0
	c-0.2,0-0.5,0-0.7,0c-0.2,0-0.5,0-0.7,0c-0.1,0-0.2,0-0.3,0c-0.1,0-0.2,0-0.4-0.1c-0.1,0-0.2,0-0.3-0.1c-0.1,0-0.2,0-0.3-0.1
	c-0.1,0-0.2-0.1-0.3-0.1c-0.1,0-0.2-0.1-0.3-0.1c-0.1,0-0.2-0.1-0.3-0.1c-0.1,0-0.2-0.1-0.3-0.2c-0.1,0-0.2-0.1-0.3-0.1
	c-2.2-1.2-3.7-3.6-3.7-6.3v-4.7h14.4v4.7C279.9,49.5,278.4,51.9,276.1,53.1z"/>
<path class="st16" d="M262.5,58.9c0.1,0,0.1,0,0.2-0.1l0.5-0.2c0.2-0.1,0.4-0.1,0.6-0.2c0.1,0,0.2-0.1,0.3-0.1c0,0,0,0,0,0
	c0.3-0.1,0.6-0.1,0.8-0.2c0.4-0.1,0.9-0.2,1.3-0.3c0.2,0,0.3-0.1,0.5-0.1c0.3-0.1,0.6-0.1,1-0.2c0.1,0,0.2,0,0.4-0.1c0,0,0,0,0,0
	c0,0,0,0,0.1,0s0,0,0,0c0,0,0,0,0,0c0,0,0,0,0,0c0,0,0,0,0,0c0,0,0,0,0,0c0,0,0-0.1,0-0.1c0-0.3-0.1-0.6-0.1-0.9v-3.3
	c0,0,0.1,0,0.1,0.1c0.1,0,0.1,0.1,0.2,0.1c0.1,0.1,0.3,0.2,0.4,0.2c0.1,0,0.2,0.1,0.2,0.1c0.1,0.1,0.2,0.1,0.4,0.2
	c0.1,0,0.2,0.1,0.3,0.1c0.2,0.1,0.3,0.1,0.5,0.2c0.1,0,0.3,0.1,0.4,0.1c0.1,0,0.3,0.1,0.4,0.1c0.1,0,0.2,0,0.3,0.1
	c0.1,0,0.3,0,0.4,0.1c0.1,0,0.2,0,0.3,0c0.2,0,0.5,0,0.7,0c0.2,0,0.5,0,0.7,0c0.1,0,0.1,0,0.2,0c0.2,0,0.4-0.1,0.6-0.1
	c0,0,0.1,0,0.1,0c0.5-0.1,0.9-0.2,1.4-0.4c0,0,0,0,0,0c0.2-0.1,0.4-0.2,0.6-0.3c0,0,0.1-0.1,0.1-0.1c0.2-0.1,0.3-0.2,0.5-0.3
	c0,0,0.1-0.1,0.1-0.1c0,0,0.1,0,0.1-0.1v3.3c0,0.3,0,0.5-0.1,0.9c0,0,0,0,0,0c0,0,0,0,0,0c0,0,0,0,0,0c0,0,0,0,0,0c0,0,0,0,0,0.1
	c0,0,0,0,0,0c0,0,0,0,0,0c0,0.1,0.1,0.1,0.2,0.1c0.1,0,0.2,0,0.3,0c0.4,0,0.7,0.1,1,0.2c0.1,0,0.3,0.1,0.4,0.1
	c0.4,0.1,0.9,0.2,1.3,0.3c0.3,0.1,0.5,0.1,0.8,0.2c0,0,0,0,0,0c0,0,0.1,0,0.1,0c0.1,0,0.2,0,0.2,0.1c0.1,0,0.2,0.1,0.3,0.1l0.1,0
	l0,0c0,0,0.1,0,0.1,0c0.4,0.1,0.7,0.2,1.1,0.4c-0.5,3.7-5,6.6-10.4,6.6c-5.4,0-9.9-2.9-10.4-6.6C262.4,58.9,262.5,58.9,262.5,58.9z"
	/>
<path class="st4" d="M256.5,63.7c0.3-1.3,1.5-2.6,3.3-3.6c0,0,0.1,0,0.1,0c0.2-0.1,0.4-0.2,0.7-0.3c0.1-0.1,0.3-0.1,0.4-0.2
	c0.1,0,0.1-0.1,0.2-0.1c0.2-0.1,0.5-0.2,0.8-0.3c0.6,3.9,5.3,6.9,10.8,6.9c5.6,0,10.2-3,10.8-6.9c0.1,0,0.2,0.1,0.4,0.1
	c0.1,0,0.2,0.1,0.3,0.1c0.2,0.1,0.4,0.2,0.6,0.3c0.1,0.1,0.2,0.1,0.4,0.2c0.1,0.1,0.3,0.2,0.4,0.2c1.9,1.1,3,2.3,3.4,3.6
	c-4.2,4-9.9,6.5-16.2,6.5C266.4,70.3,260.7,67.8,256.5,63.7z"/>
<g>
	<g>
		<path class="st17" d="M272.7,66.7c-5.5,0-10.2-2.8-11.4-6.6c-2.4,1.1-3.8,2.4-4.1,3.8c-0.1,0.4-0.3,0.7-0.7,0.8
			c-0.4,0.1-0.7,0-1-0.2c-4.8-4.7-7.5-11-7.5-17.7C248,33.1,259,22,272.7,22c13.6,0,24.7,11.1,24.7,24.7c0,6.7-2.7,13-7.5,17.7
			c-0.3,0.3-0.6,0.3-1,0.2c-0.4-0.1-0.6-0.4-0.7-0.8c-0.3-1.4-1.8-2.8-4.1-3.8C282.9,63.8,278.2,66.7,272.7,66.7z M263.2,59.3
			c0.8,3,4.8,5.3,9.5,5.3c4.7,0,8.7-2.3,9.5-5.3l0,0c-0.1,0-0.3-0.1-0.4-0.1l-0.8-0.2c-1.2-0.3-2.4-0.6-3.8-0.7
			c-0.5-0.1-0.9-0.5-0.9-1c0-0.3,0.1-0.6,0.3-0.8c0.2-0.2,0.5-0.3,0.8-0.2c1.4,0.2,2.7,0.4,4,0.8c0.1,0,0.1,0,0.2,0.1
			c0.1,0,0.2,0.1,0.4,0.1l0.3,0.1c0.2,0,0.3,0.1,0.5,0.2l0.1,0c0,0,0.1,0,0.1,0c0,0,0.1,0,0.1,0l0.6,0.2c0,0,0,0,0.1,0
			c2.8,1.1,4.8,2.5,5.8,4.1c3.8-4.2,5.9-9.5,5.9-15.2c0-12.5-10.2-22.7-22.7-22.7C260.2,24,250,34.2,250,46.7c0,5.7,2.1,11,5.9,15.2
			c1-1.7,3-3.1,5.8-4.2c0,0,0,0,0,0c0.7-0.3,1.4-0.5,2.2-0.7c0,0,0,0,0,0c1.3-0.3,2.6-0.6,4-0.8c0.3,0,0.5,0,0.7,0.2
			c0.3,0.2,0.5,0.7,0.4,1.1c-0.1,0.4-0.4,0.7-0.8,0.7c-1.3,0.2-2.6,0.4-3.7,0.7c0,0,0,0,0,0l0,0C264,59.1,263.6,59.2,263.2,59.3z"/>
	</g>
	<g>
		<path class="st17" d="M285.9,60.9c-0.2,0-0.4,0-0.5-0.1c-1-0.6-2.2-1.1-3.6-1.6c0,0,0,0-0.1,0c-0.2-0.1-0.4-0.1-0.6-0.2l-0.1,0
			c-0.1,0-0.3-0.1-0.5-0.1l-0.1,0c0,0-0.1,0-0.1,0c-0.9-0.2-2-0.4-3-0.6c-0.3,0-0.5-0.2-0.7-0.4c-0.2-0.2-0.2-0.5-0.2-0.8
			c0-0.3,0.1-0.5,0.1-0.7v-2c-2.3,1.1-5.1,1.1-7.4,0v2c0,0.2,0,0.5,0.1,0.8c0,0.3,0,0.5-0.2,0.8c-0.2,0.2-0.4,0.4-0.7,0.4
			c-1.1,0.1-2.1,0.3-3.1,0.6c-0.3,0.1-0.5,0.1-0.7,0.2l-0.1,0c-0.2,0.1-0.4,0.1-0.6,0.2c-0.1,0-0.1,0-0.2,0.1l-0.7,0.2
			c-1.1,0.4-2.1,0.8-2.9,1.3c-0.3,0.2-0.8,0.2-1.1,0c-0.3-0.2-0.5-0.6-0.4-1l2.9-19.3c1.1-6.2,5.9-10.7,11.3-10.7
			c5.5,0,10.2,4.5,11.3,10.7l2.9,19.3c0.1,0.4-0.1,0.8-0.4,1C286.3,60.8,286.1,60.9,285.9,60.9z M281.6,57c0.2,0.1,0.4,0.1,0.7,0.2
			c0,0,0.1,0,0.1,0c0.8,0.3,1.6,0.5,2.3,0.8L282,40.8c-1.1-5.9-5.5-9-9.3-9c-3.8,0-8.3,3.1-9.3,9l-2.6,17.3c0.5-0.2,0.9-0.4,1.4-0.6
			l0.7-0.3c0,0,0,0,0.1,0l0.1,0c0,0,0.1,0,0.1,0c0.2-0.1,0.4-0.1,0.6-0.2l0.1,0c0,0,0.1,0,0.1,0c0.2-0.1,0.4-0.1,0.7-0.2
			c0,0,0,0,0.1,0c0.8-0.2,1.6-0.3,2.4-0.5c0,0,0,0,0,0v-3.8c0-0.4,0.2-0.7,0.6-0.9c0.4-0.2,0.8-0.1,1.1,0.1c1.1,0.9,2.6,1.4,4.1,1.4
			c1.5,0,2.9-0.5,4.1-1.4c0.3-0.2,0.7-0.3,1.1-0.1c0.4,0.2,0.6,0.5,0.6,0.9v3.8c0,0,0,0,0,0c0.8,0.1,1.6,0.3,2.3,0.5c0,0,0,0,0,0
			c0,0,0,0,0,0l0.2,0C281.1,56.9,281.3,57,281.6,57l-0.3,1L281.6,57z"/>
	</g>
	<g>
		<g>
			<path class="st17" d="M272.7,71.4C259,71.4,248,60.3,248,46.7C248,33.1,259,22,272.7,22c13.6,0,24.7,11.1,24.7,24.7
				C297.4,60.3,286.3,71.4,272.7,71.4z M272.7,24C260.2,24,250,34.2,250,46.7c0,12.5,10.2,22.7,22.7,22.7
				c12.5,0,22.7-10.2,22.7-22.7C295.4,34.2,285.2,24,272.7,24z"/>
		</g>
	</g>
	<g>
		<path class="st17" d="M280.2,42.7h-18c-0.3,0-0.6-0.1-0.8-0.3c-0.2-0.2-0.3-0.5-0.2-0.8l0.2-1.1c1.1-6.2,5.9-10.7,11.3-10.7
			c5.5,0,10.2,4.5,11.3,10.7l0.2,1.1l-2,0.3l-0.2-1.1c-1-5.9-5.5-9-9.3-9c-3.8,0-8.2,3.1-9.3,8.9h16.8V42.7z"/>
	</g>
	<g>
		<path class="st17" d="M272.7,55.2c-4.7,0-8.5-3.8-8.5-8.5v-5c0-0.6,0.5-1,1-1h14.9c0.6,0,1,0.5,1,1v5
			C281.1,51.4,277.3,55.2,272.7,55.2z M266.2,42.7v4c0,3.6,2.9,6.4,6.4,6.4c3.6,0,6.4-2.9,6.4-6.4v-4H266.2z"/>
	</g>
</g>
<g>
	<path class="st16" d="M155.9,20.3c8.1,0,14.7,6.6,14.7,14.7c0,0.3,0,0.5,0,0.7c0,0,0,0.1,0,0.1c0,0.2,0,0.4,0,0.6c0,0,0,0,0,0.1
		c-0.3,2.4-1.1,4.7-2.4,6.6c0,0-0.1,0.1-0.1,0.1c-0.1,0.1-0.2,0.3-0.3,0.4c-0.1,0.2-0.2,0.3-0.4,0.5c0,0,0,0.1-0.1,0.1
		c-0.3,0.4-0.6,0.7-1,1.1c-0.3-0.8-0.9-1.5-2-2.2l-1.7-11.3l0,0c0-0.2-0.1-0.4-0.1-0.7c-0.7-4.1-3.9-6.3-6.6-6.3
		c-0.5,0-1,0.1-1.6,0.2c-0.3,0.1-0.5,0.2-0.8,0.3c-0.1,0.1-0.3,0.1-0.4,0.2c-1.1,0.6-2.1,1.5-2.9,2.8c-0.4,0.8-0.8,1.7-1,2.7
		l-1.8,12c-1,0.6-1.7,1.4-2,2.2c-0.3-0.3-0.7-0.7-1-1.1c0,0,0-0.1-0.1-0.1c-0.1-0.1-0.2-0.3-0.3-0.4c-0.1-0.1-0.2-0.3-0.3-0.4
		c0-0.1-0.1-0.1-0.1-0.2c-1.3-1.9-2.2-4.2-2.4-6.6c0,0,0,0,0-0.1c0-0.2,0-0.4,0-0.6c0,0,0-0.1,0-0.1c0-0.2,0-0.5,0-0.7
		C141.2,26.9,147.8,20.3,155.9,20.3z"/>
	<path class="st11" d="M163.5,42.7c-0.1,0-0.1,0-0.2-0.1c-0.1-0.1-0.3-0.1-0.4-0.2c0,0-0.1,0-0.1-0.1c-0.1,0-0.2-0.1-0.3-0.1v0
		c0,0,0,0,0,0l0,0c-0.1,0-0.2-0.1-0.3-0.1c0,0,0,0-0.1,0l-0.1,0c-0.1,0-0.2-0.1-0.3-0.1l0,0l0,0c0,0,0,0-0.1,0l-0.1,0
		c0,0-0.1,0-0.1,0c-0.1,0-0.1,0-0.2,0l-0.1,0c0,0,0,0,0,0c0,0,0,0,0,0c0,0,0,0,0,0c-0.1,0-0.2-0.1-0.3-0.1l-0.1,0c0,0,0,0-0.1,0
		c-0.3-0.1-0.5-0.1-0.8-0.2c-0.1,0-0.1,0-0.2,0c-0.2,0-0.5-0.1-0.7-0.1c0,0-0.1,0-0.1,0c0-0.1,0-0.3,0-0.4v-2.3
		c1.1-0.9,1.7-2.2,1.7-3.7v-3.1c0-0.1,0-0.1-0.1-0.1v0h0h-9.3h-1.7c0-0.2,0-0.3,0.1-0.5c0.7-3.9,3.7-6,6.3-6c0.7,0,1.3,0.1,2,0.4
		c2,0.8,3.8,2.7,4.3,5.6l1.8,11.7c0,0,0,0-0.1,0C163.8,42.8,163.6,42.8,163.5,42.7z"/>
	<path class="st11" d="M149.5,42.2C149.4,42.2,149.4,42.2,149.5,42.2c-0.2,0.1-0.2,0.1-0.3,0.1c0,0,0,0,0,0c-0.1,0-0.1,0-0.1,0.1
		c0,0,0,0,0,0c-0.1,0.1-0.3,0.1-0.4,0.2c0,0,0,0-0.1,0c-0.1,0.1-0.2,0.1-0.3,0.2c0,0,0,0,0,0c-0.1,0.1-0.2,0.1-0.4,0.2l1.6-10.9h1.6
		v3c0,1.5,0.7,2.8,1.7,3.7V41c0,0.1,0,0.3,0,0.4c0,0-0.1,0-0.1,0c-0.2,0-0.5,0.1-0.7,0.1c-0.1,0-0.2,0-0.2,0
		c-0.3,0.1-0.5,0.1-0.8,0.2c0,0,0,0,0,0v0c0,0,0,0-0.1,0c-0.1,0-0.3,0.1-0.4,0.1l0,0c0,0,0,0-0.1,0h0c0,0-0.1,0-0.1,0
		c-0.1,0-0.1,0-0.2,0.1c0,0,0,0,0,0c0,0-0.1,0-0.1,0l-0.1,0c-0.1,0-0.2,0.1-0.3,0.1L149.5,42.2z"/>
	<path class="st16" d="M158,38.9C158,38.9,158,38.9,158,38.9c-0.2,0.1-0.3,0.1-0.4,0.2c0,0-0.1,0-0.1,0c-0.1,0-0.2,0.1-0.3,0.1
		c0,0-0.1,0-0.1,0c-0.1,0-0.2,0.1-0.3,0.1c0,0-0.1,0-0.1,0c-0.1,0-0.2,0-0.3,0c0,0-0.1,0-0.1,0c-0.1,0-0.3,0-0.4,0
		c-0.1,0-0.3,0-0.4,0c-0.1,0-0.1,0-0.2,0c-0.1,0-0.2,0-0.2,0c-0.1,0-0.1,0-0.2,0c-0.1,0-0.1,0-0.2,0c-0.1,0-0.1,0-0.2-0.1
		c-0.1,0-0.1,0-0.2-0.1c-0.1,0-0.1-0.1-0.2-0.1c-0.1,0-0.1-0.1-0.2-0.1c-0.1,0-0.1-0.1-0.2-0.1c-1.4-0.8-2.3-2.2-2.3-3.9v-3h9v3
		C160.4,36.7,159.4,38.1,158,38.9z"/>
	<path class="st16" d="M149.5,42.5c0,0,0.1,0,0.1,0l0.3-0.1c0.1,0,0.2-0.1,0.4-0.1c0.1,0,0.1,0,0.2-0.1c0,0,0,0,0,0
		c0.2,0,0.4-0.1,0.5-0.1c0.3-0.1,0.5-0.1,0.8-0.2c0.1,0,0.2,0,0.3-0.1c0.2,0,0.4-0.1,0.6-0.1c0.1,0,0.2,0,0.2,0c0,0,0,0,0,0
		c0,0,0,0,0,0c0,0,0,0,0,0c0,0,0,0,0,0c0,0,0,0,0,0c0,0,0,0,0,0c0,0,0,0,0,0c0,0,0,0,0-0.1c0-0.2,0-0.4,0-0.5v-2.1c0,0,0,0,0.1,0
		c0,0,0.1,0,0.1,0.1c0.1,0.1,0.2,0.1,0.3,0.2c0,0,0.1,0.1,0.1,0.1c0.1,0,0.2,0.1,0.2,0.1c0.1,0,0.1,0.1,0.2,0.1
		c0.1,0,0.2,0.1,0.3,0.1c0.1,0,0.2,0.1,0.2,0.1c0.1,0,0.2,0,0.2,0.1c0.1,0,0.1,0,0.2,0c0.1,0,0.2,0,0.3,0c0.1,0,0.1,0,0.2,0
		c0.1,0,0.3,0,0.4,0c0.2,0,0.3,0,0.5,0c0,0,0.1,0,0.1,0c0.1,0,0.2,0,0.4-0.1c0,0,0.1,0,0.1,0c0.3-0.1,0.6-0.2,0.9-0.3c0,0,0,0,0,0
		c0.1-0.1,0.2-0.1,0.4-0.2c0,0,0.1,0,0.1,0c0.1-0.1,0.2-0.1,0.3-0.2c0,0,0.1,0,0.1-0.1c0,0,0,0,0.1,0V41c0,0.2,0,0.3,0,0.5
		c0,0,0,0,0,0c0,0,0,0,0,0c0,0,0,0,0,0c0,0,0,0,0,0c0,0,0,0,0,0c0,0,0,0,0,0c0,0,0,0,0,0c0,0,0.1,0.1,0.1,0.1c0.1,0,0.1,0,0.2,0
		c0.2,0,0.4,0.1,0.7,0.1c0.1,0,0.2,0,0.3,0c0.3,0.1,0.5,0.1,0.8,0.2c0.2,0,0.3,0.1,0.5,0.1c0,0,0,0,0,0c0,0,0,0,0.1,0
		c0,0,0.1,0,0.1,0c0.1,0,0.1,0,0.2,0.1l0.1,0l0,0c0,0,0,0,0,0c0.2,0.1,0.4,0.1,0.7,0.2c-0.3,2.3-3.1,4.1-6.5,4.1
		c-3.4,0-6.2-1.8-6.5-4.1C149.4,42.5,149.5,42.5,149.5,42.5z"/>
	<path class="st19" d="M145.7,45.5c0.2-0.8,0.9-1.6,2-2.2c0,0,0,0,0,0c0.1-0.1,0.3-0.1,0.4-0.2c0.1,0,0.2-0.1,0.3-0.1
		c0,0,0.1,0,0.1-0.1c0.2-0.1,0.3-0.1,0.5-0.2c0.4,2.4,3.3,4.3,6.8,4.3c3.5,0,6.4-1.9,6.8-4.3c0.1,0,0.1,0.1,0.2,0.1
		c0.1,0,0.1,0.1,0.2,0.1c0.1,0.1,0.2,0.1,0.4,0.2c0.1,0,0.2,0.1,0.2,0.1c0.1,0,0.2,0.1,0.3,0.1c1.2,0.7,1.9,1.5,2.1,2.3
		c-2.6,2.5-6.2,4.1-10.1,4.1C151.9,49.6,148.4,48,145.7,45.5z"/>
	<g>
		<g>
			<path class="st17" d="M155.9,47.4c-3.4,0-6.4-1.8-7.1-4.1c-1.5,0.7-2.4,1.5-2.6,2.4c0,0.2-0.2,0.4-0.4,0.5
				c-0.2,0.1-0.5,0-0.6-0.1c-3-2.9-4.7-6.9-4.7-11.1c0-8.5,6.9-15.4,15.4-15.4c8.5,0,15.4,6.9,15.4,15.4c0,4.2-1.7,8.1-4.7,11.1
				c-0.2,0.2-0.4,0.2-0.6,0.1c-0.2-0.1-0.4-0.3-0.4-0.5c-0.2-0.9-1.1-1.7-2.6-2.4C162.2,45.6,159.3,47.4,155.9,47.4z M149.9,42.8
				c0.5,1.9,3,3.3,5.9,3.3c2.9,0,5.4-1.4,5.9-3.3l0,0c-0.1,0-0.2-0.1-0.3-0.1l-0.5-0.1c-0.7-0.2-1.5-0.4-2.3-0.5
				c-0.3,0-0.5-0.3-0.5-0.6c0-0.2,0.1-0.4,0.2-0.5c0.1-0.1,0.3-0.2,0.5-0.2c0.9,0.1,1.7,0.3,2.5,0.5c0,0,0.1,0,0.1,0
				c0.1,0,0.1,0,0.2,0.1l0.2,0.1c0.1,0,0.2,0.1,0.3,0.1l0.1,0c0,0,0,0,0,0c0,0,0.1,0,0.1,0l0.4,0.1c0,0,0,0,0,0
				c1.7,0.7,3,1.6,3.6,2.6c2.4-2.6,3.7-5.9,3.7-9.5c0-7.8-6.4-14.2-14.2-14.2c-7.8,0-14.2,6.4-14.2,14.2c0,3.5,1.3,6.9,3.7,9.5
				c0.6-1,1.9-1.9,3.6-2.6c0,0,0,0,0,0c0.4-0.2,0.9-0.3,1.4-0.4c0,0,0,0,0,0c0.8-0.2,1.6-0.4,2.5-0.5c0.2,0,0.3,0,0.5,0.1
				c0.2,0.2,0.3,0.4,0.2,0.7c-0.1,0.2-0.3,0.4-0.5,0.5c-0.8,0.1-1.6,0.3-2.3,0.5c0,0,0,0,0,0l0,0C150.4,42.6,150.2,42.7,149.9,42.8z
				"/>
		</g>
		<g>
			<path class="st17" d="M164.1,43.8c-0.1,0-0.2,0-0.3-0.1c-0.6-0.4-1.4-0.7-2.3-1c0,0,0,0-0.1,0c-0.1,0-0.3-0.1-0.4-0.1l-0.1,0
				c-0.1,0-0.2-0.1-0.3-0.1l-0.1,0c0,0,0,0-0.1,0c-0.6-0.1-1.2-0.3-1.9-0.3c-0.2,0-0.3-0.1-0.4-0.2c-0.1-0.1-0.1-0.3-0.1-0.5
				c0-0.2,0-0.3,0-0.5v-1.3c-1.4,0.7-3.2,0.7-4.6,0v1.3c0,0.1,0,0.3,0,0.5c0,0.2,0,0.3-0.1,0.5c-0.1,0.1-0.3,0.2-0.4,0.2
				c-0.7,0.1-1.3,0.2-1.9,0.4c-0.2,0-0.3,0.1-0.4,0.1l-0.1,0c-0.1,0-0.3,0.1-0.4,0.1c0,0-0.1,0-0.1,0l-0.4,0.1
				c-0.7,0.2-1.3,0.5-1.8,0.8c-0.2,0.1-0.5,0.1-0.7,0c-0.2-0.1-0.3-0.4-0.3-0.6l1.8-12c0.7-3.9,3.7-6.7,7.1-6.7
				c3.4,0,6.4,2.8,7.1,6.7l1.8,12.1c0,0.2-0.1,0.5-0.3,0.6C164.4,43.7,164.3,43.8,164.1,43.8z M161.4,41.3c0.1,0,0.3,0.1,0.4,0.1
				c0,0,0.1,0,0.1,0c0.5,0.2,1,0.3,1.4,0.5l-1.6-10.8c-0.7-3.7-3.4-5.6-5.8-5.6c-2.4,0-5.2,1.9-5.8,5.6L148.4,42
				c0.3-0.1,0.6-0.2,0.9-0.4l0.5-0.2c0,0,0,0,0,0l0,0c0,0,0,0,0,0c0.1,0,0.3-0.1,0.4-0.1l0,0c0,0,0,0,0.1,0c0.1,0,0.3-0.1,0.4-0.1
				c0,0,0,0,0,0c0.5-0.1,1-0.2,1.5-0.3c0,0,0,0,0,0v-2.4c0-0.2,0.1-0.5,0.4-0.6c0.2-0.1,0.5-0.1,0.7,0.1c0.7,0.6,1.6,0.9,2.5,0.9
				c0.9,0,1.8-0.3,2.5-0.9c0.2-0.2,0.4-0.2,0.7-0.1c0.2,0.1,0.4,0.3,0.4,0.6v2.4c0,0,0,0,0,0c0.5,0.1,1,0.2,1.5,0.3c0,0,0,0,0,0
				c0,0,0,0,0,0l0.1,0C161.1,41.3,161.2,41.3,161.4,41.3l-0.2,0.6L161.4,41.3z"/>
		</g>
		<g>
			<g>
				<path class="st17" d="M155.9,50.3c-8.5,0-15.4-6.9-15.4-15.4c0-8.5,6.9-15.4,15.4-15.4c8.5,0,15.4,6.9,15.4,15.4
					C171.3,43.4,164.4,50.3,155.9,50.3z M155.9,20.7c-7.8,0-14.2,6.4-14.2,14.2c0,7.8,6.4,14.2,14.2,14.2c7.8,0,14.2-6.4,14.2-14.2
					C170,27.1,163.7,20.7,155.9,20.7z"/>
			</g>
		</g>
		<g>
			<path class="st17" d="M160.6,32.4h-11.3c-0.2,0-0.4-0.1-0.5-0.2c-0.1-0.1-0.2-0.3-0.1-0.5l0.1-0.7c0.7-3.9,3.7-6.7,7.1-6.7
				c3.4,0,6.4,2.8,7.1,6.7l0.1,0.7l-1.2,0.2l-0.1-0.7c-0.7-3.7-3.4-5.6-5.8-5.6c-2.4,0-5.1,1.9-5.8,5.6h10.5V32.4z"/>
		</g>
		<g>
			<path class="st17" d="M155.9,40.2c-2.9,0-5.3-2.4-5.3-5.3v-3.1c0-0.3,0.3-0.6,0.6-0.6h9.3c0.3,0,0.6,0.3,0.6,0.6v3.1
				C161.2,37.8,158.8,40.2,155.9,40.2z M151.8,32.4v2.5c0,2.2,1.8,4,4,4c2.2,0,4-1.8,4-4v-2.5H151.8z"/>
		</g>
	</g>
</g>
<path class="st16" d="M153.5,159.7c0,8-6.3,14.4-14.1,14.4c-7.8,0-14.1-6.4-14.1-14.4c0-8,6.3-14.4,14.1-14.4
	C147.2,145.3,153.5,151.8,153.5,159.7z"/>
<path class="st17" d="M139.4,174.8c-8.4,0-15.2-6.8-15.2-15.2c0-8.4,6.8-15.2,15.2-15.2c8.4,0,15.2,6.8,15.2,15.2
	C154.7,168,147.8,174.8,139.4,174.8z M139.4,146c-7.5,0-13.6,6.1-13.6,13.6c0,7.5,6.1,13.6,13.6,13.6c7.5,0,13.6-6.1,13.6-13.6
	C153,152.1,146.9,146,139.4,146z"/>
<polygon class="st3" points="145.8,167.6 140.9,167.6 140.9,162.7 137.9,162.7 137.9,167.6 133.1,167.6 133.1,159.4 139.5,153.1 
	145.8,159.4 "/>
<polyline class="st5" points="129.9,159.8 139.5,150.2 149.2,159.8 "/>
<path class="st16" d="M284.8,171.5c0,10.8-8.8,19.6-19.6,19.6c-10.8,0-19.6-8.8-19.6-19.6c0-10.8,8.8-19.6,19.6-19.6
	C276,151.9,284.8,160.7,284.8,171.5z"/>
<polygon class="st20" points="273.5,181 266.8,181 266.7,174.4 262.8,174.4 262.7,181 256.2,181 256.2,170 264.8,161.4 273.5,170 
	"/>
<polyline class="st5" points="251.9,170.5 264.9,157.5 278,170.5 "/>
<g>
	<path class="st16" d="M278.1,92.5c0,4.7-3.8,8.5-8.5,8.5c-4.7,0-8.5-3.8-8.5-8.5c0-4.7,3.8-8.5,8.5-8.5
		C274.3,84,278.1,87.8,278.1,92.5z"/>
	<path class="st17" d="M269.4,101c-5,0-9-4-9-9c0-5,4-9,9-9c5,0,9,4,9,9C278.4,96.9,274.4,101,269.4,101z M269.4,83.9
		c-4.4,0-8.1,3.6-8.1,8.1c0,4.4,3.6,8.1,8.1,8.1c4.4,0,8.1-3.6,8.1-8.1C277.5,87.5,273.8,83.9,269.4,83.9z"/>
	<g>
		<polygon class="st4" points="273.2,96.7 270.3,96.7 270.3,93.8 268.5,93.8 268.5,96.7 265.7,96.7 265.7,91.9 269.4,88.1 
			273.2,91.9 		"/>
		<path class="st17" d="M273.6,97h-3.6l0-2.9h-1.1l0,2.9h-3.5v-5.3l4.1-4.1l4.1,4.1V97z M270.6,96.3h2.2V92l-3.4-3.4L266,92v4.3h2.2
			l0-2.9h2.4L270.6,96.3z"/>
	</g>
	<polygon class="st17" points="274.9,92.4 269.5,86.9 264,92.4 263.6,91.9 269.5,85.9 275.4,91.9 	"/>
</g>
<g>
	<path class="st16" d="M119.3,48.9c0,11-8.6,19.9-19.2,19.9c-10.6,0-19.2-8.9-19.2-19.9c0-11,8.6-19.9,19.2-19.9
		C110.7,29,119.3,37.9,119.3,48.9z"/>
	<polygon class="st3" points="108.7,59.3 102,59.3 102,52.7 98,52.7 97.9,59.3 91.4,59.3 91.4,48.2 100,39.7 108.7,48.2 	"/>
	<polyline class="st5" points="87.1,48.8 100.2,35.8 113.2,48.8 	"/>
</g>
<g>
	<path class="st16" d="M161.5,177.3c4.8,0,8.7,3.9,8.7,8.7c0,0.1,0,0.3,0,0.4c0,0,0,0,0,0.1c0,0.1,0,0.2,0,0.4c0,0,0,0,0,0
		c-0.2,1.4-0.7,2.8-1.4,3.9c0,0,0,0.1-0.1,0.1c-0.1,0.1-0.1,0.2-0.2,0.2c-0.1,0.1-0.1,0.2-0.2,0.3c0,0,0,0,0,0
		c-0.2,0.2-0.4,0.4-0.6,0.6c-0.2-0.5-0.6-0.9-1.2-1.3l-1-6.7l0,0c0-0.1,0-0.3-0.1-0.4c-0.4-2.5-2.3-3.7-3.9-3.7
		c-0.3,0-0.6,0-0.9,0.1c-0.2,0-0.3,0.1-0.5,0.2c-0.1,0-0.2,0.1-0.2,0.1c-0.7,0.4-1.3,0.9-1.7,1.7c-0.3,0.5-0.5,1-0.6,1.6l-1.1,7.1
		c-0.6,0.4-1,0.8-1.2,1.3c-0.2-0.2-0.4-0.4-0.6-0.6c0,0,0,0,0-0.1c-0.1-0.1-0.1-0.2-0.2-0.3c-0.1-0.1-0.1-0.2-0.2-0.2
		c0,0,0-0.1-0.1-0.1c-0.8-1.1-1.3-2.5-1.4-3.9c0,0,0,0,0,0c0-0.1,0-0.2,0-0.4c0,0,0-0.1,0-0.1c0-0.1,0-0.3,0-0.4
		C152.7,181.2,156.7,177.3,161.5,177.3z"/>
	<path class="st11" d="M166,190.6C166,190.6,166,190.6,166,190.6c-0.2-0.1-0.2-0.1-0.3-0.1c0,0-0.1,0-0.1,0c-0.1,0-0.1,0-0.2-0.1v0
		c0,0,0,0,0,0l0,0c-0.1,0-0.1,0-0.2-0.1c0,0,0,0,0,0l-0.1,0c-0.1,0-0.1,0-0.2-0.1l0,0l0,0c0,0,0,0,0,0l-0.1,0c0,0,0,0-0.1,0
		c0,0-0.1,0-0.1,0l0,0c0,0,0,0,0,0c0,0,0,0,0,0c0,0,0,0,0,0c-0.1,0-0.1,0-0.2,0l-0.1,0c0,0,0,0,0,0c-0.2,0-0.3-0.1-0.5-0.1
		c0,0-0.1,0-0.1,0c-0.1,0-0.3,0-0.4-0.1c0,0,0,0-0.1,0c0-0.1,0-0.2,0-0.3v-1.4c0.6-0.5,1-1.3,1-2.2v-1.9c0,0,0-0.1-0.1-0.1v0h0h-5.5
		h-1c0-0.1,0-0.2,0-0.3c0.4-2.4,2.2-3.6,3.8-3.6c0.4,0,0.8,0.1,1.2,0.2c1.2,0.5,2.3,1.6,2.6,3.3l1,7c0,0,0,0,0,0
		C166.2,190.7,166.1,190.7,166,190.6z"/>
	<path class="st11" d="M157.7,190.3C157.6,190.3,157.6,190.3,157.7,190.3c-0.1,0-0.1,0-0.2,0.1c0,0,0,0,0,0c0,0-0.1,0-0.1,0
		c0,0,0,0,0,0c-0.1,0-0.2,0.1-0.2,0.1c0,0,0,0,0,0c-0.1,0-0.1,0.1-0.2,0.1c0,0,0,0,0,0c-0.1,0-0.1,0.1-0.2,0.1l1-6.5h1v1.8
		c0,0.9,0.4,1.7,1,2.2v1.4c0,0.1,0,0.2,0,0.3c0,0-0.1,0-0.1,0c-0.1,0-0.3,0-0.4,0.1c0,0-0.1,0-0.1,0c-0.2,0-0.3,0.1-0.5,0.1
		c0,0,0,0,0,0v0c0,0,0,0,0,0c-0.1,0-0.2,0-0.2,0.1l0,0c0,0,0,0,0,0h0c0,0,0,0-0.1,0c0,0-0.1,0-0.1,0c0,0,0,0,0,0c0,0,0,0-0.1,0l0,0
		C157.8,190.3,157.8,190.3,157.7,190.3L157.7,190.3z"/>
	<path class="st16" d="M162.7,188.4C162.7,188.4,162.7,188.4,162.7,188.4c-0.1,0-0.2,0.1-0.2,0.1c0,0,0,0,0,0c-0.1,0-0.1,0-0.2,0.1
		c0,0,0,0-0.1,0c-0.1,0-0.1,0-0.2,0c0,0,0,0-0.1,0c-0.1,0-0.1,0-0.2,0c0,0,0,0-0.1,0c-0.1,0-0.2,0-0.3,0c-0.1,0-0.2,0-0.2,0
		c0,0-0.1,0-0.1,0c0,0-0.1,0-0.1,0c0,0-0.1,0-0.1,0c0,0-0.1,0-0.1,0c0,0-0.1,0-0.1,0c0,0-0.1,0-0.1,0c0,0-0.1,0-0.1,0
		c0,0-0.1,0-0.1-0.1c0,0-0.1,0-0.1,0c-0.8-0.5-1.4-1.3-1.4-2.3v-1.8h5.4v1.8C164.1,187,163.6,187.9,162.7,188.4z"/>
	<path class="st16" d="M157.7,190.5C157.7,190.5,157.7,190.5,157.7,190.5l0.2-0.1c0.1,0,0.1,0,0.2-0.1c0,0,0.1,0,0.1,0c0,0,0,0,0,0
		c0.1,0,0.2-0.1,0.3-0.1c0.2,0,0.3-0.1,0.5-0.1c0.1,0,0.1,0,0.2,0c0.1,0,0.2,0,0.4-0.1c0,0,0.1,0,0.1,0c0,0,0,0,0,0c0,0,0,0,0,0
		c0,0,0,0,0,0c0,0,0,0,0,0c0,0,0,0,0,0c0,0,0,0,0,0c0,0,0,0,0,0c0,0,0,0,0,0c0-0.1,0-0.2,0-0.3v-1.2c0,0,0,0,0,0c0,0,0,0,0.1,0
		c0,0,0.1,0.1,0.2,0.1c0,0,0.1,0,0.1,0c0,0,0.1,0,0.1,0.1c0,0,0.1,0,0.1,0c0.1,0,0.1,0,0.2,0.1c0,0,0.1,0,0.1,0c0,0,0.1,0,0.1,0
		c0,0,0.1,0,0.1,0c0.1,0,0.1,0,0.2,0c0,0,0.1,0,0.1,0c0.1,0,0.2,0,0.3,0c0.1,0,0.2,0,0.3,0c0,0,0,0,0.1,0c0.1,0,0.1,0,0.2,0
		c0,0,0,0,0.1,0c0.2,0,0.3-0.1,0.5-0.2c0,0,0,0,0,0c0.1,0,0.1-0.1,0.2-0.1c0,0,0,0,0.1,0c0.1,0,0.1-0.1,0.2-0.1c0,0,0,0,0.1,0
		c0,0,0,0,0,0v1.2c0,0.1,0,0.2,0,0.3c0,0,0,0,0,0c0,0,0,0,0,0c0,0,0,0,0,0c0,0,0,0,0,0c0,0,0,0,0,0c0,0,0,0,0,0c0,0,0,0,0,0
		c0,0,0,0,0.1,0c0,0,0.1,0,0.1,0c0.1,0,0.3,0,0.4,0.1c0.1,0,0.1,0,0.2,0c0.2,0,0.3,0.1,0.5,0.1c0.1,0,0.2,0,0.3,0.1c0,0,0,0,0,0
		c0,0,0,0,0,0c0,0,0.1,0,0.1,0c0,0,0.1,0,0.1,0l0,0l0,0c0,0,0,0,0,0c0.1,0,0.3,0.1,0.4,0.1c-0.2,1.4-1.8,2.4-3.9,2.4
		C159.5,193,157.8,191.9,157.7,190.5C157.6,190.5,157.7,190.5,157.7,190.5z"/>
	<path class="st19" d="M155.4,192.3c0.1-0.5,0.5-0.9,1.2-1.3c0,0,0,0,0,0c0.1,0,0.2-0.1,0.2-0.1c0.1,0,0.1-0.1,0.2-0.1
		c0,0,0.1,0,0.1,0c0.1,0,0.2-0.1,0.3-0.1c0.2,1.4,2,2.6,4,2.6c2.1,0,3.8-1.1,4-2.6c0,0,0.1,0,0.1,0.1c0,0,0.1,0,0.1,0
		c0.1,0,0.1,0.1,0.2,0.1c0,0,0.1,0,0.1,0.1c0.1,0,0.1,0.1,0.2,0.1c0.7,0.4,1.1,0.9,1.3,1.4c-1.6,1.5-3.7,2.4-6,2.4
		C159.1,194.8,157,193.8,155.4,192.3z"/>
	<g>
		<g>
			<path class="st17" d="M161.5,193.4c-2,0-3.8-1-4.2-2.5c-0.9,0.4-1.4,0.9-1.5,1.4c0,0.1-0.1,0.2-0.3,0.3c-0.1,0-0.3,0-0.4-0.1
				c-1.8-1.7-2.8-4.1-2.8-6.6c0-5.1,4.1-9.2,9.2-9.2c5.1,0,9.2,4.1,9.2,9.2c0,2.5-1,4.8-2.8,6.6c-0.1,0.1-0.2,0.1-0.4,0.1
				c-0.1,0-0.2-0.1-0.3-0.3c-0.1-0.5-0.7-1-1.5-1.4C165.3,192.4,163.5,193.4,161.5,193.4z M157.9,190.7c0.3,1.1,1.8,2,3.5,2
				c1.8,0,3.2-0.8,3.5-2l0,0c-0.1,0-0.1,0-0.2-0.1l-0.3-0.1c-0.4-0.1-0.9-0.2-1.4-0.3c-0.2,0-0.3-0.2-0.3-0.4c0-0.1,0-0.2,0.1-0.3
				c0.1-0.1,0.2-0.1,0.3-0.1c0.5,0.1,1,0.2,1.5,0.3c0,0,0,0,0.1,0c0,0,0.1,0,0.1,0l0.1,0c0.1,0,0.1,0,0.2,0.1l0.1,0c0,0,0,0,0,0
				c0,0,0,0,0,0l0.2,0.1c0,0,0,0,0,0c1,0.4,1.8,0.9,2.1,1.5c1.4-1.6,2.2-3.5,2.2-5.7c0-4.7-3.8-8.4-8.4-8.4c-4.7,0-8.4,3.8-8.4,8.4
				c0,2.1,0.8,4.1,2.2,5.7c0.4-0.6,1.1-1.2,2.2-1.5c0,0,0,0,0,0c0.3-0.1,0.5-0.2,0.8-0.3c0,0,0,0,0,0c0.5-0.1,1-0.2,1.5-0.3
				c0.1,0,0.2,0,0.3,0.1c0.1,0.1,0.2,0.2,0.1,0.4c0,0.1-0.2,0.3-0.3,0.3c-0.5,0.1-1,0.2-1.4,0.3c0,0,0,0,0,0l0,0
				C158.2,190.6,158.1,190.6,157.9,190.7z"/>
		</g>
		<g>
			<path class="st17" d="M166.4,191.3c-0.1,0-0.1,0-0.2-0.1c-0.4-0.2-0.8-0.4-1.3-0.6c0,0,0,0,0,0c-0.1,0-0.2,0-0.2-0.1l0,0
				c-0.1,0-0.1,0-0.2,0l0,0c0,0,0,0,0,0c-0.3-0.1-0.7-0.2-1.1-0.2c-0.1,0-0.2-0.1-0.3-0.1c-0.1-0.1-0.1-0.2-0.1-0.3
				c0-0.1,0-0.2,0-0.3v-0.7c-0.8,0.4-1.9,0.4-2.7,0v0.7c0,0.1,0,0.2,0,0.3c0,0.1,0,0.2-0.1,0.3c-0.1,0.1-0.2,0.1-0.2,0.1
				c-0.4,0.1-0.8,0.1-1.1,0.2c-0.1,0-0.2,0-0.3,0.1l0,0c-0.1,0-0.2,0-0.2,0.1c0,0-0.1,0-0.1,0l-0.2,0.1c-0.4,0.1-0.8,0.3-1.1,0.5
				c-0.1,0.1-0.3,0.1-0.4,0c-0.1-0.1-0.2-0.2-0.2-0.4l1.1-7.2c0.4-2.3,2.2-4,4.2-4c2,0,3.8,1.7,4.2,4l1.1,7.2c0,0.1,0,0.3-0.2,0.4
				C166.5,191.3,166.5,191.3,166.4,191.3z M164.8,189.8c0.1,0,0.2,0,0.2,0.1c0,0,0,0,0,0c0.3,0.1,0.6,0.2,0.9,0.3l-1-6.4
				c-0.4-2.2-2-3.3-3.5-3.3c-1.4,0-3.1,1.1-3.5,3.3l-1,6.4c0.2-0.1,0.3-0.1,0.5-0.2l0.3-0.1c0,0,0,0,0,0l0,0c0,0,0,0,0,0
				c0.1,0,0.1,0,0.2-0.1l0,0c0,0,0,0,0,0c0.1,0,0.2,0,0.3-0.1c0,0,0,0,0,0c0.3-0.1,0.6-0.1,0.9-0.2c0,0,0,0,0,0v-1.4
				c0-0.1,0.1-0.3,0.2-0.3c0.1-0.1,0.3,0,0.4,0c0.4,0.3,1,0.5,1.5,0.5c0.6,0,1.1-0.2,1.5-0.5c0.1-0.1,0.3-0.1,0.4,0
				c0.1,0.1,0.2,0.2,0.2,0.3v1.4c0,0,0,0,0,0c0.3,0,0.6,0.1,0.9,0.2c0,0,0,0,0,0c0,0,0,0,0,0l0.1,0
				C164.6,189.8,164.7,189.8,164.8,189.8l-0.1,0.4L164.8,189.8z"/>
		</g>
		<g>
			<g>
				<path class="st17" d="M161.5,195.2c-5.1,0-9.2-4.1-9.2-9.2c0-5.1,4.1-9.2,9.2-9.2c5.1,0,9.2,4.1,9.2,9.2
					C170.7,191.1,166.5,195.2,161.5,195.2z M161.5,177.5c-4.7,0-8.4,3.8-8.4,8.4c0,4.7,3.8,8.4,8.4,8.4c4.7,0,8.4-3.8,8.4-8.4
					C169.9,181.3,166.1,177.5,161.5,177.5z"/>
			</g>
		</g>
		<g>
			<path class="st17" d="M164.3,184.5h-6.7c-0.1,0-0.2,0-0.3-0.1c-0.1-0.1-0.1-0.2-0.1-0.3l0.1-0.4c0.4-2.3,2.2-4,4.2-4
				c2,0,3.8,1.7,4.2,4l0.1,0.4l-0.7,0.1l-0.1-0.4c-0.4-2.2-2-3.3-3.5-3.3c-1.4,0-3.1,1.1-3.5,3.3h6.3V184.5z"/>
		</g>
		<g>
			<path class="st17" d="M161.5,189.1c-1.7,0-3.1-1.4-3.1-3.1v-1.9c0-0.2,0.2-0.4,0.4-0.4h5.5c0.2,0,0.4,0.2,0.4,0.4v1.9
				C164.6,187.7,163.2,189.1,161.5,189.1z M159.1,184.5v1.5c0,1.3,1.1,2.4,2.4,2.4c1.3,0,2.4-1.1,2.4-2.4v-1.5H159.1z"/>
		</g>
	</g>
</g>
<g>
	<path class="st16" d="M240.2,26.1c0,8-6.3,14.4-14.1,14.4c-7.8,0-14.1-6.4-14.1-14.4c0-8,6.3-14.4,14.1-14.4
		C233.9,11.7,240.2,18.2,240.2,26.1z"/>
	<path class="st17" d="M226.2,41.2c-8.4,0-15.2-6.8-15.2-15.2s6.8-15.2,15.2-15.2c8.4,0,15.2,6.8,15.2,15.2S234.6,41.2,226.2,41.2z
		 M226.2,12.4c-7.5,0-13.6,6.1-13.6,13.6s6.1,13.6,13.6,13.6c7.5,0,13.6-6.1,13.6-13.6S233.7,12.4,226.2,12.4z"/>
	<polygon class="st20" points="232.6,34 227.7,34 227.6,29.2 224.7,29.2 224.7,34 219.9,34 219.9,25.9 226.2,19.6 232.6,25.9 	"/>
	<polyline class="st5" points="216.7,26.3 226.3,16.7 235.9,26.3 	"/>
</g>
<line class="st21" x1="115.2" y1="62" x2="154" y2="88.7"/>
<line class="st5" x1="160.6" y1="49.2" x2="170.5" y2="73.1"/>
<line class="st5" x1="193.5" y1="57.8" x2="192.1" y2="69.5"/>
<line class="st21" x1="220" y1="39.4" x2="204.5" y2="74.1"/>
<line class="st21" x1="254.4" y1="61.5" x2="220.2" y2="88.2"/>
<line class="st5" x1="261.1" y1="93.3" x2="224.6" y2="101.3"/>
<line class="st21" x1="273.8" y1="121.4" x2="223.9" y2="114.6"/>
<line class="st21" x1="249.9" y1="157.8" x2="215.2" y2="132.5"/>
<line class="st5" x1="198.7" y1="165.4" x2="193.8" y2="144.2"/>
<line class="st5" x1="164.4" y1="177.2" x2="174.5" y2="142.9"/>
<line class="st5" x1="149.3" y1="148.6" x2="161.3" y2="135.2"/>
<line class="st21" x1="108.3" y1="137.7" x2="151.5" y2="120.7"/>
<line class="st5" x1="130.6" y1="110.4" x2="149.2" y2="108.6"/>
<line class="st5" x1="85.3" y1="92.1" x2="149.6" y2="101.1"/>
<text transform="matrix(1 0 0 1 11.9336 70.2487)" class="st11 st22 st23">11010101001</text>
<text transform="matrix(1 0 0 1 285.5068 163.0939)" class="st11 st22 st24">10110101</text>
<g>
	<line class="st10" x1="33.4" y1="102" x2="33.4" y2="124.2"/>
	<polyline class="st10" points="27,107.2 33.3,100.9 39.9,107.5 	"/>
	<line class="st10" x1="33.4" y1="133.7" x2="33.4" y2="125.9"/>
	<line class="st10" x1="33.4" y1="135.4" x2="33.4" y2="139.2"/>
</g>
<g>
	<line class="st10" x1="327.6" y1="71.9" x2="327.6" y2="94.1"/>
	<polyline class="st10" points="321.3,77.1 327.6,70.8 334.1,77.3 	"/>
	<line class="st10" x1="327.6" y1="103.6" x2="327.6" y2="95.8"/>
	<line class="st10" x1="327.6" y1="105.3" x2="327.6" y2="109.1"/>
</g>
<g>
	<line class="st10" x1="345.8" y1="40.1" x2="345.8" y2="73.8"/>
	<polyline class="st10" points="336.2,48 345.8,38.4 355.7,48.3 	"/>
	<line class="st10" x1="345.8" y1="88.2" x2="345.8" y2="76.4"/>
	<line class="st10" x1="345.8" y1="90.7" x2="345.8" y2="96.5"/>
</g>
<text transform="matrix(1 0 0 1 302.0342 177.2463)" class="st11 st22 st23">11010101001</text>
<text transform="matrix(1 0 0 1 31.3457 56.2443)" class="st11 st22 st24">0101</text>
<circle class="st21" cx="100.2" cy="49" r="19"/>
<circle class="st21" cx="87.6" cy="147.7" r="22.5"/>
<circle class="st21" cx="265.2" cy="170.9" r="19.9"/>
<circle class="st21" cx="296.5" cy="120.4" r="22.4"/>
</svg>
