<?xml version="1.0" encoding="utf-8"?>
<!-- Generator: Adobe Illustrator 26.1.0, SVG Export Plug-In . SVG Version: 6.00 Build 0)  -->
<svg version="1.1" id="Layer_1" xmlns="http://www.w3.org/2000/svg" xmlns:xlink="http://www.w3.org/1999/xlink" x="0px" y="0px"
	 viewBox="0 0 380 212" style="enable-background:new 0 0 380 212;" xml:space="preserve">
<style type="text/css">
	.st0{fill-rule:evenodd;clip-rule:evenodd;fill:#F3F2F1;}
	.st1{fill:#F76C06;stroke:#3C3C3B;stroke-miterlimit:10;}
	.st2{fill:#C6C6C5;stroke:#3C3C3B;stroke-miterlimit:10;}
	.st3{fill:#86C4EA;stroke:#3C3C3B;stroke-miterlimit:10;}
	.st4{fill:#1D70B8;}
	.st5{fill:none;stroke:#3C3C3B;stroke-miterlimit:10;}
	.st6{fill:none;stroke:#1D70B8;stroke-width:1.25;stroke-miterlimit:10;}
	.st7{fill:#FFFFFF;stroke:#3C3C3B;stroke-miterlimit:10;}
	.st8{fill:none;stroke:#3C3C3B;stroke-width:2;stroke-miterlimit:10;}
	.st9{fill:#C6C6C5;stroke:#3C3C3B;stroke-linejoin:round;stroke-miterlimit:10;}
	.st10{fill:none;stroke:#C6C6C5;stroke-width:1.25;stroke-miterlimit:10;}
	.st11{fill:#C6C6C5;}
	.st12{fill:#F3F2F1;stroke:#C6C6C5;stroke-width:1.25;stroke-miterlimit:10;}
	.st13{fill:#F7BB92;stroke:#3C3C3B;stroke-width:1.25;stroke-miterlimit:10;}
	.st14{fill:#86C4EA;stroke:#3C3C3B;stroke-width:1.25;stroke-miterlimit:10;}
	.st15{fill:none;stroke:#3C3C3B;stroke-width:1.25;stroke-miterlimit:10;}
	.st16{fill:#C6C6C5;stroke:#3C3C3B;stroke-width:1.25;stroke-miterlimit:10;}
	.st17{fill:#FFFFFF;stroke:#3C3C3B;stroke-width:1.25;stroke-miterlimit:10;}
	.st18{fill:#F76C06;stroke:#3C3C3B;stroke-width:1.25;stroke-linejoin:round;stroke-miterlimit:10;}
	.st19{fill:#F5F5F5;stroke:#3C3C3B;stroke-width:1.25;stroke-linejoin:round;stroke-miterlimit:10;}
	.st20{fill:#3C3C3B;}
	.st21{fill:#F5F5F5;stroke:#C6C6C5;stroke-width:1.25;stroke-miterlimit:10;}
</style>
<rect x="1227.2" y="1643.7" class="st0" width="329.2" height="183.6"/>
<polygon class="st1" points="1365.7,1716.8 1413.7,1694.6 1413.7,1772.7 1365.7,1750.6 "/>
<rect x="1328.1" y="1719.9" class="st2" width="21.7" height="27.7"/>
<rect x="1333.5" y="1716.9" class="st3" width="32.4" height="33.7"/>
<rect x="1334.3" y="1717.6" class="st4" width="30.9" height="15.5"/>
<rect x="1413.6" y="1692.3" transform="matrix(-1 -1.224647e-16 1.224647e-16 -1 2831.6497 3468.437)" class="st3" width="4.4" height="83.8"/>
<rect x="1414.3" y="1693.1" class="st4" width="2.9" height="39.8"/>
<line class="st5" x1="1372.7" y1="1733.4" x2="1405.1" y2="1733.4"/>
<line class="st5" x1="1372.7" y1="1724.5" x2="1405.1" y2="1717.1"/>
<line class="st5" x1="1372.7" y1="1742.3" x2="1405.1" y2="1749.7"/>
<polygon class="st2" points="1354.8,1750.8 1344,1750.8 1351.6,1778.5 1362.5,1778.5 "/>
<g>
	<line class="st6" x1="1458.8" y1="1732.8" x2="1431.6" y2="1732.8"/>
	<polyline class="st6" points="1449.5,1723.3 1458.9,1732.7 1449.2,1742.4 	"/>
</g>
<g>
	<line class="st6" x1="1451" y1="1705.5" x2="1424.5" y2="1711.4"/>
	<polyline class="st6" points="1440,1698.2 1451.2,1705.4 1443.8,1717 	"/>
</g>
<g>
	<line class="st6" x1="1450.2" y1="1759.8" x2="1423.7" y2="1753.9"/>
	<polyline class="st6" points="1443.3,1748.5 1450.4,1759.8 1438.7,1767.2 	"/>
</g>
<g>
	<polygon class="st2" points="1266.6,1702.1 1301.8,1702.1 1301.8,1725.5 1281.6,1725.5 1272.8,1732.6 1272.7,1725.5 1266.6,1725.5 
			"/>
	<polygon class="st7" points="1318.1,1688.2 1275.6,1688.2 1275.6,1716.4 1300,1716.4 1310.7,1724.9 1310.7,1716.4 1318.1,1716.4 	
		"/>
	<line class="st5" x1="1283.5" y1="1697.3" x2="1309.8" y2="1697.3"/>
	<line class="st5" x1="1283.5" y1="1702.3" x2="1309.8" y2="1702.3"/>
	<line class="st5" x1="1283.5" y1="1707.3" x2="1302.2" y2="1707.3"/>
</g>
<g>
	<polygon class="st2" points="1289.2,1775 1313.6,1775 1313.6,1791.2 1299.6,1791.2 1293.5,1796.1 1293.5,1791.2 1289.2,1791.2 	"/>
	<polygon class="st7" points="1324.9,1765.3 1295.5,1765.3 1295.5,1784.9 1312.4,1784.9 1319.8,1790.8 1319.8,1784.9 1324.9,1784.9 
			"/>
	<line class="st5" x1="1301" y1="1771.6" x2="1319.2" y2="1771.6"/>
	<line class="st5" x1="1301" y1="1775.1" x2="1319.2" y2="1775.1"/>
	<line class="st5" x1="1301" y1="1778.6" x2="1313.9" y2="1778.6"/>
</g>
<g>
	<polygon class="st3" points="1399.9,1801.5 1383.1,1801.5 1383.1,1778 1394.7,1778 1399.9,1782.8 	"/>
	<polyline class="st5" points="1394.5,1779.2 1394.5,1782.9 1398.5,1782.9 	"/>
	<line class="st5" x1="1385.5" y1="1788.6" x2="1397.7" y2="1788.6"/>
	<line class="st5" x1="1385.5" y1="1791.1" x2="1397.7" y2="1791.1"/>
	<line class="st5" x1="1385.5" y1="1793.6" x2="1394.7" y2="1793.6"/>
	<line class="st5" x1="1385.5" y1="1786.2" x2="1397.7" y2="1786.2"/>
</g>
<g>
	<polygon class="st3" points="1359.5,1698.4 1339.4,1698.4 1339.4,1670.1 1353.3,1670.1 1359.5,1675.9 	"/>
	<polyline class="st5" points="1353.1,1671.5 1353.1,1676 1357.8,1676 	"/>
	<line class="st5" x1="1342.2" y1="1682.9" x2="1356.9" y2="1682.9"/>
	<line class="st5" x1="1342.2" y1="1685.9" x2="1356.9" y2="1685.9"/>
	<line class="st5" x1="1342.2" y1="1688.8" x2="1353.3" y2="1688.8"/>
	<line class="st5" x1="1342.2" y1="1679.9" x2="1356.9" y2="1679.9"/>
</g>
<g>
	<path class="st7" d="M1471.5,1740.6l44.4,0l0.1,0h0.1c2.7,0,4.9-2.2,4.9-4.9h0v-42.4h-44.8v8.1"/>
	<path class="st2" d="M1476.3,1701.6v34.1c0,2.7-2.2,4.9-4.9,4.9h-0.1c-2.7,0-4.9-2.2-4.9-4.9v-34.1H1476.3z"/>
	<line class="st5" x1="1471.5" y1="1705.9" x2="1471.5" y2="1736.3"/>
	<rect x="1482.7" y="1699.7" class="st1" width="10.8" height="10.8"/>
	<line class="st8" x1="1497.6" y1="1702.5" x2="1515.6" y2="1702.5"/>
	<line class="st8" x1="1497.6" y1="1707.6" x2="1512.2" y2="1707.6"/>
	<line class="st5" x1="1482.2" y1="1716.2" x2="1515.6" y2="1716.2"/>
	<line class="st5" x1="1482.2" y1="1721.3" x2="1515.6" y2="1721.3"/>
	<line class="st5" x1="1482.2" y1="1726.4" x2="1515.6" y2="1726.4"/>
	<line class="st5" x1="1482.2" y1="1731.5" x2="1505.7" y2="1731.5"/>
</g>
<g>
	<path class="st9" d="M1493.8,1778.1c-1.1,0-1.9,0.1-2.8-0.7c-0.8-0.7-3.6-3-3.6-5.2c0-1.7,0-18.1,0-18.1v-2.4
		c0-1.9,1.5-3.4,3.4-3.4l0,0c1.9,0,3.4,1.5,3.4,3.4v0.9l-0.1-0.6v-2.4c0-1.9,1.5-3.4,3.4-3.4l0,0c1.9,0,3.4,1.5,3.4,3.4v2.4l0.1-1.6
		v-2.4c0-1.9,1.5-3.4,3.4-3.4h0c1.9,0,3.4,1.5,3.4,3.4v2.4l0.1,0.2v-16.4c0-1.9,1.5-3.4,3.4-3.4l0,0c1.9,0,3.4,1.5,3.4,3.4v26.5h0
		v-5.9c0-1.9,1-5.3,5-5.2l0,0c1.7,0,1.7,1.5,1.7,3v14.9c0,0-8.5,8.9-9.1,9.6c-0.6,0.7-1.7,1-3.2,0.9"/>
	
		<rect x="1497.4" y="1769.6" transform="matrix(-1.836970e-16 1 -1 -1.836970e-16 3282.0115 280.7776)" class="st7" width="6.5" height="23.6"/>
	
		<rect x="1492.4" y="1777" transform="matrix(6.123234e-17 -1 1 6.123234e-17 -292.2922 3290.5325)" class="st3" width="13.5" height="28.8"/>
	
		<rect x="1485.6" y="1784.8" transform="matrix(6.123234e-17 -1 1 6.123234e-17 -299.5312 3283.2781)" class="st4" width="12.5" height="13.2"/>
</g>
<path class="st10" d="M1402.9,1672.5c5.3,0,5.3,6.3,10.7,6.3c5.3,0,5.3-6.3,10.7-6.3c5.3,0,5.3,6.3,10.6,6.3c5.3,0,5.3-6.3,10.7-6.3
	s5.3,6.4,10.6,6.4"/>
<g>
	<g>
		
			<rect x="1462.8" y="1673.7" transform="matrix(0.9444 0.3287 -0.3287 0.9444 631.8187 -388.0783)" class="st11" width="1.6" height="1.6"/>
		
			<rect x="1464.2" y="1671.3" transform="matrix(0.7518 0.6594 -0.6594 0.7518 1466.082 -551.0302)" class="st11" width="1.6" height="1.6"/>
		
			<rect x="1466.6" y="1669.4" transform="matrix(0.4471 0.8945 -0.8945 0.4471 2305.2815 -389.1447)" class="st11" width="1.6" height="1.6"/>
		
			<rect x="1469.4" y="1668.6" transform="matrix(7.835844e-02 0.9969 -0.9969 7.835844e-02 3019.3486 72.9053)" class="st11" width="1.6" height="1.6"/>
		
			<rect x="1472.5" y="1669.1" transform="matrix(-0.3557 0.9346 -0.9346 -0.3557 3558.0464 886.7704)" class="st11" width="1.6" height="1.6"/>
		
			<rect x="1475" y="1670.5" transform="matrix(-0.6628 0.7488 -0.7488 -0.6628 3705.4058 1674.1732)" class="st11" width="1.6" height="1.6"/>
		
			<rect x="1476.7" y="1673" transform="matrix(-0.9099 0.4149 -0.4149 -0.9099 3516.342 2583.7734)" class="st11" width="1.6" height="1.6"/>
		
			<rect x="1477.5" y="1675.9" transform="matrix(-0.9997 2.284168e-02 -2.284168e-02 -0.9997 2994.4224 3319.137)" class="st11" width="1.6" height="1.6"/>
	</g>
	
		<rect x="1477.1" y="1678.7" transform="matrix(-0.9444 -0.3287 0.3287 -0.9444 2321.4646 3751.5029)" class="st11" width="1.6" height="1.6"/>
	
		<rect x="1475.6" y="1681.2" transform="matrix(-0.7518 -0.6594 0.6594 -0.7518 1477.4296 3920.0618)" class="st11" width="1.6" height="1.6"/>
	
		<rect x="1473.3" y="1683" transform="matrix(-0.4471 -0.8945 0.8945 -0.4471 627.0215 3755.1831)" class="st11" width="1.6" height="1.6"/>
	
		<rect x="1470.4" y="1683.8" transform="matrix(-7.835844e-02 -0.9969 0.9969 -7.835844e-02 -92.8928 3283.3184)" class="st11" width="1.6" height="1.6"/>
	
		<rect x="1467.3" y="1683.4" transform="matrix(0.3557 -0.9346 0.9346 0.3557 -628.0513 2457.3337)" class="st11" width="1.6" height="1.6"/>
	
		<rect x="1464.9" y="1681.9" transform="matrix(0.6628 -0.7488 0.7488 0.6628 -765.7613 1664.8077)" class="st11" width="1.6" height="1.6"/>
	
		<rect x="1463.1" y="1679.4" transform="matrix(0.9099 -0.4149 0.4149 0.9099 -565.149 758.7548)" class="st11" width="1.6" height="1.6"/>
	
		<rect x="1462.4" y="1676.6" transform="matrix(0.9997 -2.284168e-02 2.284168e-02 0.9997 -37.9322 33.8603)" class="st11" width="1.6" height="1.6"/>
</g>
<g>
	<line class="st10" x1="1272.1" y1="1678.9" x2="1256.4" y2="1678.9"/>
	<line class="st10" x1="1264.2" y1="1686.7" x2="1264.2" y2="1671.1"/>
</g>
<rect x="1262.3" y="1758.8" transform="matrix(-0.7071 0.7071 -0.7071 -0.7071 3407.1292 2113.4431)" class="st12" width="7.2" height="7.2"/>
<rect x="0.4" y="0.6" class="st0" width="380.2" height="212.1"/>
<g>
	<line class="st10" x1="138.9" y1="42.3" x2="109.3" y2="42.3"/>
	<polyline class="st10" points="132,33.8 140.5,42.2 131.7,51 	"/>
	<line class="st10" x1="96.7" y1="42.3" x2="107" y2="42.3"/>
	<line class="st10" x1="94.4" y1="42.3" x2="89.4" y2="42.3"/>
</g>
<path class="st10" d="M27,141.9c7.7,0,7.8,9.2,15.5,9.2c7.7,0,7.8-9.2,15.6-9.2c7.7,0,7.7,9.2,15.4,9.2s7.7-9.2,15.5-9.2
	s7.7,9.3,15.5,9.3"/>
<path class="st13" d="M61.7,130.4l24.1-24c2.3-2.6,3.7-6,3.7-9.8c0-8.2-6.6-14.8-14.8-14.8c-3.8,0-7.3,1.4-9.9,3.8l-3.2,3.2l0,0
	l-3.2-3.3c-2.6-2.4-6.1-3.8-9.9-3.8c-8.2,0-14.8,6.6-14.8,14.8c0,3.7,1.4,7.2,3.7,9.8L61.7,130.4z"/>
<path class="st14" d="M71.9,61H64v-7.9c0-0.8-0.7-1.5-1.5-1.5h-2c-0.8,0-1.5,0.7-1.5,1.5V61h-7.9c-0.8,0-1.5,0.7-1.5,1.5v2
	c0,0.8,0.7,1.5,1.5,1.5H59v7.9c0,0.8,0.7,1.5,1.5,1.5h2c0.8,0,1.5-0.7,1.5-1.5V66h7.9c0.8,0,1.5-0.7,1.5-1.5v-2
	C73.4,61.6,72.7,61,71.9,61z"/>
<circle class="st11" cx="322" cy="105.7" r="25"/>
<g>
	<path class="st14" d="M327.5,135.5h-10.8c-5.4,0-9.7-4.4-9.7-9.7v-12.6c0-5.4,5.2-9.7,13.8-9.7h2.7c9,0,13.8,4.4,13.8,9.7v12.6
		C337.3,131.1,332.9,135.5,327.5,135.5z"/>
	<circle class="st14" cx="322.2" cy="96.8" r="6.3"/>
	<path class="st14" d="M331,111.8v21.7l-1.2,20.4c0,1.3-1,2.3-2.3,2.3h-10.8c-1.3,0-2.3-1-2.3-2.3l-1.2-20.3v-21.9"/>
	<line class="st15" x1="321.8" y1="156" x2="321.8" y2="134.5"/>
</g>
<g>
	<line class="st6" x1="342" y1="111.1" x2="355.7" y2="124.8"/>
	<polyline class="st6" points="341.8,120.5 341.8,111 351.7,111 	"/>
</g>
<g>
	<line class="st6" x1="302.8" y1="111.1" x2="289.1" y2="124.8"/>
	<polyline class="st6" points="293.4,111 302.9,111 302.9,120.8 	"/>
</g>
<g>
	<line class="st6" x1="342" y1="100.1" x2="355.7" y2="86.4"/>
	<polyline class="st6" points="341.8,90.7 341.8,100.2 351.7,100.2 	"/>
</g>
<g>
	<line class="st6" x1="302.8" y1="100.1" x2="289.1" y2="86.4"/>
	<polyline class="st6" points="293.4,100.2 302.9,100.2 302.9,90.4 	"/>
</g>
<g>
	<line class="st6" x1="322" y1="85.6" x2="321.6" y2="66.3"/>
	<polyline class="st6" points="315.1,79.2 321.9,85.8 328.8,78.7 	"/>
</g>
<g>
	<g>
		
			<rect x="48.2" y="171.9" transform="matrix(0.9444 0.3287 -0.3287 0.9444 59.5406 -6.5332)" class="st11" width="1.8" height="1.8"/>
		
			<rect x="49.8" y="169" transform="matrix(0.7518 0.6594 -0.6594 0.7518 124.6546 8.7374)" class="st11" width="1.8" height="1.8"/>
		
			<rect x="52.6" y="166.9" transform="matrix(0.4471 0.8945 -0.8945 0.4471 179.7129 44.9658)" class="st11" width="1.8" height="1.8"/>
		
			<rect x="55.8" y="166" transform="matrix(7.835844e-02 0.9969 -0.9969 7.835844e-02 218.7205 97.307)" class="st11" width="1.8" height="1.8"/>
		
			<rect x="59.4" y="166.5" transform="matrix(-0.3557 0.9346 -0.9346 -0.3557 238.27 170.6424)" class="st11" width="1.8" height="1.8"/>
		
			<rect x="62.2" y="168.2" transform="matrix(-0.6628 0.7488 -0.7488 -0.6628 231.5967 233.9889)" class="st11" width="1.8" height="1.8"/>
		
			<rect x="64.2" y="171.1" transform="matrix(-0.9099 0.4149 -0.4149 -0.9099 195.8109 301.4153)" class="st11" width="1.8" height="1.8"/>
		
			<rect x="65.1" y="174.4" transform="matrix(-0.9997 2.284168e-02 -2.284168e-02 -0.9997 135.9592 349.0351)" class="st11" width="1.8" height="1.8"/>
	</g>
	
		<rect x="64.6" y="177.7" transform="matrix(-0.9444 -0.3287 0.3287 -0.9444 68.7043 368.7698)" class="st11" width="1.8" height="1.8"/>
	
		<rect x="63" y="180.5" transform="matrix(-0.7518 -0.6594 0.6594 -0.7518 -7.6971 359.976)" class="st11" width="1.8" height="1.8"/>
	
		<rect x="60.2" y="182.6" transform="matrix(-0.4471 -0.8945 0.8945 -0.4471 -75.7028 320.29)" class="st11" width="1.8" height="1.8"/>
	
		<rect x="57" y="183.5" transform="matrix(-7.835844e-02 -0.9969 0.9969 -7.835844e-02 -121.4643 256.6118)" class="st11" width="1.8" height="1.8"/>
	
		<rect x="53.4" y="183" transform="matrix(0.3557 -0.9346 0.9346 0.3557 -136.9255 169.2771)" class="st11" width="1.8" height="1.8"/>
	
		<rect x="50.6" y="181.3" transform="matrix(0.6628 -0.7488 0.7488 0.6628 -119.1063 100.0124)" class="st11" width="1.8" height="1.8"/>
	
		<rect x="48.5" y="178.5" transform="matrix(0.9099 -0.4149 0.4149 0.9099 -69.9805 36.6835)" class="st11" width="1.8" height="1.8"/>
	
		<rect x="47.7" y="175.2" transform="matrix(0.9997 -2.284168e-02 2.284168e-02 0.9997 -4.0098 1.1568)" class="st11" width="1.8" height="1.8"/>
</g>
<g>
	<line class="st10" x1="280.1" y1="157.8" x2="333.6" y2="157.8"/>
	<line class="st10" x1="360.7" y1="157.8" x2="368.6" y2="157.8"/>
	<line class="st10" x1="338.4" y1="157.8" x2="355.9" y2="157.8"/>
</g>
<rect x="101.5" y="64" class="st16" width="178.5" height="115.9"/>
<rect x="108.6" y="71.3" class="st17" width="164.1" height="101.2"/>
<rect x="117.6" y="80.3" class="st4" width="53" height="9"/>
<rect x="117.6" y="94.6" class="st4" width="85.5" height="9"/>
<rect x="117.6" y="108.9" class="st4" width="74.7" height="9"/>
<g>
	<polygon class="st16" points="227.9,160.1 228,118.5 250.7,118.6 250.6,160.2 239.4,153.7 	"/>
	<polygon class="st18" points="239.3,97.4 247.2,91 249.8,100.8 260.1,100.3 256.4,109.8 265,115.4 256.4,121 260.1,130.5 
		249.8,129.9 247.2,139.8 239.3,133.4 231.3,139.8 228.7,129.9 218.5,130.5 222.1,121 213.6,115.4 222.1,109.8 218.5,100.3 
		228.7,100.8 231.3,91 	"/>
	<circle class="st19" cx="239.5" cy="115.7" r="13.2"/>
	<polyline class="st8" points="232.7,115.1 237.2,119.6 246.2,110.6 	"/>
</g>
<line class="st15" x1="101.5" y1="64" x2="109" y2="71.9"/>
<line class="st15" x1="101.5" y1="179.9" x2="108.8" y2="172.1"/>
<line class="st15" x1="272.7" y1="172.5" x2="279.9" y2="179.9"/>
<line class="st15" x1="272.7" y1="71.3" x2="279.9" y2="64"/>
<rect x="117.6" y="137.9" class="st20" width="68.8" height="3.3"/>
<rect x="117.6" y="145.3" class="st20" width="53" height="3.3"/>
<rect x="117.6" y="152.8" class="st20" width="60.6" height="3.3"/>
<polygon class="st12" points="235.3,26.5 241.7,21.3 238.8,29.1 245.7,33.6 237.5,33.2 235.3,41.2 233.1,33.2 224.9,33.6 
	231.7,29.1 228.8,21.3 "/>
<circle class="st21" cx="206.5" cy="33.4" r="3.6"/>
</svg>
