<?xml version="1.0" encoding="UTF-8"?>
<svg width="28px" height="28px" viewBox="0 0 28 28" version="1.1" xmlns="http://www.w3.org/2000/svg" xmlns:xlink="http://www.w3.org/1999/xlink">
    <title>Group</title>
    <g id="Symbols" stroke="none" stroke-width="1" fill="none" fill-rule="evenodd">
        <g id="Group">
            <g id="Group-4" fill="#00703C" fill-rule="nonzero">
                <g id="Group-2">
                    <circle id="Oval" cx="14" cy="14" r="14"></circle>
                </g>
            </g>
            <path d="M10.3969871,17.6074014 L7.20893589,14.6164792 C6.97809808,14.3999149 6.61873401,14.3999149 6.3878962,14.6164792 L5.92846953,15.0474978 C5.68680252,15.2742216 5.6746887,15.6539275 5.90141254,15.8955945 C5.91014159,15.9048988 5.91916517,15.9139224 5.92846953,15.9226515 L10.3969871,20.1148641 C10.6278249,20.3314284 10.987189,20.3314284 11.2180268,20.1148641 L21.7956353,10.1913082 C22.0373023,9.96458433 22.0494161,9.58487851 21.8226923,9.3432115 C21.8139632,9.33390713 21.8049396,9.32488355 21.7956353,9.31615451 L21.3362086,8.88513589 C21.1053708,8.66857164 20.7460067,8.66857164 20.5151689,8.88513589 L11.2180268,17.6074014 C10.987189,17.8239657 10.6278249,17.8239657 10.3969871,17.6074014 Z" id="Glyph" stroke="#FFFFFF" fill="#FFFFFF" stroke-linejoin="round"></path>
        </g>
    </g>
</svg>