<?xml version="1.0" encoding="UTF-8"?>
<svg width="28px" height="28px" viewBox="0 0 28 28" version="1.1" xmlns="http://www.w3.org/2000/svg" xmlns:xlink="http://www.w3.org/1999/xlink">
    <title>Group</title>
    <defs>
        <polygon id="path-1" points="0 -1.08944473e-15 10 -1.08944473e-15 10 19 0 19"></polygon>
    </defs>
    <g id="Symbols" stroke="none" stroke-width="1" fill="none" fill-rule="evenodd">
        <g id="Group">
            <circle id="Oval" fill="#D4351C" fill-rule="nonzero" cx="14" cy="14" r="14"></circle>
            <g id="Group-3" transform="translate(9, 5)">
                <mask id="mask-2" fill="white">
                    <use xlink:href="#path-1"></use>
                </mask>
                <g id="Clip-2"></g>
                <path d="M2.25795901,0 L1.50566943,0 C0.673789795,0 0,0.760490639 0,1.70497095 L0,17.7243383 C0,18.435765 0.505887484,19 1.12952464,19 C1.75207152,19 2.25795901,18.435765 2.25795901,17.7243383 L2.25795901,9.86184635 C2.25795901,9.1626856 2.76384649,8.59845061 3.38748365,8.59845061 L8.49433057,8.59845061 C9.32511993,8.59845061 10,7.83795997 10,6.90574564 L10,1.70497095 C10,0.760490639 9.32511993,0 8.49433057,0 L2.25795901,0 Z" id="Fill-1" fill="#FFFFFF" mask="url(#mask-2)"></path>
            </g>
        </g>
    </g>
</svg>