<svg width="16px" height="12px" viewBox="0 0 16 12" version="1.1" xmlns="http://www.w3.org/2000/svg" xmlns:xlink="http://www.w3.org/1999/xlink">
  <g id="Bulk-upload" stroke="none" stroke-width="1" fill="none" fill-rule="evenodd">
    <g id="Failed-validation" transform="translate(-1038.000000, -1679.000000)" fill="#FFFFFF">
      <g id="Group-8" transform="translate(1023.000000, 1670.000000)">
        <g id="Group-6" transform="translate(15.500000, 3.000000)">
          <path d="M14.7016058,9.17807692 L6.68514429,17.192 C6.66822121,17.2080769 6.64960582,17.2190769 6.63268275,17.2343077 C6.62760582,17.2393846 6.62506736,17.2453077 6.61999044,17.2503846 C6.00822121,17.8621538 5.01399044,17.8621538 4.40222121,17.2495385 L0.459144286,13.3056154 C-0.153471099,12.693 -0.152624945,11.6996154 0.459144286,11.0878462 C1.07260582,10.4752308 2.06514429,10.4752308 2.67775967,11.0878462 L5.51491352,13.9258462 L12.4838366,6.95946154 C13.096452,6.34684615 14.0889904,6.34684615 14.7016058,6.95946154 C15.3142212,7.57292308 15.3142212,8.56546154 14.7016058,9.17807692" id="Path"></path>
        </g>
      </g>
    </g>
  </g>
</svg>
