<?xml version="1.0" encoding="UTF-8"?>
<svg width="88px" height="25px" viewBox="23 46 88 25" version="1.1"
  xmlns="http://www.w3.org/2000/svg" xmlns:xlink="http://www.w3.org/1999/xlink">
  <title>Notifications/Update</title>
  <g id="Symbols" stroke="none" stroke-width="1" fill="none" fill-rule="evenodd">
    <g id="Notifications/Update" transform="translate(23, 46)">
      <rect id="Rectangle" fill="#1D70B8" fill-rule="evenodd" x="0" y="0" width="88" height="25"></rect>
      <path
        d="M22.0469738,13.8746301 L22.0469738,6.576 L19.4692417,6.576 L19.4692417,13.8746301 C19.4692417,14.7513425 19.2941091,15.3951781 18.943844,15.806137 C18.5935789,16.2170959 17.9587234,16.4225753 17.0392776,16.4225753 C16.5138799,16.4225753 16.0952037,16.3486027 15.7832488,16.2006575 C15.471294,16.0527123 15.2277503,15.8609315 15.0526178,15.6253151 C14.8774852,15.3896986 14.7625545,15.1184658 14.7078256,14.8116164 C14.6530966,14.5047671 14.6257322,14.1924384 14.6257322,13.8746301 L14.6257322,6.576 L12.048,6.576 L12.048,13.8746301 C12.048,15.4746301 12.4830949,16.6581918 13.3532848,17.4253151 C14.2234746,18.1924384 15.4521389,18.576 17.0392776,18.576 C18.6045247,18.576 19.8304525,18.1896986 20.7170611,17.4170959 C21.6036696,16.6444932 22.0469738,15.4636712 22.0469738,13.8746301 Z"
        id="Path" fill="#FFFFFF" fill-rule="nonzero"></path>
      <path
        d="M26.8990361,12.0992877 L26.8990361,8.58147945 L28.9470361,8.58147945 C29.2492,8.58147945 29.5401727,8.60339726 29.8199541,8.64723288 C30.0997356,8.69106849 30.3459432,8.776 30.5585771,8.9020274 C30.771211,9.02805479 30.9418776,9.20613699 31.0705771,9.43627397 C31.1992765,9.66641096 31.2636263,9.96778082 31.2636263,10.3403836 C31.2636263,10.7129863 31.1992765,11.0143562 31.0705771,11.2444932 C30.9418776,11.4746301 30.771211,11.6527123 30.5585771,11.7787397 C30.3459432,11.9047671 30.0997356,11.9896986 29.8199541,12.0335342 C29.5401727,12.0773699 29.2492,12.0992877 28.9470361,12.0992877 L26.8990361,12.0992877 Z M24.2634951,6.576 L24.2634951,18.3129863 L26.8990361,18.3129863 L26.8990361,14.1047671 L29.6688722,14.1047671 C30.4186864,14.1047671 31.056588,13.9979178 31.5825771,13.7842192 C32.1085662,13.5705205 32.5366317,13.2883288 32.8667738,12.9376438 C33.1969159,12.5869589 33.4375279,12.1842192 33.5886099,11.7294247 C33.7396918,11.2746301 33.8152328,10.8116164 33.8152328,10.3403836 C33.8152328,9.85819178 33.7396918,9.39243836 33.5886099,8.94312329 C33.4375279,8.49380822 33.1969159,8.09380822 32.8667738,7.74312329 C32.5366317,7.39243836 32.1085662,7.11024658 31.5825771,6.89654795 C31.056588,6.68284932 30.4186864,6.576 29.6688722,6.576 L24.2634951,6.576 Z"
        id="Shape" fill="#FFFFFF" fill-rule="nonzero"></path>
      <path
        d="M37.8502932,16.1431233 L37.8502932,8.74586301 L39.7304243,8.74586301 C40.3795172,8.74586301 40.925091,8.83627397 41.3671456,9.01709589 C41.8092003,9.19791781 42.1645227,9.45819178 42.4331128,9.79791781 C42.701703,10.1376438 42.8947522,10.545863 43.0122604,11.0225753 C43.1297686,11.4992877 43.1885227,12.0335342 43.1885227,12.6253151 C43.1885227,13.2718904 43.1045882,13.8198356 42.9367194,14.2691507 C42.7688505,14.7184658 42.5450254,15.0828493 42.265244,15.3623014 C41.9854626,15.6417534 41.6665117,15.8417534 41.3083915,15.9623014 C40.9502713,16.0828493 40.5809598,16.1431233 40.2004571,16.1431233 L37.8502932,16.1431233 Z M35.2147522,6.576 L35.2147522,18.3129863 L40.3851128,18.3129863 C41.3027959,18.3129863 42.1001729,18.1623014 42.777244,17.8609315 C43.454315,17.5595616 44.0194735,17.145863 44.4727194,16.6198356 C44.9259653,16.0938082 45.2645008,15.4691507 45.488326,14.745863 C45.7121511,14.0225753 45.8240637,13.2335342 45.8240637,12.3787397 C45.8240637,11.4033973 45.6869708,10.5540822 45.412785,9.83079452 C45.1385992,9.10750685 44.7580964,8.50476712 44.2712768,8.02257534 C43.7844571,7.54038356 43.2081074,7.17873973 42.5422276,6.93764384 C41.8763478,6.69654795 41.1573096,6.576 40.3851128,6.576 L35.2147522,6.576 Z"
        id="Shape" fill="#FFFFFF" fill-rule="nonzero"></path>
      <path
        d="M50.4302463,13.776 L51.9914266,9.46915068 L52.0250004,9.46915068 L53.5358201,13.776 L50.4302463,13.776 Z M50.6820496,6.576 L46.1495906,18.3129863 L48.8019184,18.3129863 L49.741984,15.6992877 L54.2240824,15.6992877 L55.1305742,18.3129863 L57.8668365,18.3129863 L53.3847381,6.576 L50.6820496,6.576 Z"
        id="Shape" fill="#FFFFFF" fill-rule="nonzero"></path>
      <polygon id="Path" fill="#FFFFFF" fill-rule="nonzero"
        points="59.7114171 8.74586301 59.7114171 18.3129863 62.2891493 18.3129863 62.2891493 8.74586301 65.802746 8.74586301 65.802746 6.576 56.1978204 6.576 56.1978204 8.74586301"></polygon>
      <polygon id="Path" fill="#FFFFFF" fill-rule="nonzero"
        points="67.1490775 6.576 67.1490775 18.3129863 76.048 18.3129863 76.048 16.1431233 69.7268096 16.1431233 69.7268096 13.266411 75.4076716 13.266411 75.4076716 11.2609315 69.7268096 11.2609315 69.7268096 8.74586301 75.9166506 8.74586301 75.9166506 6.576"></polygon>
    </g>
  </g>
</svg>