<?xml version="1.0" encoding="utf-8"?>
<!-- Generator: Adobe Illustrator 26.1.0, SVG Export Plug-In . SVG Version: 6.00 Build 0)  -->
<svg version="1.1" id="Layer_1" xmlns="http://www.w3.org/2000/svg" xmlns:xlink="http://www.w3.org/1999/xlink" x="0px" y="0px"
	 viewBox="0 0 380 212" style="enable-background:new 0 0 380 212;" xml:space="preserve">
<style type="text/css">
	.st0{fill-rule:evenodd;clip-rule:evenodd;fill:#F3F2F1;}
	.st1{fill:#F76C06;stroke:#3C3C3B;stroke-miterlimit:10;}
	.st2{fill:#C6C6C5;stroke:#3C3C3B;stroke-miterlimit:10;}
	.st3{fill:#86C4EA;stroke:#3C3C3B;stroke-miterlimit:10;}
	.st4{fill:#1D70B8;}
	.st5{fill:none;stroke:#3C3C3B;stroke-miterlimit:10;}
	.st6{fill:none;stroke:#1D70B8;stroke-width:1.25;stroke-miterlimit:10;}
	.st7{fill:#FFFFFF;stroke:#3C3C3B;stroke-miterlimit:10;}
	.st8{fill:none;stroke:#3C3C3B;stroke-width:2;stroke-miterlimit:10;}
	.st9{fill:#C6C6C5;stroke:#3C3C3B;stroke-linejoin:round;stroke-miterlimit:10;}
	.st10{fill:none;stroke:#C6C6C5;stroke-width:1.25;stroke-miterlimit:10;}
	.st11{fill:#C6C6C5;}
	.st12{fill:#F3F2F1;stroke:#C6C6C5;stroke-width:1.25;stroke-miterlimit:10;}
	.st13{fill:#F4D5C1;}
	.st14{fill:#F7BB92;}
	.st15{fill:#F76C06;}
	.st16{fill:#86C4EA;stroke:#3C3C3B;stroke-width:1.25;stroke-miterlimit:10;}
	.st17{fill:none;stroke:#3C3C3B;stroke-width:1.25;stroke-miterlimit:10;}
	.st18{fill:#FFFFFF;stroke:#FFFFFF;stroke-width:0.5;stroke-miterlimit:10;}
	.st19{fill:#F7BB92;stroke:#3C3C3B;stroke-width:1.25;stroke-miterlimit:10;}
	.st20{fill:#FFFFFF;stroke:#FFFFFF;stroke-width:0.25;stroke-miterlimit:10;}
	.st21{fill:#F7BB92;stroke:#3C3C3B;stroke-miterlimit:10;}
	.st22{fill:#F3F2F1;stroke:#C6C6C5;stroke-width:1.25;stroke-linejoin:round;stroke-miterlimit:10;}
	.st23{fill:#F5F5F5;stroke:#C6C6C5;stroke-width:1.25;stroke-linejoin:round;stroke-miterlimit:10;}
	.st24{fill:none;stroke:#C6C6C5;stroke-width:2;stroke-miterlimit:10;}
	.st25{fill:#F3F2F1;}
	.st26{fill:none;stroke:#FFFFFF;stroke-width:3;stroke-miterlimit:10;}
</style>
<rect x="1227.2" y="1643.7" class="st0" width="329.2" height="183.6"/>
<polygon class="st1" points="1365.7,1716.8 1413.7,1694.6 1413.7,1772.7 1365.7,1750.6 "/>
<rect x="1328.1" y="1719.9" class="st2" width="21.7" height="27.7"/>
<rect x="1333.5" y="1716.9" class="st3" width="32.4" height="33.7"/>
<rect x="1334.3" y="1717.6" class="st4" width="30.9" height="15.5"/>
<rect x="1413.6" y="1692.3" transform="matrix(-1 -1.224647e-16 1.224647e-16 -1 2831.6497 3468.437)" class="st3" width="4.4" height="83.8"/>
<rect x="1414.3" y="1693.1" class="st4" width="2.9" height="39.8"/>
<line class="st5" x1="1372.7" y1="1733.4" x2="1405.1" y2="1733.4"/>
<line class="st5" x1="1372.7" y1="1724.5" x2="1405.1" y2="1717.1"/>
<line class="st5" x1="1372.7" y1="1742.3" x2="1405.1" y2="1749.7"/>
<polygon class="st2" points="1354.8,1750.8 1344,1750.8 1351.6,1778.5 1362.5,1778.5 "/>
<g>
	<line class="st6" x1="1458.8" y1="1732.8" x2="1431.6" y2="1732.8"/>
	<polyline class="st6" points="1449.5,1723.3 1458.9,1732.7 1449.2,1742.4 	"/>
</g>
<g>
	<line class="st6" x1="1451" y1="1705.5" x2="1424.5" y2="1711.4"/>
	<polyline class="st6" points="1440,1698.2 1451.2,1705.4 1443.8,1717 	"/>
</g>
<g>
	<line class="st6" x1="1450.2" y1="1759.8" x2="1423.7" y2="1753.9"/>
	<polyline class="st6" points="1443.3,1748.5 1450.4,1759.8 1438.7,1767.2 	"/>
</g>
<g>
	<polygon class="st2" points="1266.6,1702.1 1301.8,1702.1 1301.8,1725.5 1281.6,1725.5 1272.8,1732.6 1272.7,1725.5 1266.6,1725.5 
			"/>
	<polygon class="st7" points="1318.1,1688.2 1275.6,1688.2 1275.6,1716.4 1300,1716.4 1310.7,1724.9 1310.7,1716.4 1318.1,1716.4 	
		"/>
	<line class="st5" x1="1283.5" y1="1697.3" x2="1309.8" y2="1697.3"/>
	<line class="st5" x1="1283.5" y1="1702.3" x2="1309.8" y2="1702.3"/>
	<line class="st5" x1="1283.5" y1="1707.3" x2="1302.2" y2="1707.3"/>
</g>
<g>
	<polygon class="st2" points="1289.2,1775 1313.6,1775 1313.6,1791.2 1299.6,1791.2 1293.5,1796.1 1293.5,1791.2 1289.2,1791.2 	"/>
	<polygon class="st7" points="1324.9,1765.3 1295.5,1765.3 1295.5,1784.9 1312.4,1784.9 1319.8,1790.8 1319.8,1784.9 1324.9,1784.9 
			"/>
	<line class="st5" x1="1301" y1="1771.6" x2="1319.2" y2="1771.6"/>
	<line class="st5" x1="1301" y1="1775.1" x2="1319.2" y2="1775.1"/>
	<line class="st5" x1="1301" y1="1778.6" x2="1313.9" y2="1778.6"/>
</g>
<g>
	<polygon class="st3" points="1399.9,1801.5 1383.1,1801.5 1383.1,1778 1394.7,1778 1399.9,1782.8 	"/>
	<polyline class="st5" points="1394.5,1779.2 1394.5,1782.9 1398.5,1782.9 	"/>
	<line class="st5" x1="1385.5" y1="1788.6" x2="1397.7" y2="1788.6"/>
	<line class="st5" x1="1385.5" y1="1791.1" x2="1397.7" y2="1791.1"/>
	<line class="st5" x1="1385.5" y1="1793.6" x2="1394.7" y2="1793.6"/>
	<line class="st5" x1="1385.5" y1="1786.2" x2="1397.7" y2="1786.2"/>
</g>
<g>
	<polygon class="st3" points="1359.5,1698.4 1339.4,1698.4 1339.4,1670.1 1353.3,1670.1 1359.5,1675.9 	"/>
	<polyline class="st5" points="1353.1,1671.5 1353.1,1676 1357.8,1676 	"/>
	<line class="st5" x1="1342.2" y1="1682.9" x2="1356.9" y2="1682.9"/>
	<line class="st5" x1="1342.2" y1="1685.9" x2="1356.9" y2="1685.9"/>
	<line class="st5" x1="1342.2" y1="1688.8" x2="1353.3" y2="1688.8"/>
	<line class="st5" x1="1342.2" y1="1679.9" x2="1356.9" y2="1679.9"/>
</g>
<g>
	<path class="st7" d="M1471.5,1740.6l44.4,0l0.1,0h0.1c2.7,0,4.9-2.2,4.9-4.9h0v-42.4h-44.8v8.1"/>
	<path class="st2" d="M1476.3,1701.6v34.1c0,2.7-2.2,4.9-4.9,4.9h-0.1c-2.7,0-4.9-2.2-4.9-4.9v-34.1H1476.3z"/>
	<line class="st5" x1="1471.5" y1="1705.9" x2="1471.5" y2="1736.3"/>
	<rect x="1482.7" y="1699.7" class="st1" width="10.8" height="10.8"/>
	<line class="st8" x1="1497.6" y1="1702.5" x2="1515.6" y2="1702.5"/>
	<line class="st8" x1="1497.6" y1="1707.6" x2="1512.2" y2="1707.6"/>
	<line class="st5" x1="1482.2" y1="1716.2" x2="1515.6" y2="1716.2"/>
	<line class="st5" x1="1482.2" y1="1721.3" x2="1515.6" y2="1721.3"/>
	<line class="st5" x1="1482.2" y1="1726.4" x2="1515.6" y2="1726.4"/>
	<line class="st5" x1="1482.2" y1="1731.5" x2="1505.7" y2="1731.5"/>
</g>
<g>
	<path class="st9" d="M1493.8,1778.1c-1.1,0-1.9,0.1-2.8-0.7c-0.8-0.7-3.6-3-3.6-5.2c0-1.7,0-18.1,0-18.1v-2.4
		c0-1.9,1.5-3.4,3.4-3.4l0,0c1.9,0,3.4,1.5,3.4,3.4v0.9l-0.1-0.6v-2.4c0-1.9,1.5-3.4,3.4-3.4l0,0c1.9,0,3.4,1.5,3.4,3.4v2.4l0.1-1.6
		v-2.4c0-1.9,1.5-3.4,3.4-3.4h0c1.9,0,3.4,1.5,3.4,3.4v2.4l0.1,0.2v-16.4c0-1.9,1.5-3.4,3.4-3.4l0,0c1.9,0,3.4,1.5,3.4,3.4v26.5h0
		v-5.9c0-1.9,1-5.3,5-5.2l0,0c1.7,0,1.7,1.5,1.7,3v14.9c0,0-8.5,8.9-9.1,9.6c-0.6,0.7-1.7,1-3.2,0.9"/>
	
		<rect x="1497.4" y="1769.6" transform="matrix(-1.836970e-16 1 -1 -1.836970e-16 3282.0115 280.7776)" class="st7" width="6.5" height="23.6"/>
	
		<rect x="1492.4" y="1777" transform="matrix(6.123234e-17 -1 1 6.123234e-17 -292.2922 3290.5325)" class="st3" width="13.5" height="28.8"/>
	
		<rect x="1485.6" y="1784.8" transform="matrix(6.123234e-17 -1 1 6.123234e-17 -299.5312 3283.2781)" class="st4" width="12.5" height="13.2"/>
</g>
<path class="st10" d="M1402.9,1672.5c5.3,0,5.3,6.3,10.7,6.3c5.3,0,5.3-6.3,10.7-6.3c5.3,0,5.3,6.3,10.6,6.3c5.3,0,5.3-6.3,10.7-6.3
	s5.3,6.4,10.6,6.4"/>
<g>
	<g>
		
			<rect x="1462.8" y="1673.7" transform="matrix(0.9444 0.3287 -0.3287 0.9444 631.8187 -388.0783)" class="st11" width="1.6" height="1.6"/>
		
			<rect x="1464.2" y="1671.3" transform="matrix(0.7518 0.6594 -0.6594 0.7518 1466.082 -551.0302)" class="st11" width="1.6" height="1.6"/>
		
			<rect x="1466.6" y="1669.4" transform="matrix(0.4471 0.8945 -0.8945 0.4471 2305.2815 -389.1447)" class="st11" width="1.6" height="1.6"/>
		
			<rect x="1469.4" y="1668.6" transform="matrix(7.835844e-02 0.9969 -0.9969 7.835844e-02 3019.3486 72.9053)" class="st11" width="1.6" height="1.6"/>
		
			<rect x="1472.5" y="1669.1" transform="matrix(-0.3557 0.9346 -0.9346 -0.3557 3558.0464 886.7704)" class="st11" width="1.6" height="1.6"/>
		
			<rect x="1475" y="1670.5" transform="matrix(-0.6628 0.7488 -0.7488 -0.6628 3705.4058 1674.1732)" class="st11" width="1.6" height="1.6"/>
		
			<rect x="1476.7" y="1673" transform="matrix(-0.9099 0.4149 -0.4149 -0.9099 3516.342 2583.7734)" class="st11" width="1.6" height="1.6"/>
		
			<rect x="1477.5" y="1675.9" transform="matrix(-0.9997 2.284168e-02 -2.284168e-02 -0.9997 2994.4224 3319.137)" class="st11" width="1.6" height="1.6"/>
	</g>
	
		<rect x="1477.1" y="1678.7" transform="matrix(-0.9444 -0.3287 0.3287 -0.9444 2321.4646 3751.5029)" class="st11" width="1.6" height="1.6"/>
	
		<rect x="1475.6" y="1681.2" transform="matrix(-0.7518 -0.6594 0.6594 -0.7518 1477.4296 3920.0618)" class="st11" width="1.6" height="1.6"/>
	
		<rect x="1473.3" y="1683" transform="matrix(-0.4471 -0.8945 0.8945 -0.4471 627.0215 3755.1831)" class="st11" width="1.6" height="1.6"/>
	
		<rect x="1470.4" y="1683.8" transform="matrix(-7.835844e-02 -0.9969 0.9969 -7.835844e-02 -92.8928 3283.3184)" class="st11" width="1.6" height="1.6"/>
	
		<rect x="1467.3" y="1683.4" transform="matrix(0.3557 -0.9346 0.9346 0.3557 -628.0513 2457.3337)" class="st11" width="1.6" height="1.6"/>
	
		<rect x="1464.9" y="1681.9" transform="matrix(0.6628 -0.7488 0.7488 0.6628 -765.7613 1664.8077)" class="st11" width="1.6" height="1.6"/>
	
		<rect x="1463.1" y="1679.4" transform="matrix(0.9099 -0.4149 0.4149 0.9099 -565.149 758.7548)" class="st11" width="1.6" height="1.6"/>
	
		<rect x="1462.4" y="1676.6" transform="matrix(0.9997 -2.284168e-02 2.284168e-02 0.9997 -37.9322 33.8603)" class="st11" width="1.6" height="1.6"/>
</g>
<g>
	<line class="st10" x1="1272.1" y1="1678.9" x2="1256.4" y2="1678.9"/>
	<line class="st10" x1="1264.2" y1="1686.7" x2="1264.2" y2="1671.1"/>
</g>
<rect x="1262.3" y="1758.8" transform="matrix(-0.7071 0.7071 -0.7071 -0.7071 3407.1292 2113.4431)" class="st12" width="7.2" height="7.2"/>
<rect x="0" y="0.3" class="st0" width="381" height="212.5"/>
<circle class="st13" cx="189.5" cy="84.2" r="64.6"/>
<circle class="st14" cx="189.5" cy="84.2" r="42.8"/>
<circle class="st15" cx="189.5" cy="84.2" r="22"/>
<path class="st9" d="M164.5,161.7c-1.7,0-2.8,0.1-4.1-1.1c-1.2-1.1-5.2-4.3-5.2-7.6c0-2.5,0-26.4,0-26.4v-3.5c0-2.7,2.2-4.9,4.9-4.9
	l0,0c2.7,0,4.9,2.2,4.9,4.9v1.3l-0.1-0.8v-3.5c0-2.7,2.2-4.9,4.9-4.9l0,0c2.7,0,4.9,2.2,4.9,4.9v3.5l0.1-2.4v-3.5
	c0-2.7,2.2-4.9,4.9-4.9l0,0c2.7,0,4.9,2.2,4.9,4.9v3.5l0.2,0.2V97.6c0-2.7,2.2-4.9,4.9-4.9h0c2.7,0,4.9,2.2,4.9,4.9v38.7h0v-8.6
	c0-2.7,1.4-7.7,7.3-7.7l0,0c2.4,0,2.5,2.2,2.5,4.4v21.8c0,0-12.4,13-13.4,14.1c-0.9,1.1-2.5,1.4-4.6,1.3"/>
<rect x="169.6" y="149.2" transform="matrix(-1.836970e-16 1 -1 -1.836970e-16 340.841 -7.9462)" class="st7" width="9.5" height="34.4"/>
<rect x="162.3" y="160.1" transform="matrix(6.123234e-17 -1 1 6.123234e-17 -8.8701 353.2854)" class="st3" width="19.7" height="42"/>
<rect x="152.5" y="171.4" transform="matrix(6.123234e-17 -1 1 6.123234e-17 -19.4423 342.6907)" class="st4" width="18.2" height="19.3"/>
<g>
	<path class="st16" d="M63.6,161.7H52.4c-5.6,0-10.2-4.6-10.2-10.2v-13.2c0-5.6,5.4-10.2,14.4-10.2h2.8c9.4,0,14.4,4.6,14.4,10.2
		v13.2C73.8,157.1,69.2,161.7,63.6,161.7z"/>
	<circle class="st16" cx="58.1" cy="121.4" r="6.6"/>
	<path class="st16" d="M67.2,137v22.7l-1.3,21.3c0,1.3-1.1,2.4-2.4,2.4H52.3c-1.3,0-2.4-1.1-2.4-2.4l-1.3-21.2V137"/>
	<line class="st17" x1="57.6" y1="183.1" x2="57.6" y2="160.7"/>
</g>
<circle class="st15" cx="78.6" cy="137" r="16"/>
<g>
	<path class="st18" d="M82.2,127.6l0.6,1.2c-0.5-0.1-1-0.2-1.3-0.2c-1.3,0-2.5,0.6-3.4,1.7c-0.9,1.2-1.8,3-2.5,5.5h2.6v1.2h-3
		l-1.7,6.3c1.2-0.1,2.1-0.2,2.6-0.2c0.7,0,1.6,0.1,2.5,0.3c0.9,0.2,1.6,0.3,1.9,0.3c0.8,0,1.7-0.2,2.5-0.7v1.3
		c-0.7,0.4-1.5,0.5-2.4,0.5c-0.3,0-1-0.1-2.1-0.3c-1.1-0.2-2-0.3-2.7-0.3c-1.1,0-2.4,0.1-3.9,0.4L74,137h-2.1v-1.2h2.4
		c1.5-5.6,3.8-8.4,6.7-8.4C81.4,127.4,81.8,127.5,82.2,127.6z"/>
</g>
<path class="st19" d="M283.9,72h-11.4c-5.7,0-10.3-4.6-10.3-10.3V48.4c0-5.7,5.5-10.3,14.6-10.3h2.8c9.5,0,14.6,4.6,14.6,10.3v13.4
	C294.2,67.4,289.6,72,283.9,72z"/>
<circle class="st19" cx="278.3" cy="31.2" r="6.7"/>
<path class="st19" d="M287.5,47v23l-1.3,21.6c0,1.3-1.1,2.4-2.4,2.4h-11.4c-1.3,0-2.4-1.1-2.4-2.4l-1.3-21.5V47"/>
<line class="st17" x1="277.8" y1="93.8" x2="277.8" y2="71.1"/>
<circle class="st4" cx="299.1" cy="47" r="16.3"/>
<g>
	<path class="st18" d="M302.7,37.5l0.6,1.2c-0.5-0.1-1-0.2-1.4-0.2c-1.3,0-2.5,0.6-3.5,1.8c-1,1.2-1.8,3-2.5,5.5h2.7V47h-3l-1.7,6.4
		c1.2-0.1,2.1-0.2,2.6-0.2c0.7,0,1.6,0.1,2.5,0.3s1.6,0.3,1.9,0.3c0.8,0,1.7-0.2,2.5-0.7v1.3c-0.7,0.4-1.6,0.6-2.4,0.6
		c-0.3,0-1-0.1-2.1-0.3c-1.1-0.2-2-0.3-2.7-0.3c-1.1,0-2.5,0.1-4,0.4l2.1-7.9h-2.1v-1.2h2.4c1.6-5.7,3.8-8.5,6.8-8.5
		C301.9,37.3,302.3,37.4,302.7,37.5z"/>
</g>
<g>
	<g>
		<path class="st3" d="M248.1,179.9h-8.7c-4.4,0-7.9-3.6-7.9-7.9v-10.2c0-4.4,4.2-7.9,11.2-7.9h2.2c7.3,0,11.2,3.6,11.2,7.9V172
			C256,176.3,252.4,179.9,248.1,179.9z"/>
		<circle class="st3" cx="243.8" cy="148.5" r="5.1"/>
		<path class="st3" d="M250.9,160.6v17.6l-1,16.6c0,1-0.8,1.8-1.8,1.8h-8.8c-1,0-1.8-0.8-1.8-1.8l-1-16.5v-17.7"/>
		<line class="st5" x1="243.4" y1="196.6" x2="243.4" y2="179.1"/>
	</g>
	<circle class="st15" cx="259.8" cy="160.7" r="12.5"/>
	<g>
		<path class="st20" d="M262.5,153.4l0.5,0.9c-0.4-0.1-0.7-0.2-1-0.2c-1,0-1.9,0.4-2.7,1.3c-0.7,0.9-1.4,2.3-1.9,4.3h2.1v0.9h-2.3
			l-1.3,4.9c0.9-0.1,1.6-0.1,2-0.1c0.6,0,1.2,0.1,1.9,0.2c0.7,0.1,1.2,0.2,1.5,0.2c0.7,0,1.3-0.2,1.9-0.5v1
			c-0.6,0.3-1.2,0.4-1.9,0.4c-0.2,0-0.8-0.1-1.6-0.2c-0.8-0.1-1.5-0.2-2.1-0.2c-0.9,0-1.9,0.1-3,0.3l1.6-6h-1.6v-0.9h1.9
			c1.2-4.4,2.9-6.5,5.2-6.5C261.9,153.2,262.2,153.3,262.5,153.4z"/>
	</g>
</g>
<g>
	<path class="st21" d="M120.5,149.4H115c-2.8,0-5-2.3-5-5v-6.5c0-2.8,2.7-5,7.1-5h1.4c4.6,0,7.1,2.3,7.1,5v6.5
		C125.5,147.1,123.2,149.4,120.5,149.4z"/>
	<circle class="st21" cx="117.8" cy="129.5" r="3.2"/>
	<path class="st21" d="M122.2,137.2v11.2l-0.6,10.5c0,0.6-0.5,1.2-1.2,1.2h-5.5c-0.6,0-1.2-0.5-1.2-1.2l-0.6-10.4v-11.2"/>
	<line class="st5" x1="117.5" y1="159.9" x2="117.5" y2="148.9"/>
	<circle class="st4" cx="127.9" cy="137.2" r="7.9"/>
	<g>
		<path class="st20" d="M129.6,132.6l0.3,0.6c-0.3-0.1-0.5-0.1-0.7-0.1c-0.7,0-1.2,0.3-1.7,0.9c-0.5,0.6-0.9,1.5-1.2,2.7h1.3v0.6
			h-1.5l-0.8,3.1c0.6-0.1,1-0.1,1.3-0.1c0.4,0,0.8,0,1.2,0.1s0.8,0.1,0.9,0.1c0.4,0,0.8-0.1,1.2-0.3v0.6c-0.4,0.2-0.8,0.3-1.2,0.3
			c-0.2,0-0.5,0-1-0.1c-0.5-0.1-1-0.1-1.3-0.1c-0.6,0-1.2,0.1-1.9,0.2l1-3.8h-1v-0.6h1.2c0.8-2.8,1.9-4.1,3.3-4.1
			C129.2,132.5,129.4,132.5,129.6,132.6z"/>
	</g>
</g>
<g>
	<path class="st19" d="M95.8,89.3H85.6c-5.1,0-9.3-4.2-9.3-9.3V68c0-5.1,5-9.3,13.2-9.3H92c8.6,0,13.2,4.2,13.2,9.3v12
		C105.1,85.1,100.9,89.3,95.8,89.3z"/>
	<circle class="st19" cx="90.8" cy="52.5" r="6"/>
	<path class="st19" d="M99.1,66.8v20.7L98,106.9c0,1.2-1,2.2-2.2,2.2H85.5c-1.2,0-2.2-1-2.2-2.2l-1.2-19.4V66.8"/>
	<line class="st17" x1="90.4" y1="108.9" x2="90.4" y2="88.4"/>
	<circle class="st4" cx="109.6" cy="66.8" r="14.7"/>
	<g>
		<path class="st18" d="M112.8,58.2l0.5,1.1c-0.5-0.1-0.9-0.2-1.2-0.2c-1.2,0-2.2,0.5-3.1,1.6c-0.9,1.1-1.6,2.7-2.3,5h2.4v1.1h-2.7
			l-1.5,5.8c1.1-0.1,1.9-0.2,2.4-0.2c0.7,0,1.4,0.1,2.3,0.2c0.8,0.2,1.4,0.2,1.7,0.2c0.8,0,1.5-0.2,2.3-0.6v1.2
			c-0.7,0.3-1.4,0.5-2.2,0.5c-0.3,0-0.9-0.1-1.9-0.2c-1-0.2-1.8-0.2-2.5-0.2c-1,0-2.2,0.1-3.6,0.4l1.9-7.1h-1.9v-1.1h2.2
			c1.4-5.1,3.4-7.7,6.1-7.7C112.1,58,112.4,58.1,112.8,58.2z"/>
	</g>
</g>
<g>
	<path class="st3" d="M326.7,155.6h-6.8c-3.4,0-6.1-2.8-6.1-6.1v-8c0-3.4,3.3-6.1,8.7-6.1h1.7c5.7,0,8.7,2.8,8.7,6.1v8
		C332.8,152.9,330.1,155.6,326.7,155.6z"/>
	<circle class="st3" cx="323.3" cy="131.3" r="4"/>
	<path class="st3" d="M328.8,140.7v13.7l-0.8,12.9c0,0.8-0.6,1.4-1.4,1.4h-6.8c-0.8,0-1.4-0.6-1.4-1.4l-0.8-12.8v-13.8"/>
	<line class="st5" x1="323.1" y1="168.6" x2="323.1" y2="155"/>
</g>
<circle class="st15" cx="335.8" cy="140.7" r="9.7"/>
<g>
	<path class="st18" d="M337.9,135l0.4,0.7c-0.3-0.1-0.6-0.1-0.8-0.1c-0.8,0-1.5,0.3-2.1,1c-0.6,0.7-1.1,1.8-1.5,3.3h1.6v0.7h-1.8
		l-1,3.8c0.7-0.1,1.3-0.1,1.6-0.1c0.4,0,0.9,0.1,1.5,0.2c0.6,0.1,0.9,0.2,1.2,0.2c0.5,0,1-0.1,1.5-0.4v0.8c-0.4,0.2-0.9,0.3-1.4,0.3
		c-0.2,0-0.6-0.1-1.2-0.2c-0.6-0.1-1.2-0.2-1.6-0.2c-0.7,0-1.5,0.1-2.4,0.3l1.3-4.7h-1.3V140h1.5c0.9-3.4,2.3-5.1,4-5.1
		C337.4,134.9,337.7,135,337.9,135z"/>
</g>
<g>
	<polygon class="st12" points="42.2,69.1 42.2,43.7 56.1,43.7 56.1,69.2 49.2,65.2 	"/>
	<polygon class="st22" points="49.1,30.8 54,26.8 55.6,32.9 61.8,32.5 59.6,38.4 64.8,41.8 59.6,45.2 61.8,51 55.6,50.7 54,56.7 
		49.1,52.8 44.3,56.7 42.7,50.7 36.4,51 38.7,45.2 33.4,41.8 38.7,38.4 36.4,32.5 42.7,32.9 44.3,26.8 	"/>
	<circle class="st23" cx="49.3" cy="41.9" r="8.1"/>
	<polyline class="st24" points="45.1,41.6 47.8,44.3 53.3,38.8 	"/>
</g>
<g>
	<path class="st25" d="M282.8,120.5c-2.2,0-4.5,0-6.7,0.1c-2.9,0.1-5.2,1.7-5.1,3.7c0,2,0,4,0.1,5.9c0,1.9,1,3.4,5,5.2
		c2.4,1.1,4.7,1.9,6.9,2.4L282.8,120.5z"/>
	<path class="st11" d="M283,138.5c0,0-0.1,0-0.1,0c-2.2-0.4-4.5-1.2-7.1-2.4c-3.9-1.8-5.4-3.4-5.4-5.9l-0.1-5.9
		c0-2.3,2.6-4.3,5.8-4.4l6.7-0.1c0,0,0,0,0,0c0.4,0,0.7,0.3,0.7,0.7l0.2,17.3c0,0.2-0.1,0.4-0.3,0.5
		C283.3,138.4,283.1,138.5,283,138.5z M282.1,121.2l-6,0.1c-2.4,0.1-4.5,1.4-4.5,3l0.1,5.9c0,1.6,0.8,2.8,4.6,4.6
		c2.2,1,4.1,1.7,5.9,2.1L282.1,121.2z"/>
	<path class="st25" d="M282.8,120.5c2.2,0,4.5,0,6.7-0.1c2.9,0,5.2,1.6,5.2,3.6c0,2,0,4,0.1,5.9c0,1.9-0.9,3.4-4.9,5.3
		c-2.4,1.2-4.7,2-6.9,2.5L282.8,120.5z"/>
	<path class="st11" d="M283,138.5c-0.2,0-0.3-0.1-0.4-0.1c-0.2-0.1-0.3-0.3-0.3-0.5l-0.2-17.3c0-0.4,0.3-0.7,0.7-0.7l6.7-0.1
		c3.3,0,5.9,1.9,5.9,4.3l0.1,5.9c0,2.5-1.4,4.1-5.3,6c-2.6,1.2-4.9,2.1-7,2.6C283.1,138.5,283,138.5,283,138.5z M283.5,121.2
		l0.2,15.7c1.8-0.5,3.8-1.2,5.9-2.3c3.8-1.8,4.5-3.1,4.5-4.7L294,124c0-1.5-2.1-2.9-4.5-2.9L283.5,121.2z"/>
	<path class="st25" d="M282.9,131l-22.4-8.4l22.2-8.8l22.4,8.4L282.9,131z"/>
	<path class="st11" d="M282.9,131.7c-0.1,0-0.2,0-0.2,0l-22.4-8.4c-0.3-0.1-0.4-0.4-0.4-0.6c0-0.3,0.2-0.5,0.4-0.6l22.2-8.8
		c0.2-0.1,0.3-0.1,0.5,0l22.4,8.4c0.3,0.1,0.4,0.4,0.4,0.6c0,0.3-0.2,0.5-0.4,0.6l-22.2,8.8C283.1,131.7,283,131.7,282.9,131.7z
		 M262.5,122.6l20.5,7.7l20.3-8.1l-20.5-7.7L262.5,122.6z"/>
	<path class="st11" d="M296.9,131.8c-0.4,0-0.7-0.3-0.7-0.7l0-5l-13.8-5.2c-0.4-0.1-0.5-0.5-0.4-0.9c0.1-0.4,0.5-0.5,0.9-0.4
		l14.3,5.3c0.3,0.1,0.4,0.4,0.4,0.6l0.1,5.5C297.6,131.5,297.3,131.8,296.9,131.8C296.9,131.8,296.9,131.8,296.9,131.8z"/>
	<path class="st25" d="M285.3,120.1c0,0.7-1.1,1.2-2.4,1.3c-1.3,0-2.4-0.5-2.5-1.2c0-0.7,1.1-1.2,2.4-1.3
		C284.2,118.9,285.3,119.4,285.3,120.1z"/>
	<path class="st11" d="M282.8,122.1c-1.8,0-3.1-0.8-3.1-1.9c0-1.1,1.3-1.9,3.1-2l0.1,0c1.8,0,3.1,0.8,3.1,1.9
		C286,121.2,284.6,122.1,282.8,122.1C282.8,122.1,282.8,122.1,282.8,122.1z M282.9,119.6c-1.1,0-1.7,0.4-1.8,0.6
		c0,0.1,0.6,0.5,1.7,0.5v0.7l0-0.7c1.1,0,1.7-0.4,1.7-0.6C284.5,120,283.9,119.6,282.9,119.6z"/>
	<path class="st25" d="M298.3,134.9v-2.2c0-0.7-0.6-1.3-1.3-1.3c-0.7,0-1.3,0.6-1.3,1.3v2.2H298.3z"/>
	<path class="st11" d="M299,135.6h-3.9v-2.9c0-1.1,0.9-2,2-2c1.1,0,2,0.9,2,2V135.6z M296.5,134.2h1.2v-1.5c0-0.3-0.3-0.6-0.6-0.6
		c-0.3,0-0.6,0.3-0.6,0.6V134.2z"/>
</g>
<polygon class="st12" points="327.1,79.6 332.9,75 330.3,81.9 336.4,85.9 329.1,85.6 327.1,92.7 325.2,85.6 317.8,85.9 323.9,81.9 
	321.4,75 "/>
<path class="st10" d="M76.3,173.1c7.3,0,7.4,8.8,14.8,8.8c7.3,0,7.4-8.8,14.9-8.8c7.4,0,7.4,8.8,14.7,8.8c7.4,0,7.4-8.7,14.8-8.7
	c7.4,0,7.4,8.9,14.8,8.9"/>
<polyline class="st26" points="179.1,82.6 186,89.5 200,75.5 "/>
</svg>
