<?xml version="1.0" encoding="utf-8"?>
<!-- Generator: Adobe Illustrator 26.1.0, SVG Export Plug-In . SVG Version: 6.00 Build 0)  -->
<svg version="1.1" id="Layer_1" xmlns="http://www.w3.org/2000/svg" xmlns:xlink="http://www.w3.org/1999/xlink" x="0px" y="0px"
	 viewBox="0 0 380 212" style="enable-background:new 0 0 380 212;" xml:space="preserve">
<style type="text/css">
	.st0{fill-rule:evenodd;clip-rule:evenodd;fill:#F3F2F1;}
	.st1{fill:#F4D5C1;}
	.st2{fill:#F7BB92;}
	.st3{fill:#86C4EA;stroke:#3C3C3B;stroke-width:1.25;stroke-miterlimit:10;}
	.st4{fill:none;stroke:#3C3C3B;stroke-width:1.25;stroke-miterlimit:10;}
	.st5{fill:#F7BB92;stroke:#3C3C3B;stroke-width:1.25;stroke-miterlimit:10;}
	.st6{fill:#86C4EA;stroke:#3C3C3B;stroke-miterlimit:10;}
	.st7{fill:none;stroke:#3C3C3B;stroke-miterlimit:10;}
	.st8{fill:#F7BB92;stroke:#3C3C3B;stroke-miterlimit:10;}
	.st9{fill:#F3F2F1;stroke:#C6C6C5;stroke-width:1.25;stroke-miterlimit:10;}
	.st10{fill:#F3F2F1;stroke:#C6C6C5;stroke-width:1.25;stroke-linejoin:round;stroke-miterlimit:10;}
	.st11{fill:#F5F5F5;stroke:#C6C6C5;stroke-width:1.25;stroke-linejoin:round;stroke-miterlimit:10;}
	.st12{fill:none;stroke:#C6C6C5;stroke-width:2;stroke-miterlimit:10;}
	.st13{fill:#F3F2F1;}
	.st14{fill:#C6C6C5;}
	.st15{fill:none;stroke:#C6C6C5;stroke-width:1.25;stroke-miterlimit:10;}
	.st16{fill:#00703C;stroke:#3C3C3B;stroke-width:1.25;stroke-miterlimit:10;}
	.st17{fill:none;stroke:#FFFFFF;stroke-width:4;stroke-miterlimit:10;}
	.st18{fill:#C6C6C5;stroke:#3C3C3B;stroke-linejoin:round;stroke-miterlimit:10;}
	.st19{fill:#FFFFFF;stroke:#3C3C3B;stroke-miterlimit:10;}
	.st20{fill:#1D70B8;}
	.st21{fill:#D4351C;}
	.st22{fill-rule:evenodd;clip-rule:evenodd;fill:#FFFFFF;}
	.st23{clip-path:url(#SVGID_00000181796994010355319350000004228742633472371635_);}
	.st24{fill:#FFFFFF;}
	.st25{clip-path:url(#SVGID_00000114052731742610818660000001024102886525369497_);}
	.st26{clip-path:url(#SVGID_00000122693262174877129840000009752251640318772370_);}
	.st27{fill:#00703C;}
</style>
<rect x="0.9" y="0.6" class="st0" width="379.7" height="211.8"/>
<circle class="st1" cx="189.6" cy="84.2" r="64.3"/>
<circle class="st2" cx="189.6" cy="84.2" r="42.6"/>
<g>
	<path class="st3" d="M64.2,161.4H53c-5.6,0-10.1-4.6-10.1-10.1v-13.1c0-5.6,5.4-10.1,14.3-10.1H60c9.3,0,14.3,4.6,14.3,10.1v13.1
		C74.3,156.9,69.8,161.4,64.2,161.4z"/>
	<circle class="st3" cx="58.7" cy="121.3" r="6.6"/>
	<path class="st3" d="M67.8,136.8v22.6l-1.3,21.2c0,1.3-1.1,2.4-2.4,2.4H52.9c-1.3,0-2.4-1.1-2.4-2.4l-1.3-21.1v-22.7"/>
	<line class="st4" x1="58.3" y1="182.8" x2="58.3" y2="160.5"/>
</g>
<path class="st5" d="M283.7,72.1h-11.4c-5.6,0-10.3-4.6-10.3-10.3V48.5c0-5.6,5.5-10.3,14.6-10.3h2.8c9.5,0,14.6,4.6,14.6,10.3v13.3
	C294,67.5,289.4,72.1,283.7,72.1z"/>
<circle class="st5" cx="278.1" cy="31.4" r="6.6"/>
<path class="st5" d="M288.3,47.1V70L287,91.6c0,1.3-1.1,2.4-2.4,2.4h-11.4c-1.3,0-2.4-1.1-2.4-2.4l-1.3-21.4v-23"/>
<line class="st4" x1="277.7" y1="93.8" x2="277.7" y2="71.1"/>
<g>
	<path class="st6" d="M248,179.6h-8.7c-4.3,0-7.9-3.5-7.9-7.9v-10.2c0-4.3,4.2-7.9,11.2-7.9h2.1c7.3,0,11.2,3.5,11.2,7.9v10.2
		C255.9,176,252.4,179.6,248,179.6z"/>
	<circle class="st6" cx="243.7" cy="148.3" r="5.1"/>
	<path class="st6" d="M250.8,160.4V178l-1,16.5c0,1-0.8,1.8-1.8,1.8h-8.7c-1,0-1.8-0.8-1.8-1.8l-1-16.4v-17.7"/>
	<line class="st7" x1="243.4" y1="196.2" x2="243.4" y2="178.8"/>
</g>
<path class="st8" d="M120.9,149.2h-5.5c-2.7,0-5-2.2-5-5v-6.5c0-2.7,2.7-5,7.1-5h1.4c4.6,0,7.1,2.2,7.1,5v6.5
	C125.9,146.9,123.6,149.2,120.9,149.2z"/>
<circle class="st8" cx="118.2" cy="129.4" r="3.2"/>
<path class="st8" d="M122.6,137v11.1l-0.6,10.5c0,0.6-0.5,1.2-1.2,1.2h-5.5c-0.6,0-1.2-0.5-1.2-1.2l-0.6-10.4V137"/>
<line class="st7" x1="118" y1="159.7" x2="118" y2="148.7"/>
<path class="st8" d="M96.3,89.3H86.1c-5.1,0-9.3-4.2-9.3-9.3V68c0-5.1,4.9-9.3,13.1-9.3h2.5c8.5,0,13.1,4.2,13.1,9.3v12
	C105.6,85.2,101.4,89.3,96.3,89.3z"/>
<circle class="st8" cx="91.3" cy="52.6" r="6"/>
<path class="st8" d="M99.6,66.8v20.6l-1.2,19.4c0,1.2-1,2.2-2.2,2.2H86c-1.2,0-2.2-1-2.2-2.2l-1.2-19.3V66.8"/>
<line class="st7" x1="90.9" y1="108.8" x2="90.9" y2="88.4"/>
<g>
	<path class="st6" d="M326.4,155.4h-6.8c-3.4,0-6.1-2.8-6.1-6.1v-7.9c0-3.4,3.3-6.1,8.7-6.1h1.7c5.6,0,8.7,2.8,8.7,6.1v7.9
		C332.5,152.6,329.7,155.4,326.4,155.4z"/>
	<circle class="st6" cx="323" cy="131.1" r="4"/>
	<path class="st6" d="M328.5,140.5v13.7l-0.8,12.8c0,0.8-0.6,1.4-1.4,1.4h-6.8c-0.8,0-1.4-0.6-1.4-1.4l-0.8-12.8v-13.7"/>
	<line class="st7" x1="322.8" y1="168.3" x2="322.8" y2="154.8"/>
</g>
<g>
	<polygon class="st9" points="42.8,69.2 42.9,43.8 56.8,43.9 56.7,69.2 49.9,65.3 	"/>
	<polygon class="st10" points="49.8,31 54.6,27 56.2,33.1 62.4,32.7 60.2,38.5 65.4,41.9 60.2,45.3 62.4,51.1 56.2,50.8 54.6,56.8 
		49.8,52.9 44.9,56.8 43.3,50.8 37.1,51.1 39.3,45.3 34.1,41.9 39.3,38.5 37.1,32.7 43.3,33.1 44.9,27 	"/>
	<circle class="st11" cx="49.9" cy="42.1" r="8"/>
	<polyline class="st12" points="45.8,41.8 48.5,44.5 54,39 	"/>
</g>
<g>
	<path class="st13" d="M282.7,120.4c-2.2,0-4.4,0-6.7,0.1c-2.9,0.1-5.2,1.7-5.1,3.7c0,2,0,3.9,0.1,5.9c0,1.9,1,3.4,5,5.2
		c2.4,1.1,4.7,1.9,6.9,2.4L282.7,120.4z"/>
	<path class="st14" d="M282.8,138.3h-0.1c-2.2-0.4-4.5-1.2-7-2.4c-3.9-1.8-5.4-3.4-5.4-5.8l-0.1-5.9c0-2.3,2.6-4.3,5.8-4.3l6.7-0.1
		l0,0c0.4,0,0.7,0.3,0.7,0.7l0.2,17.2c0,0.2-0.1,0.4-0.3,0.5C283.1,138.2,283,138.3,282.8,138.3z M282,121.1l-6,0.1
		c-2.4,0.1-4.5,1.4-4.4,3l0.1,5.9c0,1.6,0.8,2.8,4.6,4.6c2.1,1,4.1,1.7,5.9,2.1L282,121.1z"/>
	<path class="st13" d="M282.6,120.4c2.2,0,4.4,0,6.7-0.1c2.9,0,5.2,1.6,5.2,3.6s0,3.9,0.1,5.9c0,1.9-0.9,3.4-4.9,5.3
		c-2.4,1.2-4.7,2-6.8,2.5L282.6,120.4z"/>
	<path class="st14" d="M282.8,138.3c-0.2,0-0.3-0.1-0.4-0.1c-0.2-0.1-0.3-0.3-0.3-0.5l-0.2-17.2c0-0.4,0.3-0.7,0.7-0.7l6.7-0.1
		c3.2,0,5.9,1.9,5.9,4.2l0.1,5.9c0,2.5-1.4,4.1-5.3,5.9c-2.5,1.2-4.8,2.1-7,2.6C282.9,138.3,282.9,138.3,282.8,138.3z M283.3,121
		l0.2,15.7c1.8-0.5,3.7-1.2,5.9-2.3c3.8-1.8,4.5-3.1,4.5-4.7l-0.1-5.9c0-1.5-2.1-2.8-4.5-2.9L283.3,121z"/>
	<path class="st13" d="M282.7,130.9l-22.3-8.4l22.1-8.8l22.3,8.4L282.7,130.9z"/>
	<path class="st14" d="M282.7,131.6c-0.1,0-0.2,0-0.2,0l-22.3-8.4c-0.3-0.1-0.4-0.4-0.4-0.6c0-0.3,0.2-0.5,0.4-0.6l22.1-8.8
		c0.2-0.1,0.3-0.1,0.5,0l22.3,8.4c0.3,0.1,0.4,0.4,0.4,0.6c0,0.3-0.2,0.5-0.4,0.6l-22.1,8.8C282.9,131.5,282.8,131.6,282.7,131.6z
		 M262.4,122.5l20.4,7.6l20.2-8l-20.4-7.6L262.4,122.5z"/>
	<path class="st14" d="M296.7,131.7c-0.4,0-0.7-0.3-0.7-0.7v-5l-13.8-5.2c-0.4-0.1-0.5-0.5-0.4-0.9s0.5-0.5,0.9-0.4l14.2,5.3
		c0.3,0.1,0.4,0.4,0.4,0.6l0.1,5.5C297.4,131.3,297.1,131.7,296.7,131.7L296.7,131.7z"/>
	<path class="st13" d="M285.1,120c0,0.7-1.1,1.2-2.4,1.3c-1.3,0-2.4-0.5-2.4-1.2s1.1-1.2,2.4-1.3C284,118.8,285.1,119.3,285.1,120z"
		/>
	<path class="st14" d="M282.6,122c-1.8,0-3.1-0.8-3.1-1.9s1.3-1.9,3.1-2h0.1c1.8,0,3.1,0.8,3.1,1.9
		C285.8,121.1,284.5,121.9,282.6,122C282.7,122,282.6,122,282.6,122z M282.7,119.5c-1.1,0-1.7,0.4-1.8,0.6c0,0.1,0.6,0.5,1.7,0.5
		v0.7v-0.7c1.1,0,1.7-0.4,1.7-0.6C284.4,119.9,283.8,119.5,282.7,119.5z"/>
	<path class="st13" d="M298.1,134.7v-2.2c0-0.7-0.6-1.3-1.3-1.3c-0.7,0-1.3,0.6-1.3,1.3v2.2H298.1z"/>
	<path class="st14" d="M298.8,135.4h-3.9v-2.9c0-1.1,0.9-2,2-2s2,0.9,2,2v2.9H298.8z M296.3,134h1.2v-1.5c0-0.3-0.3-0.6-0.6-0.6
		c-0.3,0-0.6,0.3-0.6,0.6V134z"/>
</g>
<polygon class="st9" points="326.8,79.6 332.5,75 330,81.9 336.1,85.9 328.8,85.6 326.8,92.7 324.8,85.6 317.5,85.9 323.6,81.9 
	321.1,75 "/>
<path class="st15" d="M76.9,172.8c7.3,0,7.4,8.8,14.8,8.8c7.3,0,7.4-8.8,14.8-8.8c7.3,0,7.3,8.8,14.7,8.8c7.4,0,7.3-8.7,14.8-8.7
	s7.3,8.9,14.7,8.9"/>
<g>
	<circle class="st16" cx="189.7" cy="83.9" r="21"/>
	<polyline class="st17" points="179.4,83.9 186.8,91.3 201.7,76.4 	"/>
</g>
<g>
	<path class="st18" d="M164.7,161.4c-1.6,0-2.8,0.1-4.1-1c-1.2-1.1-5.2-4.3-5.2-7.6c0-2.5,0-26.3,0-26.3V123c0-2.7,2.2-4.9,4.9-4.9
		l0,0c2.7,0,4.9,2.2,4.9,4.9v1.3l-0.1-0.8V120c0-2.7,2.2-4.9,4.9-4.9l0,0c2.7,0,4.9,2.2,4.9,4.9v3.5l0.1-2.4v-3.5
		c0-2.7,2.2-4.9,4.9-4.9l0,0c2.7,0,4.9,2.2,4.9,4.9v3.5l0.2,0.2V97.6c0-2.7,2.2-4.9,4.9-4.9l0,0c2.7,0,4.9,2.2,4.9,4.9v38.5l0,0
		v-8.5c0-2.7,1.4-7.7,7.3-7.6l0,0c2.4,0,2.5,2.2,2.5,4.4v21.7c0,0-12.4,13-13.3,14s-2.5,1.4-4.6,1.3"/>
	<rect x="157.5" y="161.5" class="st19" width="34.3" height="9.5"/>
	<rect x="151.5" y="170.9" class="st6" width="41.9" height="19.7"/>
	<rect x="152.2" y="171.7" class="st20" width="19.3" height="18.1"/>
</g>
<g>
	<circle class="st21" cx="296.7" cy="45.9" r="13.1"/>
	<g>
		<g>
			<path id="SVGID_1_" class="st22" d="M294.3,37.9h-0.8c-0.8,0-1.5,0.7-1.5,1.5v14.3c0,0.6,0.5,1.1,1.1,1.1s1.1-0.5,1.1-1.1v-7
				c0-0.6,0.5-1.1,1.1-1.1h5.1c0.8,0,1.5-0.7,1.5-1.5v-4.6c0-0.8-0.7-1.5-1.5-1.5h-6.1V37.9z"/>
		</g>
		<g>
			<defs>
				<path id="SVGID_00000150096490575266190610000004033284030718817672_" d="M294.3,37.9h-0.8c-0.8,0-1.5,0.7-1.5,1.5v14.3
					c0,0.6,0.5,1.1,1.1,1.1s1.1-0.5,1.1-1.1v-7c0-0.6,0.5-1.1,1.1-1.1h5.1c0.8,0,1.5-0.7,1.5-1.5v-4.6c0-0.8-0.7-1.5-1.5-1.5h-6.1
					V37.9z"/>
			</defs>
			<clipPath id="SVGID_00000054230439698499026720000002431661606281171345_">
				<use xlink:href="#SVGID_00000150096490575266190610000004033284030718817672_"  style="overflow:visible;"/>
			</clipPath>
			<g style="clip-path:url(#SVGID_00000054230439698499026720000002431661606281171345_);">
				<g>
					
						<rect id="SVGID_00000176023344061741048960000001952020330463086511_" x="292.1" y="37.9" class="st24" width="10" height="17"/>
				</g>
			</g>
		</g>
	</g>
</g>
<g>
	<circle class="st21" cx="128.4" cy="137.2" r="8.4"/>
	<g>
		<g>
			<path id="SVGID_00000052096803613911885450000002504106703556237740_" class="st22" d="M126.9,132.1h-0.5c-0.5,0-1,0.4-1,1v9.1
				c0,0.4,0.3,0.7,0.7,0.7c0.4,0,0.7-0.3,0.7-0.7v-4.5c0-0.4,0.3-0.7,0.7-0.7h3.3c0.5,0,1-0.4,1-1v-3c0-0.5-0.4-1-1-1L126.9,132.1
				L126.9,132.1z"/>
		</g>
		<g>
			<defs>
				<path id="SVGID_00000143602668933982681100000013176721925498807686_" d="M126.9,132.1h-0.5c-0.5,0-1,0.4-1,1v9.1
					c0,0.4,0.3,0.7,0.7,0.7c0.4,0,0.7-0.3,0.7-0.7v-4.5c0-0.4,0.3-0.7,0.7-0.7h3.3c0.5,0,1-0.4,1-1v-3c0-0.5-0.4-1-1-1L126.9,132.1
					L126.9,132.1z"/>
			</defs>
			<clipPath id="SVGID_00000148641178471656056370000008552720313716861356_">
				<use xlink:href="#SVGID_00000143602668933982681100000013176721925498807686_"  style="overflow:visible;"/>
			</clipPath>
			<g style="clip-path:url(#SVGID_00000148641178471656056370000008552720313716861356_);">
				<g>
					
						<rect id="SVGID_00000119103389018952340740000010795198533157922740_" x="125.5" y="132.1" class="st24" width="6.4" height="10.8"/>
				</g>
			</g>
		</g>
	</g>
</g>
<g>
	<circle class="st21" cx="334.8" cy="142" r="10.2"/>
	<g>
		<g>
			<path id="SVGID_00000163773058638927230190000015041459191703964046_" class="st22" d="M333,135.7h-0.6c-0.6,0-1.2,0.5-1.2,1.2
				V148c0,0.5,0.4,0.9,0.9,0.9s0.9-0.4,0.9-0.9v-5.5c0-0.5,0.4-0.9,0.9-0.9h4c0.6,0,1.2-0.5,1.2-1.2v-3.6c0-0.7-0.5-1.2-1.2-1.2
				L333,135.7L333,135.7z"/>
		</g>
		<g>
			<defs>
				<path id="SVGID_00000071531370570474613250000011630605188697149829_" d="M333,135.7h-0.6c-0.6,0-1.2,0.5-1.2,1.2V148
					c0,0.5,0.4,0.9,0.9,0.9s0.9-0.4,0.9-0.9v-5.5c0-0.5,0.4-0.9,0.9-0.9h4c0.6,0,1.2-0.5,1.2-1.2v-3.6c0-0.7-0.5-1.2-1.2-1.2
					L333,135.7L333,135.7z"/>
			</defs>
			<clipPath id="SVGID_00000178189985277305764190000010132656063661221514_">
				<use xlink:href="#SVGID_00000071531370570474613250000011630605188697149829_"  style="overflow:visible;"/>
			</clipPath>
			<g style="clip-path:url(#SVGID_00000178189985277305764190000010132656063661221514_);">
				<g>
					
						<rect id="SVGID_00000031905503561313744570000001640206089303525539_" x="331.2" y="135.7" class="st24" width="7.8" height="13.2"/>
				</g>
			</g>
		</g>
	</g>
</g>
<g>
	<circle class="st27" cx="75.4" cy="136.3" r="13.5"/>
	<polygon class="st24" points="73.5,143.4 67.6,137.5 70,135 73.5,138.6 82,130.2 84.4,132.6 	"/>
</g>
<g>
	<circle class="st27" cx="105.8" cy="67" r="11.8"/>
	<polygon class="st24" points="104.2,73.2 98.9,68 101,65.9 104.2,69 111.5,61.6 113.6,63.8 	"/>
</g>
<g>
	<ellipse transform="matrix(0.1602 -0.9871 0.9871 0.1602 58.3927 387.6324)" class="st27" cx="257" cy="159.5" rx="9.8" ry="9.8"/>
	<polygon class="st24" points="255.6,164.7 251.3,160.4 253,158.6 255.6,161.2 261.7,155.1 263.5,156.8 	"/>
</g>
</svg>
